M48
;DRILL file {KiCad 4.0.6} date 01/22/18 19:54:54
;FORMAT={-:-/ absolute / metric / decimal}
FMAT,2
METRIC,TZ
T1C0.400
T2C0.600
T3C0.635
T4C0.700
T5C0.800
T6C0.900
T7C1.000
T8C1.448
%
G90
G05
M71
T1
X185.42Y-73.914
X187.198Y-59.69
X187.706Y-106.426
X187.96Y-60.452
X187.96Y-61.976
X189.738Y-48.768
X190.5Y-109.982
X190.754Y-56.642
X191.516Y-48.768
X191.516Y-58.42
X191.516Y-118.618
X191.516Y-144.78
X191.77Y-117.602
X192.786Y-52.832
X193.04Y-59.69
X193.294Y-48.006
X193.294Y-109.982
X193.548Y-140.208
X194.056Y-120.142
X194.31Y-137.414
X195.072Y-113.538
X195.58Y-53.34
X195.58Y-118.11
X196.088Y-56.642
X196.088Y-115.316
X196.088Y-146.304
X196.342Y-138.938
X196.342Y-143.002
X196.85Y-57.15
X196.85Y-88.138
X197.104Y-54.102
X197.104Y-118.618
X197.358Y-54.864
X197.358Y-89.916
X197.612Y-55.626
X197.612Y-57.658
X197.612Y-91.44
X197.612Y-113.284
X197.866Y-82.042
X198.12Y-52.324
X198.12Y-67.564
X198.12Y-86.106
X198.12Y-128.016
X198.628Y-119.126
X199.136Y-58.42
X199.136Y-108.204
X199.136Y-113.284
X199.39Y-137.922
X199.644Y-52.578
X199.644Y-57.658
X199.644Y-118.872
X199.898Y-84.836
X199.898Y-116.586
X200.152Y-113.284
X200.66Y-52.578
X201.93Y-84.836
X202.184Y-86.106
X203.708Y-74.676
X204.216Y-139.192
X204.216Y-143.256
X204.216Y-144.78
X204.47Y-88.646
X204.724Y-83.312
X204.978Y-19.304
X206.756Y-140.208
X207.264Y-137.668
X208.28Y-128.524
X208.534Y-120.904
X209.55Y-119.38
X209.55Y-146.05
X210.566Y-122.682
X210.82Y-86.36
X211.074Y-118.11
X211.074Y-119.38
X211.328Y-124.46
X211.582Y-87.63
X211.836Y-44.196
X212.598Y-122.428
X213.36Y-19.304
X213.614Y-121.92
X213.868Y-120.904
X214.884Y-44.196
X215.646Y-129.54
X216.154Y-85.852
X216.154Y-87.376
X216.662Y-90.678
X217.678Y-118.364
X217.932Y-44.196
X218.44Y-117.094
X218.694Y-120.142
X220.98Y-44.196
X221.742Y-19.304
X223.012Y-123.444
X223.012Y-126.238
X223.266Y-116.078
X223.266Y-120.65
X224.028Y-117.602
X224.028Y-121.412
X224.536Y-128.778
X228.6Y-40.894
X228.854Y-42.672
X229.108Y-116.078
X229.108Y-118.11
X230.124Y-19.304
X230.124Y-44.704
X230.378Y-36.068
X230.378Y-41.91
X230.378Y-43.942
X231.394Y-48.006
X232.918Y-36.068
X232.918Y-40.64
X233.172Y-77.978
X233.426Y-44.704
X234.188Y-43.942
X234.696Y-46.736
X234.95Y-60.198
X235.712Y-36.322
X235.712Y-59.182
X235.966Y-46.99
X236.728Y-39.878
X236.982Y-43.434
X237.998Y-42.164
X238.506Y-19.304
X238.76Y-44.45
X239.268Y-39.624
X239.522Y-44.958
X239.776Y-54.102
X240.284Y-45.466
X240.538Y-34.544
X240.792Y-39.624
X241.046Y-45.72
X241.554Y-43.942
X241.808Y-39.624
X243.586Y-46.99
X246.126Y-46.99
X250.444Y-48.006
X250.952Y-43.942
X252.222Y-51.054
X252.222Y-53.086
X254.Y-45.212
X254.508Y-30.48
X256.54Y-49.022
X261.366Y-41.656
X261.62Y-42.926
X261.62Y-48.006
X265.43Y-42.672
X265.43Y-45.974
X266.446Y-42.926
X268.478Y-43.942
X270.256Y-41.402
X270.764Y-44.958
X271.526Y-52.324
T2
X210.566Y-22.86
X211.836Y-21.59
X211.836Y-24.13
X212.598Y-81.534
X213.868Y-80.264
X215.138Y-81.534
X218.948Y-22.86
X220.218Y-21.59
X220.218Y-24.13
X227.33Y-22.86
X228.6Y-21.59
X228.6Y-24.13
X235.712Y-22.86
X236.982Y-21.59
X236.982Y-24.13
X244.094Y-22.86
X245.364Y-21.59
X245.364Y-24.13
X257.048Y-27.432
X258.318Y-28.702
X259.588Y-27.432
T3
X184.658Y-41.148
X186.658Y-41.148
T4
X211.328Y-32.004
X211.328Y-34.544
X214.376Y-32.004
X214.376Y-34.544
X217.424Y-32.004
X217.424Y-34.544
X220.472Y-32.004
X220.472Y-34.544
T5
X205.264Y-77.978
X207.264Y-77.978
T6
X209.042Y-15.494
X209.042Y-18.034
X217.424Y-15.494
X217.424Y-18.034
X225.806Y-15.494
X225.806Y-18.034
X234.188Y-15.494
X234.188Y-18.034
X242.57Y-15.494
X242.57Y-18.034
T7
X185.166Y-108.966
X185.166Y-111.506
X185.166Y-114.046
X185.166Y-116.586
X185.166Y-119.126
X185.166Y-121.666
X185.42Y-48.514
X185.42Y-51.054
X185.42Y-53.594
X185.42Y-56.134
X185.42Y-58.674
X185.42Y-61.214
X185.674Y-29.21
X185.674Y-31.75
X185.674Y-34.29
X188.468Y-141.224
X188.976Y-74.93
X188.976Y-79.43
X195.476Y-74.93
X195.476Y-79.43
X195.58Y-134.112
X200.66Y-148.844
X202.692Y-134.112
X206.248Y-134.112
X209.804Y-134.112
X212.598Y-62.738
X225.552Y-34.544
X225.552Y-37.084
X225.552Y-39.624
X225.552Y-42.164
X225.552Y-44.704
X225.552Y-47.244
X225.552Y-102.87
X228.092Y-102.87
X230.632Y-102.87
X231.902Y-110.49
X233.172Y-102.87
X233.172Y-122.428
X235.712Y-102.87
X238.252Y-102.87
X240.792Y-102.87
X243.332Y-102.87
X245.872Y-102.87
X248.412Y-102.87
X250.952Y-102.87
X253.492Y-102.87
X256.032Y-102.87
X258.064Y-109.474
X258.572Y-102.87
X261.112Y-102.87
X261.62Y-109.474
X263.144Y-27.686
X263.652Y-102.87
X265.176Y-109.474
X266.192Y-102.87
X266.7Y-27.686
X268.732Y-102.87
X268.732Y-109.474
X270.256Y-27.686
T8
X184.658Y-18.542
X194.658Y-18.542
X255.256Y-19.304
X260.256Y-19.304
X265.256Y-19.304
X270.256Y-19.304
T0
M30
