G04 #@! TF.FileFunction,Legend,Top*
%FSLAX46Y46*%
G04 Gerber Fmt 4.6, Leading zero omitted, Abs format (unit mm)*
G04 Created by KiCad (PCBNEW 4.0.6) date 01/22/18 20:01:01*
%MOMM*%
%LPD*%
G01*
G04 APERTURE LIST*
%ADD10C,0.100000*%
%ADD11C,0.150000*%
%ADD12C,0.200000*%
%ADD13C,0.120000*%
G04 APERTURE END LIST*
D10*
D11*
X211455143Y-64528000D02*
X211312286Y-64456571D01*
X211098000Y-64456571D01*
X210883715Y-64528000D01*
X210740857Y-64670857D01*
X210669429Y-64813714D01*
X210598000Y-65099429D01*
X210598000Y-65313714D01*
X210669429Y-65599429D01*
X210740857Y-65742286D01*
X210883715Y-65885143D01*
X211098000Y-65956571D01*
X211240857Y-65956571D01*
X211455143Y-65885143D01*
X211526572Y-65813714D01*
X211526572Y-65313714D01*
X211240857Y-65313714D01*
X212169429Y-65956571D02*
X212169429Y-64456571D01*
X213026572Y-65956571D01*
X213026572Y-64456571D01*
X213740858Y-65956571D02*
X213740858Y-64456571D01*
X214098001Y-64456571D01*
X214312286Y-64528000D01*
X214455144Y-64670857D01*
X214526572Y-64813714D01*
X214598001Y-65099429D01*
X214598001Y-65313714D01*
X214526572Y-65599429D01*
X214455144Y-65742286D01*
X214312286Y-65885143D01*
X214098001Y-65956571D01*
X213740858Y-65956571D01*
D12*
X272542000Y-105410000D02*
X221742000Y-105410000D01*
X272542000Y-54610000D02*
X272542000Y-105410000D01*
X221742000Y-54610000D02*
X272542000Y-54610000D01*
X221742000Y-105410000D02*
X221742000Y-54610000D01*
D11*
X252256000Y-25104000D02*
X252256000Y-13504000D01*
X272256000Y-25104000D02*
X272256000Y-13504000D01*
X272256000Y-13504000D02*
X252256000Y-13504000D01*
X272256000Y-25104000D02*
X252256000Y-25104000D01*
X236151000Y-46297000D02*
X236376000Y-46297000D01*
X236151000Y-39047000D02*
X236476000Y-39047000D01*
X243401000Y-39047000D02*
X243076000Y-39047000D01*
X243401000Y-46297000D02*
X243076000Y-46297000D01*
X236151000Y-46297000D02*
X236151000Y-45972000D01*
X243401000Y-46297000D02*
X243401000Y-45972000D01*
X243401000Y-39047000D02*
X243401000Y-39372000D01*
X236151000Y-39047000D02*
X236151000Y-39372000D01*
X236376000Y-46297000D02*
X236376000Y-47722000D01*
D13*
X247214000Y-24660000D02*
X247214000Y-21060000D01*
X247202478Y-24698478D02*
G75*
G02X242764000Y-22860000I-1838478J1838478D01*
G01*
X247202478Y-21021522D02*
G75*
G03X242764000Y-22860000I-1838478J-1838478D01*
G01*
D11*
X183642000Y-39878000D02*
X183642000Y-40386000D01*
X183388000Y-40132000D02*
X183896000Y-40132000D01*
X188573476Y-41148000D02*
G75*
G03X188573476Y-41148000I-2915476J0D01*
G01*
D13*
X270062000Y-104200000D02*
X270062000Y-101540000D01*
X226822000Y-104200000D02*
X270062000Y-104200000D01*
X226822000Y-101540000D02*
X270062000Y-101540000D01*
X226822000Y-104200000D02*
X226822000Y-101540000D01*
X225552000Y-104200000D02*
X224222000Y-104200000D01*
X224222000Y-104200000D02*
X224222000Y-102870000D01*
X224222000Y-48574000D02*
X226882000Y-48574000D01*
X224222000Y-35814000D02*
X224222000Y-48574000D01*
X226882000Y-35814000D02*
X226882000Y-48574000D01*
X224222000Y-35814000D02*
X226882000Y-35814000D01*
X224222000Y-34544000D02*
X224222000Y-33214000D01*
X224222000Y-33214000D02*
X225552000Y-33214000D01*
X184090000Y-62544000D02*
X186750000Y-62544000D01*
X184090000Y-49784000D02*
X184090000Y-62544000D01*
X186750000Y-49784000D02*
X186750000Y-62544000D01*
X184090000Y-49784000D02*
X186750000Y-49784000D01*
X184090000Y-48514000D02*
X184090000Y-47184000D01*
X184090000Y-47184000D02*
X185420000Y-47184000D01*
X260118000Y-25582000D02*
X256518000Y-25582000D01*
X260156478Y-25593522D02*
G75*
G02X258318000Y-30032000I-1838478J-1838478D01*
G01*
X256479522Y-25593522D02*
G75*
G03X258318000Y-30032000I1838478J-1838478D01*
G01*
X238832000Y-24660000D02*
X238832000Y-21060000D01*
X238820478Y-24698478D02*
G75*
G02X234382000Y-22860000I-1838478J1838478D01*
G01*
X238820478Y-21021522D02*
G75*
G03X234382000Y-22860000I-1838478J-1838478D01*
G01*
X230450000Y-24660000D02*
X230450000Y-21060000D01*
X230438478Y-24698478D02*
G75*
G02X226000000Y-22860000I-1838478J1838478D01*
G01*
X230438478Y-21021522D02*
G75*
G03X226000000Y-22860000I-1838478J-1838478D01*
G01*
X222068000Y-24660000D02*
X222068000Y-21060000D01*
X222056478Y-24698478D02*
G75*
G02X217618000Y-22860000I-1838478J1838478D01*
G01*
X222056478Y-21021522D02*
G75*
G03X217618000Y-22860000I-1838478J-1838478D01*
G01*
X213686000Y-24660000D02*
X213686000Y-21060000D01*
X213674478Y-24698478D02*
G75*
G02X209236000Y-22860000I-1838478J1838478D01*
G01*
X213674478Y-21021522D02*
G75*
G03X209236000Y-22860000I-1838478J-1838478D01*
G01*
X212068000Y-83384000D02*
X215668000Y-83384000D01*
X212029522Y-83372478D02*
G75*
G02X213868000Y-78934000I1838478J1838478D01*
G01*
X215706478Y-83372478D02*
G75*
G03X213868000Y-78934000I-1838478J1838478D01*
G01*
X193640214Y-77180000D02*
G75*
G03X193640214Y-77180000I-1414214J0D01*
G01*
X189256000Y-80300000D02*
X195196000Y-80300000D01*
X189256000Y-74060000D02*
X195196000Y-74060000D01*
X189106000Y-78520000D02*
X189106000Y-75840000D01*
X195346000Y-75840000D02*
X195346000Y-78520000D01*
D11*
X214240000Y-128451000D02*
X215240000Y-129451000D01*
X215240000Y-129451000D02*
X222640000Y-129451000D01*
X222640000Y-129451000D02*
X222640000Y-116421000D01*
X222640000Y-116421000D02*
X214240000Y-116421000D01*
X214240000Y-116421000D02*
X214240000Y-128451000D01*
X192127000Y-142899000D02*
X192302000Y-142899000D01*
X192127000Y-139549000D02*
X192377000Y-139549000D01*
X195477000Y-139549000D02*
X195227000Y-139549000D01*
X195477000Y-142899000D02*
X195227000Y-142899000D01*
X192127000Y-142899000D02*
X192127000Y-139549000D01*
X195477000Y-142899000D02*
X195477000Y-139549000D01*
X192302000Y-142899000D02*
X192302000Y-144149000D01*
D13*
X183226000Y-29876000D02*
X183226000Y-30576000D01*
X182026000Y-30576000D02*
X182026000Y-29876000D01*
X268636000Y-52232000D02*
X269336000Y-52232000D01*
X269336000Y-53432000D02*
X268636000Y-53432000D01*
X227172000Y-125822000D02*
X226472000Y-125822000D01*
X226472000Y-124622000D02*
X227172000Y-124622000D01*
X226918000Y-120234000D02*
X226218000Y-120234000D01*
X226218000Y-119034000D02*
X226918000Y-119034000D01*
X254858000Y-51654000D02*
X254158000Y-51654000D01*
X254158000Y-50454000D02*
X254858000Y-50454000D01*
X208946000Y-123860000D02*
X209646000Y-123860000D01*
X209646000Y-125060000D02*
X208946000Y-125060000D01*
X254858000Y-53686000D02*
X254158000Y-53686000D01*
X254158000Y-52486000D02*
X254858000Y-52486000D01*
X211170000Y-129124000D02*
X210470000Y-129124000D01*
X210470000Y-127924000D02*
X211170000Y-127924000D01*
X195930000Y-110582000D02*
X195230000Y-110582000D01*
X195230000Y-109382000D02*
X195930000Y-109382000D01*
X188626000Y-121066000D02*
X189326000Y-121066000D01*
X189326000Y-122266000D02*
X188626000Y-122266000D01*
X203958278Y-79157723D02*
G75*
G03X208569580Y-79158000I2305722J1179723D01*
G01*
X203958278Y-76798277D02*
G75*
G02X208569580Y-76798000I2305722J-1179723D01*
G01*
X203958278Y-76798277D02*
G75*
G03X203958420Y-79158000I2305722J-1179723D01*
G01*
X206264000Y-80528000D02*
X206264000Y-75428000D01*
X206224000Y-80528000D02*
X206224000Y-78958000D01*
X206224000Y-76998000D02*
X206224000Y-75428000D01*
X206184000Y-80527000D02*
X206184000Y-78958000D01*
X206184000Y-76998000D02*
X206184000Y-75429000D01*
X206144000Y-80526000D02*
X206144000Y-78958000D01*
X206144000Y-76998000D02*
X206144000Y-75430000D01*
X206104000Y-80524000D02*
X206104000Y-78958000D01*
X206104000Y-76998000D02*
X206104000Y-75432000D01*
X206064000Y-80521000D02*
X206064000Y-78958000D01*
X206064000Y-76998000D02*
X206064000Y-75435000D01*
X206024000Y-80517000D02*
X206024000Y-78958000D01*
X206024000Y-76998000D02*
X206024000Y-75439000D01*
X205984000Y-80513000D02*
X205984000Y-78958000D01*
X205984000Y-76998000D02*
X205984000Y-75443000D01*
X205944000Y-80509000D02*
X205944000Y-78958000D01*
X205944000Y-76998000D02*
X205944000Y-75447000D01*
X205904000Y-80503000D02*
X205904000Y-78958000D01*
X205904000Y-76998000D02*
X205904000Y-75453000D01*
X205864000Y-80497000D02*
X205864000Y-78958000D01*
X205864000Y-76998000D02*
X205864000Y-75459000D01*
X205824000Y-80491000D02*
X205824000Y-78958000D01*
X205824000Y-76998000D02*
X205824000Y-75465000D01*
X205784000Y-80484000D02*
X205784000Y-78958000D01*
X205784000Y-76998000D02*
X205784000Y-75472000D01*
X205744000Y-80476000D02*
X205744000Y-78958000D01*
X205744000Y-76998000D02*
X205744000Y-75480000D01*
X205704000Y-80467000D02*
X205704000Y-78958000D01*
X205704000Y-76998000D02*
X205704000Y-75489000D01*
X205664000Y-80458000D02*
X205664000Y-78958000D01*
X205664000Y-76998000D02*
X205664000Y-75498000D01*
X205624000Y-80448000D02*
X205624000Y-78958000D01*
X205624000Y-76998000D02*
X205624000Y-75508000D01*
X205584000Y-80438000D02*
X205584000Y-78958000D01*
X205584000Y-76998000D02*
X205584000Y-75518000D01*
X205543000Y-80426000D02*
X205543000Y-78958000D01*
X205543000Y-76998000D02*
X205543000Y-75530000D01*
X205503000Y-80414000D02*
X205503000Y-78958000D01*
X205503000Y-76998000D02*
X205503000Y-75542000D01*
X205463000Y-80402000D02*
X205463000Y-78958000D01*
X205463000Y-76998000D02*
X205463000Y-75554000D01*
X205423000Y-80388000D02*
X205423000Y-78958000D01*
X205423000Y-76998000D02*
X205423000Y-75568000D01*
X205383000Y-80374000D02*
X205383000Y-78958000D01*
X205383000Y-76998000D02*
X205383000Y-75582000D01*
X205343000Y-80360000D02*
X205343000Y-78958000D01*
X205343000Y-76998000D02*
X205343000Y-75596000D01*
X205303000Y-80344000D02*
X205303000Y-78958000D01*
X205303000Y-76998000D02*
X205303000Y-75612000D01*
X205263000Y-80328000D02*
X205263000Y-78958000D01*
X205263000Y-76998000D02*
X205263000Y-75628000D01*
X205223000Y-80311000D02*
X205223000Y-78958000D01*
X205223000Y-76998000D02*
X205223000Y-75645000D01*
X205183000Y-80293000D02*
X205183000Y-78958000D01*
X205183000Y-76998000D02*
X205183000Y-75663000D01*
X205143000Y-80274000D02*
X205143000Y-78958000D01*
X205143000Y-76998000D02*
X205143000Y-75682000D01*
X205103000Y-80254000D02*
X205103000Y-78958000D01*
X205103000Y-76998000D02*
X205103000Y-75702000D01*
X205063000Y-80234000D02*
X205063000Y-78958000D01*
X205063000Y-76998000D02*
X205063000Y-75722000D01*
X205023000Y-80212000D02*
X205023000Y-78958000D01*
X205023000Y-76998000D02*
X205023000Y-75744000D01*
X204983000Y-80190000D02*
X204983000Y-78958000D01*
X204983000Y-76998000D02*
X204983000Y-75766000D01*
X204943000Y-80167000D02*
X204943000Y-78958000D01*
X204943000Y-76998000D02*
X204943000Y-75789000D01*
X204903000Y-80143000D02*
X204903000Y-78958000D01*
X204903000Y-76998000D02*
X204903000Y-75813000D01*
X204863000Y-80118000D02*
X204863000Y-78958000D01*
X204863000Y-76998000D02*
X204863000Y-75838000D01*
X204823000Y-80091000D02*
X204823000Y-78958000D01*
X204823000Y-76998000D02*
X204823000Y-75865000D01*
X204783000Y-80064000D02*
X204783000Y-78958000D01*
X204783000Y-76998000D02*
X204783000Y-75892000D01*
X204743000Y-80036000D02*
X204743000Y-78958000D01*
X204743000Y-76998000D02*
X204743000Y-75920000D01*
X204703000Y-80006000D02*
X204703000Y-78958000D01*
X204703000Y-76998000D02*
X204703000Y-75950000D01*
X204663000Y-79975000D02*
X204663000Y-78958000D01*
X204663000Y-76998000D02*
X204663000Y-75981000D01*
X204623000Y-79943000D02*
X204623000Y-78958000D01*
X204623000Y-76998000D02*
X204623000Y-76013000D01*
X204583000Y-79910000D02*
X204583000Y-78958000D01*
X204583000Y-76998000D02*
X204583000Y-76046000D01*
X204543000Y-79875000D02*
X204543000Y-78958000D01*
X204543000Y-76998000D02*
X204543000Y-76081000D01*
X204503000Y-79839000D02*
X204503000Y-78958000D01*
X204503000Y-76998000D02*
X204503000Y-76117000D01*
X204463000Y-79801000D02*
X204463000Y-78958000D01*
X204463000Y-76998000D02*
X204463000Y-76155000D01*
X204423000Y-79761000D02*
X204423000Y-78958000D01*
X204423000Y-76998000D02*
X204423000Y-76195000D01*
X204383000Y-79720000D02*
X204383000Y-78958000D01*
X204383000Y-76998000D02*
X204383000Y-76236000D01*
X204343000Y-79677000D02*
X204343000Y-78958000D01*
X204343000Y-76998000D02*
X204343000Y-76279000D01*
X204303000Y-79632000D02*
X204303000Y-78958000D01*
X204303000Y-76998000D02*
X204303000Y-76324000D01*
X204263000Y-79584000D02*
X204263000Y-76372000D01*
X204223000Y-79534000D02*
X204223000Y-76422000D01*
X204183000Y-79482000D02*
X204183000Y-76474000D01*
X204143000Y-79426000D02*
X204143000Y-76530000D01*
X204103000Y-79368000D02*
X204103000Y-76588000D01*
X204063000Y-79305000D02*
X204063000Y-76651000D01*
X204023000Y-79239000D02*
X204023000Y-76717000D01*
X203983000Y-79167000D02*
X203983000Y-76789000D01*
X203943000Y-79090000D02*
X203943000Y-76866000D01*
X203903000Y-79006000D02*
X203903000Y-76950000D01*
X203863000Y-78912000D02*
X203863000Y-77044000D01*
X203823000Y-78807000D02*
X203823000Y-77149000D01*
X203783000Y-78685000D02*
X203783000Y-77271000D01*
X203743000Y-78537000D02*
X203743000Y-77419000D01*
X203703000Y-78332000D02*
X203703000Y-77624000D01*
X209464000Y-77978000D02*
X208264000Y-77978000D01*
X208864000Y-78628000D02*
X208864000Y-77328000D01*
X199994000Y-92040000D02*
X199294000Y-92040000D01*
X199294000Y-90840000D02*
X199994000Y-90840000D01*
X214284000Y-141574000D02*
X214284000Y-140874000D01*
X215484000Y-140874000D02*
X215484000Y-141574000D01*
X203038000Y-140620000D02*
X203038000Y-141320000D01*
X201838000Y-141320000D02*
X201838000Y-140620000D01*
X207168000Y-145450000D02*
X207868000Y-145450000D01*
X207868000Y-146650000D02*
X207168000Y-146650000D01*
X193706000Y-145704000D02*
X194406000Y-145704000D01*
X194406000Y-146904000D02*
X193706000Y-146904000D01*
X211928000Y-140874000D02*
X211928000Y-141574000D01*
X210728000Y-141574000D02*
X210728000Y-140874000D01*
X199990000Y-140620000D02*
X199990000Y-141320000D01*
X198790000Y-141320000D02*
X198790000Y-140620000D01*
X196942000Y-140620000D02*
X196942000Y-141320000D01*
X195742000Y-141320000D02*
X195742000Y-140620000D01*
X212868000Y-89928000D02*
X216068000Y-89928000D01*
X216068000Y-91428000D02*
X212868000Y-91428000D01*
X216068000Y-91428000D02*
X216068000Y-89928000D01*
D11*
X182158000Y-18542000D02*
X182158000Y-23542000D01*
X182158000Y-18542000D02*
X182158000Y-13542000D01*
X184658000Y-23542000D02*
X182158000Y-23542000D01*
X184658000Y-23542000D02*
X197158000Y-23542000D01*
X197158000Y-18542000D02*
X197158000Y-23542000D01*
X197158000Y-18542000D02*
X197158000Y-13542000D01*
X182158000Y-13542000D02*
X184658000Y-13542000D01*
X184658000Y-13542000D02*
X197158000Y-13542000D01*
D13*
X183836000Y-122996000D02*
X186496000Y-122996000D01*
X183836000Y-110236000D02*
X183836000Y-122996000D01*
X186496000Y-110236000D02*
X186496000Y-122996000D01*
X183836000Y-110236000D02*
X186496000Y-110236000D01*
X183836000Y-108966000D02*
X183836000Y-107636000D01*
X183836000Y-107636000D02*
X185166000Y-107636000D01*
X253828000Y-28948000D02*
X253828000Y-27948000D01*
X255188000Y-27948000D02*
X255188000Y-28948000D01*
X268470000Y-42082000D02*
X267470000Y-42082000D01*
X267470000Y-40722000D02*
X268470000Y-40722000D01*
X227068000Y-116758000D02*
X226068000Y-116758000D01*
X226068000Y-115398000D02*
X227068000Y-115398000D01*
X269486000Y-51480000D02*
X268486000Y-51480000D01*
X268486000Y-50120000D02*
X269486000Y-50120000D01*
X227322000Y-127426000D02*
X226322000Y-127426000D01*
X226322000Y-126066000D02*
X227322000Y-126066000D01*
X267978000Y-44278000D02*
X268978000Y-44278000D01*
X268978000Y-45638000D02*
X267978000Y-45638000D01*
X226068000Y-117430000D02*
X227068000Y-117430000D01*
X227068000Y-118790000D02*
X226068000Y-118790000D01*
X269486000Y-49448000D02*
X268486000Y-49448000D01*
X268486000Y-48088000D02*
X269486000Y-48088000D01*
X227322000Y-129458000D02*
X226322000Y-129458000D01*
X226322000Y-128098000D02*
X227322000Y-128098000D01*
X252738000Y-48342000D02*
X253738000Y-48342000D01*
X253738000Y-49702000D02*
X252738000Y-49702000D01*
X208796000Y-125304000D02*
X209796000Y-125304000D01*
X209796000Y-126664000D02*
X208796000Y-126664000D01*
X252992000Y-43262000D02*
X253992000Y-43262000D01*
X253992000Y-44622000D02*
X252992000Y-44622000D01*
X210320000Y-120224000D02*
X211320000Y-120224000D01*
X211320000Y-121584000D02*
X210320000Y-121584000D01*
X241128000Y-24630000D02*
X241128000Y-23630000D01*
X242488000Y-23630000D02*
X242488000Y-24630000D01*
X237826000Y-17264000D02*
X237826000Y-16264000D01*
X239186000Y-16264000D02*
X239186000Y-17264000D01*
X232746000Y-24630000D02*
X232746000Y-23630000D01*
X234106000Y-23630000D02*
X234106000Y-24630000D01*
X229444000Y-17264000D02*
X229444000Y-16264000D01*
X230804000Y-16264000D02*
X230804000Y-17264000D01*
X224364000Y-24630000D02*
X224364000Y-23630000D01*
X225724000Y-23630000D02*
X225724000Y-24630000D01*
X221062000Y-17264000D02*
X221062000Y-16264000D01*
X222422000Y-16264000D02*
X222422000Y-17264000D01*
X215982000Y-24630000D02*
X215982000Y-23630000D01*
X217342000Y-23630000D02*
X217342000Y-24630000D01*
X212680000Y-17264000D02*
X212680000Y-16264000D01*
X214040000Y-16264000D02*
X214040000Y-17264000D01*
X207600000Y-24630000D02*
X207600000Y-23630000D01*
X208960000Y-23630000D02*
X208960000Y-24630000D01*
X204298000Y-17264000D02*
X204298000Y-16264000D01*
X205658000Y-16264000D02*
X205658000Y-17264000D01*
X186100000Y-75700000D02*
X186100000Y-76700000D01*
X184740000Y-76700000D02*
X184740000Y-75700000D01*
X183216000Y-76700000D02*
X183216000Y-75700000D01*
X184576000Y-75700000D02*
X184576000Y-76700000D01*
X220300000Y-42664000D02*
X220300000Y-41664000D01*
X221660000Y-41664000D02*
X221660000Y-42664000D01*
X220136000Y-41664000D02*
X220136000Y-42664000D01*
X218776000Y-42664000D02*
X218776000Y-41664000D01*
X217252000Y-42664000D02*
X217252000Y-41664000D01*
X218612000Y-41664000D02*
X218612000Y-42664000D01*
X217088000Y-41664000D02*
X217088000Y-42664000D01*
X215728000Y-42664000D02*
X215728000Y-41664000D01*
X214204000Y-42664000D02*
X214204000Y-41664000D01*
X215564000Y-41664000D02*
X215564000Y-42664000D01*
X214040000Y-41664000D02*
X214040000Y-42664000D01*
X212680000Y-42664000D02*
X212680000Y-41664000D01*
X211156000Y-42664000D02*
X211156000Y-41664000D01*
X212516000Y-41664000D02*
X212516000Y-42664000D01*
X210992000Y-41664000D02*
X210992000Y-42664000D01*
X209632000Y-42664000D02*
X209632000Y-41664000D01*
X205748000Y-73742000D02*
X206748000Y-73742000D01*
X206748000Y-75102000D02*
X205748000Y-75102000D01*
X199652000Y-82886000D02*
X200652000Y-82886000D01*
X200652000Y-84246000D02*
X199652000Y-84246000D01*
X199144000Y-89236000D02*
X200144000Y-89236000D01*
X200144000Y-90596000D02*
X199144000Y-90596000D01*
X214368000Y-86532000D02*
X213368000Y-86532000D01*
X213368000Y-85172000D02*
X214368000Y-85172000D01*
X214368000Y-88056000D02*
X213368000Y-88056000D01*
X213368000Y-86696000D02*
X214368000Y-86696000D01*
X206002000Y-91522000D02*
X207002000Y-91522000D01*
X207002000Y-92882000D02*
X206002000Y-92882000D01*
X213368000Y-88220000D02*
X214368000Y-88220000D01*
X214368000Y-89580000D02*
X213368000Y-89580000D01*
X214368000Y-85008000D02*
X213368000Y-85008000D01*
X213368000Y-83648000D02*
X214368000Y-83648000D01*
X212172000Y-141724000D02*
X212172000Y-140724000D01*
X213532000Y-140724000D02*
X213532000Y-141724000D01*
X200234000Y-141470000D02*
X200234000Y-140470000D01*
X201594000Y-140470000D02*
X201594000Y-141470000D01*
X210484000Y-140724000D02*
X210484000Y-141724000D01*
X209124000Y-141724000D02*
X209124000Y-140724000D01*
X198546000Y-140470000D02*
X198546000Y-141470000D01*
X197186000Y-141470000D02*
X197186000Y-140470000D01*
D11*
X256658000Y-52759000D02*
X257658000Y-53759000D01*
X257658000Y-53759000D02*
X265058000Y-53759000D01*
X265058000Y-53759000D02*
X265058000Y-40729000D01*
X265058000Y-40729000D02*
X256658000Y-40729000D01*
X256658000Y-40729000D02*
X256658000Y-52759000D01*
X208788000Y-91186000D02*
X203962000Y-91186000D01*
X203962000Y-91186000D02*
X203962000Y-81026000D01*
X203962000Y-81026000D02*
X208788000Y-81026000D01*
X208788000Y-81026000D02*
X208788000Y-91186000D01*
X207010000Y-81026000D02*
X207010000Y-81661000D01*
X207010000Y-81661000D02*
X205740000Y-81661000D01*
X205740000Y-81661000D02*
X205740000Y-81026000D01*
X205335000Y-142899000D02*
X205510000Y-142899000D01*
X205335000Y-139549000D02*
X205585000Y-139549000D01*
X208685000Y-139549000D02*
X208435000Y-139549000D01*
X208685000Y-142899000D02*
X208435000Y-142899000D01*
X205335000Y-142899000D02*
X205335000Y-139549000D01*
X208685000Y-142899000D02*
X208685000Y-139549000D01*
X205510000Y-142899000D02*
X205510000Y-144149000D01*
D13*
X242570462Y-13774000D02*
G75*
G03X241025170Y-19324000I-462J-2990000D01*
G01*
X242569538Y-13774000D02*
G75*
G02X244114830Y-19324000I462J-2990000D01*
G01*
X245070000Y-16764000D02*
G75*
G03X245070000Y-16764000I-2500000J0D01*
G01*
X241025000Y-19324000D02*
X244115000Y-19324000D01*
X234188462Y-13774000D02*
G75*
G03X232643170Y-19324000I-462J-2990000D01*
G01*
X234187538Y-13774000D02*
G75*
G02X235732830Y-19324000I462J-2990000D01*
G01*
X236688000Y-16764000D02*
G75*
G03X236688000Y-16764000I-2500000J0D01*
G01*
X232643000Y-19324000D02*
X235733000Y-19324000D01*
X225806462Y-13774000D02*
G75*
G03X224261170Y-19324000I-462J-2990000D01*
G01*
X225805538Y-13774000D02*
G75*
G02X227350830Y-19324000I462J-2990000D01*
G01*
X228306000Y-16764000D02*
G75*
G03X228306000Y-16764000I-2500000J0D01*
G01*
X224261000Y-19324000D02*
X227351000Y-19324000D01*
X217424462Y-13774000D02*
G75*
G03X215879170Y-19324000I-462J-2990000D01*
G01*
X217423538Y-13774000D02*
G75*
G02X218968830Y-19324000I462J-2990000D01*
G01*
X219924000Y-16764000D02*
G75*
G03X219924000Y-16764000I-2500000J0D01*
G01*
X215879000Y-19324000D02*
X218969000Y-19324000D01*
X209042462Y-13774000D02*
G75*
G03X207497170Y-19324000I-462J-2990000D01*
G01*
X209041538Y-13774000D02*
G75*
G02X210586830Y-19324000I462J-2990000D01*
G01*
X211542000Y-16764000D02*
G75*
G03X211542000Y-16764000I-2500000J0D01*
G01*
X207497000Y-19324000D02*
X210587000Y-19324000D01*
X189364000Y-26630000D02*
X189364000Y-36870000D01*
X205254000Y-26630000D02*
X205254000Y-36870000D01*
X205254000Y-26630000D02*
X189364000Y-26630000D01*
X205254000Y-36870000D02*
X189364000Y-36870000D01*
X189364000Y-29210000D02*
X186724000Y-29210000D01*
X189364000Y-31750000D02*
X186740000Y-31750000D01*
X189364000Y-34290000D02*
X186740000Y-34290000D01*
X254958000Y-40396000D02*
X270933000Y-40396000D01*
X270933000Y-40396000D02*
X270933000Y-35296000D01*
X270933000Y-35296000D02*
X254958000Y-35296000D01*
X212032000Y-114310000D02*
X228007000Y-114310000D01*
X228007000Y-114310000D02*
X228007000Y-109210000D01*
X228007000Y-109210000D02*
X212032000Y-109210000D01*
X201544000Y-88988000D02*
X201544000Y-87288000D01*
X201544000Y-87288000D02*
X198394000Y-87288000D01*
X201544000Y-88988000D02*
X198394000Y-88988000D01*
X267402000Y-110804000D02*
X270062000Y-110804000D01*
X267402000Y-110744000D02*
X267402000Y-110804000D01*
X270062000Y-110744000D02*
X270062000Y-110804000D01*
X267402000Y-110744000D02*
X270062000Y-110744000D01*
X267402000Y-109474000D02*
X267402000Y-108144000D01*
X267402000Y-108144000D02*
X268732000Y-108144000D01*
X263846000Y-110804000D02*
X266506000Y-110804000D01*
X263846000Y-110744000D02*
X263846000Y-110804000D01*
X266506000Y-110744000D02*
X266506000Y-110804000D01*
X263846000Y-110744000D02*
X266506000Y-110744000D01*
X263846000Y-109474000D02*
X263846000Y-108144000D01*
X263846000Y-108144000D02*
X265176000Y-108144000D01*
X271586000Y-26356000D02*
X268926000Y-26356000D01*
X271586000Y-26416000D02*
X271586000Y-26356000D01*
X268926000Y-26416000D02*
X268926000Y-26356000D01*
X271586000Y-26416000D02*
X268926000Y-26416000D01*
X271586000Y-27686000D02*
X271586000Y-29016000D01*
X271586000Y-29016000D02*
X270256000Y-29016000D01*
X230572000Y-111820000D02*
X233232000Y-111820000D01*
X230572000Y-111760000D02*
X230572000Y-111820000D01*
X233232000Y-111760000D02*
X233232000Y-111820000D01*
X230572000Y-111760000D02*
X233232000Y-111760000D01*
X230572000Y-110490000D02*
X230572000Y-109160000D01*
X230572000Y-109160000D02*
X231902000Y-109160000D01*
X268030000Y-26356000D02*
X265370000Y-26356000D01*
X268030000Y-26416000D02*
X268030000Y-26356000D01*
X265370000Y-26416000D02*
X265370000Y-26356000D01*
X268030000Y-26416000D02*
X265370000Y-26416000D01*
X268030000Y-27686000D02*
X268030000Y-29016000D01*
X268030000Y-29016000D02*
X266700000Y-29016000D01*
X204918000Y-135442000D02*
X207578000Y-135442000D01*
X204918000Y-135382000D02*
X204918000Y-135442000D01*
X207578000Y-135382000D02*
X207578000Y-135442000D01*
X204918000Y-135382000D02*
X207578000Y-135382000D01*
X204918000Y-134112000D02*
X204918000Y-132782000D01*
X204918000Y-132782000D02*
X206248000Y-132782000D01*
X256734000Y-110804000D02*
X259394000Y-110804000D01*
X256734000Y-110744000D02*
X256734000Y-110804000D01*
X259394000Y-110744000D02*
X259394000Y-110804000D01*
X256734000Y-110744000D02*
X259394000Y-110744000D01*
X256734000Y-109474000D02*
X256734000Y-108144000D01*
X256734000Y-108144000D02*
X258064000Y-108144000D01*
X194250000Y-135442000D02*
X196910000Y-135442000D01*
X194250000Y-135382000D02*
X194250000Y-135442000D01*
X196910000Y-135382000D02*
X196910000Y-135442000D01*
X194250000Y-135382000D02*
X196910000Y-135382000D01*
X194250000Y-134112000D02*
X194250000Y-132782000D01*
X194250000Y-132782000D02*
X195580000Y-132782000D01*
X201362000Y-135442000D02*
X204022000Y-135442000D01*
X201362000Y-135382000D02*
X201362000Y-135442000D01*
X204022000Y-135382000D02*
X204022000Y-135442000D01*
X201362000Y-135382000D02*
X204022000Y-135382000D01*
X201362000Y-134112000D02*
X201362000Y-132782000D01*
X201362000Y-132782000D02*
X202692000Y-132782000D01*
X260290000Y-110804000D02*
X262950000Y-110804000D01*
X260290000Y-110744000D02*
X260290000Y-110804000D01*
X262950000Y-110744000D02*
X262950000Y-110804000D01*
X260290000Y-110744000D02*
X262950000Y-110744000D01*
X260290000Y-109474000D02*
X260290000Y-108144000D01*
X260290000Y-108144000D02*
X261620000Y-108144000D01*
X187138000Y-142554000D02*
X189798000Y-142554000D01*
X187138000Y-142494000D02*
X187138000Y-142554000D01*
X189798000Y-142494000D02*
X189798000Y-142554000D01*
X187138000Y-142494000D02*
X189798000Y-142494000D01*
X187138000Y-141224000D02*
X187138000Y-139894000D01*
X187138000Y-139894000D02*
X188468000Y-139894000D01*
X211268000Y-64068000D02*
X213928000Y-64068000D01*
X211268000Y-64008000D02*
X211268000Y-64068000D01*
X213928000Y-64008000D02*
X213928000Y-64068000D01*
X211268000Y-64008000D02*
X213928000Y-64008000D01*
X211268000Y-62738000D02*
X211268000Y-61408000D01*
X211268000Y-61408000D02*
X212598000Y-61408000D01*
X231842000Y-123758000D02*
X234502000Y-123758000D01*
X231842000Y-123698000D02*
X231842000Y-123758000D01*
X234502000Y-123698000D02*
X234502000Y-123758000D01*
X231842000Y-123698000D02*
X234502000Y-123698000D01*
X231842000Y-122428000D02*
X231842000Y-121098000D01*
X231842000Y-121098000D02*
X233172000Y-121098000D01*
X264474000Y-26356000D02*
X261814000Y-26356000D01*
X264474000Y-26416000D02*
X264474000Y-26356000D01*
X261814000Y-26416000D02*
X261814000Y-26356000D01*
X264474000Y-26416000D02*
X261814000Y-26416000D01*
X264474000Y-27686000D02*
X264474000Y-29016000D01*
X264474000Y-29016000D02*
X263144000Y-29016000D01*
X208474000Y-135442000D02*
X211134000Y-135442000D01*
X208474000Y-135382000D02*
X208474000Y-135442000D01*
X211134000Y-135382000D02*
X211134000Y-135442000D01*
X208474000Y-135382000D02*
X211134000Y-135382000D01*
X208474000Y-134112000D02*
X208474000Y-132782000D01*
X208474000Y-132782000D02*
X209804000Y-132782000D01*
X199330000Y-150174000D02*
X201990000Y-150174000D01*
X199330000Y-150114000D02*
X199330000Y-150174000D01*
X201990000Y-150114000D02*
X201990000Y-150174000D01*
X199330000Y-150114000D02*
X201990000Y-150114000D01*
X199330000Y-148844000D02*
X199330000Y-147514000D01*
X199330000Y-147514000D02*
X200660000Y-147514000D01*
X233080000Y-47848000D02*
X233080000Y-47148000D01*
X234280000Y-47148000D02*
X234280000Y-47848000D01*
X238094000Y-36922000D02*
X237394000Y-36922000D01*
X237394000Y-35722000D02*
X238094000Y-35722000D01*
X230028000Y-45374000D02*
X230728000Y-45374000D01*
X230728000Y-46574000D02*
X230028000Y-46574000D01*
X196946000Y-49622000D02*
X196246000Y-49622000D01*
X196246000Y-48422000D02*
X196946000Y-48422000D01*
X189138000Y-59532000D02*
X189138000Y-58832000D01*
X190338000Y-58832000D02*
X190338000Y-59532000D01*
X202930000Y-108954000D02*
X199730000Y-108954000D01*
X199730000Y-107454000D02*
X202930000Y-107454000D01*
X199730000Y-107454000D02*
X199730000Y-108954000D01*
X244586000Y-35294000D02*
X241386000Y-35294000D01*
X241386000Y-33794000D02*
X244586000Y-33794000D01*
X241386000Y-33794000D02*
X241386000Y-35294000D01*
X188296000Y-113022000D02*
X188296000Y-112022000D01*
X189656000Y-112022000D02*
X189656000Y-113022000D01*
X189820000Y-113022000D02*
X189820000Y-112022000D01*
X191180000Y-112022000D02*
X191180000Y-113022000D01*
X201684000Y-109302000D02*
X202684000Y-109302000D01*
X202684000Y-110662000D02*
X201684000Y-110662000D01*
X243340000Y-35642000D02*
X244340000Y-35642000D01*
X244340000Y-37002000D02*
X243340000Y-37002000D01*
X189058000Y-52062000D02*
X189058000Y-51062000D01*
X190418000Y-51062000D02*
X190418000Y-52062000D01*
X190836000Y-52062000D02*
X190836000Y-51062000D01*
X192196000Y-51062000D02*
X192196000Y-52062000D01*
X193145000Y-123376000D02*
X193145000Y-127576000D01*
X193145000Y-127576000D02*
X203095000Y-127576000D01*
X234801000Y-49208000D02*
X234801000Y-53408000D01*
X234801000Y-53408000D02*
X244751000Y-53408000D01*
X193145000Y-62924000D02*
X193145000Y-67124000D01*
X193145000Y-67124000D02*
X203095000Y-67124000D01*
D11*
X194495000Y-119957000D02*
X194720000Y-119957000D01*
X194495000Y-112707000D02*
X194820000Y-112707000D01*
X201745000Y-112707000D02*
X201420000Y-112707000D01*
X201745000Y-119957000D02*
X201420000Y-119957000D01*
X194495000Y-119957000D02*
X194495000Y-119632000D01*
X201745000Y-119957000D02*
X201745000Y-119632000D01*
X201745000Y-112707000D02*
X201745000Y-113032000D01*
X194495000Y-112707000D02*
X194495000Y-113032000D01*
X194720000Y-119957000D02*
X194720000Y-121382000D01*
X195003000Y-58997000D02*
X195228000Y-58997000D01*
X195003000Y-51747000D02*
X195328000Y-51747000D01*
X202253000Y-51747000D02*
X201928000Y-51747000D01*
X202253000Y-58997000D02*
X201928000Y-58997000D01*
X195003000Y-58997000D02*
X195003000Y-58672000D01*
X202253000Y-58997000D02*
X202253000Y-58672000D01*
X202253000Y-51747000D02*
X202253000Y-52072000D01*
X195003000Y-51747000D02*
X195003000Y-52072000D01*
X195228000Y-58997000D02*
X195228000Y-60422000D01*
D13*
X221392000Y-34544000D02*
G75*
G03X221392000Y-34544000I-920000J0D01*
G01*
X220472000Y-33624000D02*
X220472000Y-33004000D01*
X218344000Y-34544000D02*
G75*
G03X218344000Y-34544000I-920000J0D01*
G01*
X217424000Y-33624000D02*
X217424000Y-33004000D01*
X215296000Y-34544000D02*
G75*
G03X215296000Y-34544000I-920000J0D01*
G01*
X214376000Y-33624000D02*
X214376000Y-33004000D01*
X212248000Y-34544000D02*
G75*
G03X212248000Y-34544000I-920000J0D01*
G01*
X211328000Y-33624000D02*
X211328000Y-33004000D01*
D11*
X250190095Y-14676381D02*
X250190095Y-13676381D01*
X250190095Y-14152571D02*
X250761524Y-14152571D01*
X250761524Y-14676381D02*
X250761524Y-13676381D01*
X251190095Y-13771619D02*
X251237714Y-13724000D01*
X251332952Y-13676381D01*
X251571048Y-13676381D01*
X251666286Y-13724000D01*
X251713905Y-13771619D01*
X251761524Y-13866857D01*
X251761524Y-13962095D01*
X251713905Y-14104952D01*
X251142476Y-14676381D01*
X251761524Y-14676381D01*
X232664095Y-37806381D02*
X232664095Y-38615905D01*
X232711714Y-38711143D01*
X232759333Y-38758762D01*
X232854571Y-38806381D01*
X233045048Y-38806381D01*
X233140286Y-38758762D01*
X233187905Y-38711143D01*
X233235524Y-38615905D01*
X233235524Y-37806381D01*
X234187905Y-37806381D02*
X233711714Y-37806381D01*
X233664095Y-38282571D01*
X233711714Y-38234952D01*
X233806952Y-38187333D01*
X234045048Y-38187333D01*
X234140286Y-38234952D01*
X234187905Y-38282571D01*
X234235524Y-38377810D01*
X234235524Y-38615905D01*
X234187905Y-38711143D01*
X234140286Y-38758762D01*
X234045048Y-38806381D01*
X233806952Y-38806381D01*
X233711714Y-38758762D01*
X233664095Y-38711143D01*
X242355619Y-21177238D02*
X242308000Y-21272476D01*
X242212762Y-21367714D01*
X242069905Y-21510571D01*
X242022286Y-21605810D01*
X242022286Y-21701048D01*
X242260381Y-21653429D02*
X242212762Y-21748667D01*
X242117524Y-21843905D01*
X241927048Y-21891524D01*
X241593714Y-21891524D01*
X241403238Y-21843905D01*
X241308000Y-21748667D01*
X241260381Y-21653429D01*
X241260381Y-21462952D01*
X241308000Y-21367714D01*
X241403238Y-21272476D01*
X241593714Y-21224857D01*
X241927048Y-21224857D01*
X242117524Y-21272476D01*
X242212762Y-21367714D01*
X242260381Y-21462952D01*
X242260381Y-21653429D01*
X241355619Y-20843905D02*
X241308000Y-20796286D01*
X241260381Y-20701048D01*
X241260381Y-20462952D01*
X241308000Y-20367714D01*
X241355619Y-20320095D01*
X241450857Y-20272476D01*
X241546095Y-20272476D01*
X241688952Y-20320095D01*
X242260381Y-20891524D01*
X242260381Y-20272476D01*
X181697334Y-39219143D02*
X181649715Y-39266762D01*
X181506858Y-39314381D01*
X181411620Y-39314381D01*
X181268762Y-39266762D01*
X181173524Y-39171524D01*
X181125905Y-39076286D01*
X181078286Y-38885810D01*
X181078286Y-38742952D01*
X181125905Y-38552476D01*
X181173524Y-38457238D01*
X181268762Y-38362000D01*
X181411620Y-38314381D01*
X181506858Y-38314381D01*
X181649715Y-38362000D01*
X181697334Y-38409619D01*
X182078286Y-38409619D02*
X182125905Y-38362000D01*
X182221143Y-38314381D01*
X182459239Y-38314381D01*
X182554477Y-38362000D01*
X182602096Y-38409619D01*
X182649715Y-38504857D01*
X182649715Y-38600095D01*
X182602096Y-38742952D01*
X182030667Y-39314381D01*
X182649715Y-39314381D01*
X222250095Y-107132381D02*
X222250095Y-106132381D01*
X222250095Y-106608571D02*
X222821524Y-106608571D01*
X222821524Y-107132381D02*
X222821524Y-106132381D01*
X223202476Y-106132381D02*
X223821524Y-106132381D01*
X223488190Y-106513333D01*
X223631048Y-106513333D01*
X223726286Y-106560952D01*
X223773905Y-106608571D01*
X223821524Y-106703810D01*
X223821524Y-106941905D01*
X223773905Y-107037143D01*
X223726286Y-107084762D01*
X223631048Y-107132381D01*
X223345333Y-107132381D01*
X223250095Y-107084762D01*
X223202476Y-107037143D01*
X223464381Y-48259905D02*
X222464381Y-48259905D01*
X222940571Y-48259905D02*
X222940571Y-47688476D01*
X223464381Y-47688476D02*
X222464381Y-47688476D01*
X222464381Y-46736095D02*
X222464381Y-47212286D01*
X222940571Y-47259905D01*
X222892952Y-47212286D01*
X222845333Y-47117048D01*
X222845333Y-46878952D01*
X222892952Y-46783714D01*
X222940571Y-46736095D01*
X223035810Y-46688476D01*
X223273905Y-46688476D01*
X223369143Y-46736095D01*
X223416762Y-46783714D01*
X223464381Y-46878952D01*
X223464381Y-47117048D01*
X223416762Y-47212286D01*
X223369143Y-47259905D01*
X184658095Y-46636381D02*
X184658095Y-45636381D01*
X184658095Y-46112571D02*
X185229524Y-46112571D01*
X185229524Y-46636381D02*
X185229524Y-45636381D01*
X186134286Y-45636381D02*
X185943809Y-45636381D01*
X185848571Y-45684000D01*
X185800952Y-45731619D01*
X185705714Y-45874476D01*
X185658095Y-46064952D01*
X185658095Y-46445905D01*
X185705714Y-46541143D01*
X185753333Y-46588762D01*
X185848571Y-46636381D01*
X186039048Y-46636381D01*
X186134286Y-46588762D01*
X186181905Y-46541143D01*
X186229524Y-46445905D01*
X186229524Y-46207810D01*
X186181905Y-46112571D01*
X186134286Y-46064952D01*
X186039048Y-46017333D01*
X185848571Y-46017333D01*
X185753333Y-46064952D01*
X185705714Y-46112571D01*
X185658095Y-46207810D01*
X258222762Y-31539619D02*
X258127524Y-31492000D01*
X258032286Y-31396762D01*
X257889429Y-31253905D01*
X257794190Y-31206286D01*
X257698952Y-31206286D01*
X257746571Y-31444381D02*
X257651333Y-31396762D01*
X257556095Y-31301524D01*
X257508476Y-31111048D01*
X257508476Y-30777714D01*
X257556095Y-30587238D01*
X257651333Y-30492000D01*
X257746571Y-30444381D01*
X257937048Y-30444381D01*
X258032286Y-30492000D01*
X258127524Y-30587238D01*
X258175143Y-30777714D01*
X258175143Y-31111048D01*
X258127524Y-31301524D01*
X258032286Y-31396762D01*
X257937048Y-31444381D01*
X257746571Y-31444381D01*
X259127524Y-31444381D02*
X258556095Y-31444381D01*
X258841809Y-31444381D02*
X258841809Y-30444381D01*
X258746571Y-30587238D01*
X258651333Y-30682476D01*
X258556095Y-30730095D01*
X233973619Y-21177238D02*
X233926000Y-21272476D01*
X233830762Y-21367714D01*
X233687905Y-21510571D01*
X233640286Y-21605810D01*
X233640286Y-21701048D01*
X233878381Y-21653429D02*
X233830762Y-21748667D01*
X233735524Y-21843905D01*
X233545048Y-21891524D01*
X233211714Y-21891524D01*
X233021238Y-21843905D01*
X232926000Y-21748667D01*
X232878381Y-21653429D01*
X232878381Y-21462952D01*
X232926000Y-21367714D01*
X233021238Y-21272476D01*
X233211714Y-21224857D01*
X233545048Y-21224857D01*
X233735524Y-21272476D01*
X233830762Y-21367714D01*
X233878381Y-21462952D01*
X233878381Y-21653429D01*
X232878381Y-20891524D02*
X232878381Y-20272476D01*
X233259333Y-20605810D01*
X233259333Y-20462952D01*
X233306952Y-20367714D01*
X233354571Y-20320095D01*
X233449810Y-20272476D01*
X233687905Y-20272476D01*
X233783143Y-20320095D01*
X233830762Y-20367714D01*
X233878381Y-20462952D01*
X233878381Y-20748667D01*
X233830762Y-20843905D01*
X233783143Y-20891524D01*
X225591619Y-21177238D02*
X225544000Y-21272476D01*
X225448762Y-21367714D01*
X225305905Y-21510571D01*
X225258286Y-21605810D01*
X225258286Y-21701048D01*
X225496381Y-21653429D02*
X225448762Y-21748667D01*
X225353524Y-21843905D01*
X225163048Y-21891524D01*
X224829714Y-21891524D01*
X224639238Y-21843905D01*
X224544000Y-21748667D01*
X224496381Y-21653429D01*
X224496381Y-21462952D01*
X224544000Y-21367714D01*
X224639238Y-21272476D01*
X224829714Y-21224857D01*
X225163048Y-21224857D01*
X225353524Y-21272476D01*
X225448762Y-21367714D01*
X225496381Y-21462952D01*
X225496381Y-21653429D01*
X224829714Y-20367714D02*
X225496381Y-20367714D01*
X224448762Y-20605810D02*
X225163048Y-20843905D01*
X225163048Y-20224857D01*
X217209619Y-21177238D02*
X217162000Y-21272476D01*
X217066762Y-21367714D01*
X216923905Y-21510571D01*
X216876286Y-21605810D01*
X216876286Y-21701048D01*
X217114381Y-21653429D02*
X217066762Y-21748667D01*
X216971524Y-21843905D01*
X216781048Y-21891524D01*
X216447714Y-21891524D01*
X216257238Y-21843905D01*
X216162000Y-21748667D01*
X216114381Y-21653429D01*
X216114381Y-21462952D01*
X216162000Y-21367714D01*
X216257238Y-21272476D01*
X216447714Y-21224857D01*
X216781048Y-21224857D01*
X216971524Y-21272476D01*
X217066762Y-21367714D01*
X217114381Y-21462952D01*
X217114381Y-21653429D01*
X216114381Y-20320095D02*
X216114381Y-20796286D01*
X216590571Y-20843905D01*
X216542952Y-20796286D01*
X216495333Y-20701048D01*
X216495333Y-20462952D01*
X216542952Y-20367714D01*
X216590571Y-20320095D01*
X216685810Y-20272476D01*
X216923905Y-20272476D01*
X217019143Y-20320095D01*
X217066762Y-20367714D01*
X217114381Y-20462952D01*
X217114381Y-20701048D01*
X217066762Y-20796286D01*
X217019143Y-20843905D01*
X208827619Y-21177238D02*
X208780000Y-21272476D01*
X208684762Y-21367714D01*
X208541905Y-21510571D01*
X208494286Y-21605810D01*
X208494286Y-21701048D01*
X208732381Y-21653429D02*
X208684762Y-21748667D01*
X208589524Y-21843905D01*
X208399048Y-21891524D01*
X208065714Y-21891524D01*
X207875238Y-21843905D01*
X207780000Y-21748667D01*
X207732381Y-21653429D01*
X207732381Y-21462952D01*
X207780000Y-21367714D01*
X207875238Y-21272476D01*
X208065714Y-21224857D01*
X208399048Y-21224857D01*
X208589524Y-21272476D01*
X208684762Y-21367714D01*
X208732381Y-21462952D01*
X208732381Y-21653429D01*
X207732381Y-20367714D02*
X207732381Y-20558191D01*
X207780000Y-20653429D01*
X207827619Y-20701048D01*
X207970476Y-20796286D01*
X208160952Y-20843905D01*
X208541905Y-20843905D01*
X208637143Y-20796286D01*
X208684762Y-20748667D01*
X208732381Y-20653429D01*
X208732381Y-20462952D01*
X208684762Y-20367714D01*
X208637143Y-20320095D01*
X208541905Y-20272476D01*
X208303810Y-20272476D01*
X208208571Y-20320095D01*
X208160952Y-20367714D01*
X208113333Y-20462952D01*
X208113333Y-20653429D01*
X208160952Y-20748667D01*
X208208571Y-20796286D01*
X208303810Y-20843905D01*
X213772762Y-78521619D02*
X213677524Y-78474000D01*
X213582286Y-78378762D01*
X213439429Y-78235905D01*
X213344190Y-78188286D01*
X213248952Y-78188286D01*
X213296571Y-78426381D02*
X213201333Y-78378762D01*
X213106095Y-78283524D01*
X213058476Y-78093048D01*
X213058476Y-77759714D01*
X213106095Y-77569238D01*
X213201333Y-77474000D01*
X213296571Y-77426381D01*
X213487048Y-77426381D01*
X213582286Y-77474000D01*
X213677524Y-77569238D01*
X213725143Y-77759714D01*
X213725143Y-78093048D01*
X213677524Y-78283524D01*
X213582286Y-78378762D01*
X213487048Y-78426381D01*
X213296571Y-78426381D01*
X214058476Y-77426381D02*
X214725143Y-77426381D01*
X214296571Y-78426381D01*
X191464095Y-73284762D02*
X191606952Y-73332381D01*
X191845048Y-73332381D01*
X191940286Y-73284762D01*
X191987905Y-73237143D01*
X192035524Y-73141905D01*
X192035524Y-73046667D01*
X191987905Y-72951429D01*
X191940286Y-72903810D01*
X191845048Y-72856190D01*
X191654571Y-72808571D01*
X191559333Y-72760952D01*
X191511714Y-72713333D01*
X191464095Y-72618095D01*
X191464095Y-72522857D01*
X191511714Y-72427619D01*
X191559333Y-72380000D01*
X191654571Y-72332381D01*
X191892667Y-72332381D01*
X192035524Y-72380000D01*
X192987905Y-73332381D02*
X192416476Y-73332381D01*
X192702190Y-73332381D02*
X192702190Y-72332381D01*
X192606952Y-72475238D01*
X192511714Y-72570476D01*
X192416476Y-72618095D01*
X217525714Y-129993857D02*
X217525714Y-130965286D01*
X217582857Y-131079571D01*
X217640000Y-131136714D01*
X217754286Y-131193857D01*
X217982857Y-131193857D01*
X218097143Y-131136714D01*
X218154286Y-131079571D01*
X218211429Y-130965286D01*
X218211429Y-129993857D01*
X218668572Y-129993857D02*
X219411429Y-129993857D01*
X219011429Y-130451000D01*
X219182857Y-130451000D01*
X219297143Y-130508143D01*
X219354286Y-130565286D01*
X219411429Y-130679571D01*
X219411429Y-130965286D01*
X219354286Y-131079571D01*
X219297143Y-131136714D01*
X219182857Y-131193857D01*
X218840000Y-131193857D01*
X218725714Y-131136714D01*
X218668572Y-131079571D01*
X190654381Y-141985905D02*
X191463905Y-141985905D01*
X191559143Y-141938286D01*
X191606762Y-141890667D01*
X191654381Y-141795429D01*
X191654381Y-141604952D01*
X191606762Y-141509714D01*
X191559143Y-141462095D01*
X191463905Y-141414476D01*
X190654381Y-141414476D01*
X191654381Y-140890667D02*
X191654381Y-140700191D01*
X191606762Y-140604952D01*
X191559143Y-140557333D01*
X191416286Y-140462095D01*
X191225810Y-140414476D01*
X190844857Y-140414476D01*
X190749619Y-140462095D01*
X190702000Y-140509714D01*
X190654381Y-140604952D01*
X190654381Y-140795429D01*
X190702000Y-140890667D01*
X190749619Y-140938286D01*
X190844857Y-140985905D01*
X191082952Y-140985905D01*
X191178190Y-140938286D01*
X191225810Y-140890667D01*
X191273429Y-140795429D01*
X191273429Y-140604952D01*
X191225810Y-140509714D01*
X191178190Y-140462095D01*
X191082952Y-140414476D01*
X182983143Y-27344666D02*
X183030762Y-27392285D01*
X183078381Y-27535142D01*
X183078381Y-27630380D01*
X183030762Y-27773238D01*
X182935524Y-27868476D01*
X182840286Y-27916095D01*
X182649810Y-27963714D01*
X182506952Y-27963714D01*
X182316476Y-27916095D01*
X182221238Y-27868476D01*
X182126000Y-27773238D01*
X182078381Y-27630380D01*
X182078381Y-27535142D01*
X182126000Y-27392285D01*
X182173619Y-27344666D01*
X183078381Y-26392285D02*
X183078381Y-26963714D01*
X183078381Y-26678000D02*
X182078381Y-26678000D01*
X182221238Y-26773238D01*
X182316476Y-26868476D01*
X182364095Y-26963714D01*
X271867334Y-53189143D02*
X271819715Y-53236762D01*
X271676858Y-53284381D01*
X271581620Y-53284381D01*
X271438762Y-53236762D01*
X271343524Y-53141524D01*
X271295905Y-53046286D01*
X271248286Y-52855810D01*
X271248286Y-52712952D01*
X271295905Y-52522476D01*
X271343524Y-52427238D01*
X271438762Y-52332000D01*
X271581620Y-52284381D01*
X271676858Y-52284381D01*
X271819715Y-52332000D01*
X271867334Y-52379619D01*
X272200667Y-52284381D02*
X272819715Y-52284381D01*
X272486381Y-52665333D01*
X272629239Y-52665333D01*
X272724477Y-52712952D01*
X272772096Y-52760571D01*
X272819715Y-52855810D01*
X272819715Y-53093905D01*
X272772096Y-53189143D01*
X272724477Y-53236762D01*
X272629239Y-53284381D01*
X272343524Y-53284381D01*
X272248286Y-53236762D01*
X272200667Y-53189143D01*
X229703334Y-125579143D02*
X229655715Y-125626762D01*
X229512858Y-125674381D01*
X229417620Y-125674381D01*
X229274762Y-125626762D01*
X229179524Y-125531524D01*
X229131905Y-125436286D01*
X229084286Y-125245810D01*
X229084286Y-125102952D01*
X229131905Y-124912476D01*
X229179524Y-124817238D01*
X229274762Y-124722000D01*
X229417620Y-124674381D01*
X229512858Y-124674381D01*
X229655715Y-124722000D01*
X229703334Y-124769619D01*
X230560477Y-125007714D02*
X230560477Y-125674381D01*
X230322381Y-124626762D02*
X230084286Y-125341048D01*
X230703334Y-125341048D01*
X229449334Y-119991143D02*
X229401715Y-120038762D01*
X229258858Y-120086381D01*
X229163620Y-120086381D01*
X229020762Y-120038762D01*
X228925524Y-119943524D01*
X228877905Y-119848286D01*
X228830286Y-119657810D01*
X228830286Y-119514952D01*
X228877905Y-119324476D01*
X228925524Y-119229238D01*
X229020762Y-119134000D01*
X229163620Y-119086381D01*
X229258858Y-119086381D01*
X229401715Y-119134000D01*
X229449334Y-119181619D01*
X230306477Y-119086381D02*
X230116000Y-119086381D01*
X230020762Y-119134000D01*
X229973143Y-119181619D01*
X229877905Y-119324476D01*
X229830286Y-119514952D01*
X229830286Y-119895905D01*
X229877905Y-119991143D01*
X229925524Y-120038762D01*
X230020762Y-120086381D01*
X230211239Y-120086381D01*
X230306477Y-120038762D01*
X230354096Y-119991143D01*
X230401715Y-119895905D01*
X230401715Y-119657810D01*
X230354096Y-119562571D01*
X230306477Y-119514952D01*
X230211239Y-119467333D01*
X230020762Y-119467333D01*
X229925524Y-119514952D01*
X229877905Y-119562571D01*
X229830286Y-119657810D01*
X251293334Y-51411143D02*
X251245715Y-51458762D01*
X251102858Y-51506381D01*
X251007620Y-51506381D01*
X250864762Y-51458762D01*
X250769524Y-51363524D01*
X250721905Y-51268286D01*
X250674286Y-51077810D01*
X250674286Y-50934952D01*
X250721905Y-50744476D01*
X250769524Y-50649238D01*
X250864762Y-50554000D01*
X251007620Y-50506381D01*
X251102858Y-50506381D01*
X251245715Y-50554000D01*
X251293334Y-50601619D01*
X251626667Y-50506381D02*
X252293334Y-50506381D01*
X251864762Y-51506381D01*
X206081334Y-124817143D02*
X206033715Y-124864762D01*
X205890858Y-124912381D01*
X205795620Y-124912381D01*
X205652762Y-124864762D01*
X205557524Y-124769524D01*
X205509905Y-124674286D01*
X205462286Y-124483810D01*
X205462286Y-124340952D01*
X205509905Y-124150476D01*
X205557524Y-124055238D01*
X205652762Y-123960000D01*
X205795620Y-123912381D01*
X205890858Y-123912381D01*
X206033715Y-123960000D01*
X206081334Y-124007619D01*
X206652762Y-124340952D02*
X206557524Y-124293333D01*
X206509905Y-124245714D01*
X206462286Y-124150476D01*
X206462286Y-124102857D01*
X206509905Y-124007619D01*
X206557524Y-123960000D01*
X206652762Y-123912381D01*
X206843239Y-123912381D01*
X206938477Y-123960000D01*
X206986096Y-124007619D01*
X207033715Y-124102857D01*
X207033715Y-124150476D01*
X206986096Y-124245714D01*
X206938477Y-124293333D01*
X206843239Y-124340952D01*
X206652762Y-124340952D01*
X206557524Y-124388571D01*
X206509905Y-124436190D01*
X206462286Y-124531429D01*
X206462286Y-124721905D01*
X206509905Y-124817143D01*
X206557524Y-124864762D01*
X206652762Y-124912381D01*
X206843239Y-124912381D01*
X206938477Y-124864762D01*
X206986096Y-124817143D01*
X207033715Y-124721905D01*
X207033715Y-124531429D01*
X206986096Y-124436190D01*
X206938477Y-124388571D01*
X206843239Y-124340952D01*
X251293334Y-53443143D02*
X251245715Y-53490762D01*
X251102858Y-53538381D01*
X251007620Y-53538381D01*
X250864762Y-53490762D01*
X250769524Y-53395524D01*
X250721905Y-53300286D01*
X250674286Y-53109810D01*
X250674286Y-52966952D01*
X250721905Y-52776476D01*
X250769524Y-52681238D01*
X250864762Y-52586000D01*
X251007620Y-52538381D01*
X251102858Y-52538381D01*
X251245715Y-52586000D01*
X251293334Y-52633619D01*
X251769524Y-53538381D02*
X251960000Y-53538381D01*
X252055239Y-53490762D01*
X252102858Y-53443143D01*
X252198096Y-53300286D01*
X252245715Y-53109810D01*
X252245715Y-52728857D01*
X252198096Y-52633619D01*
X252150477Y-52586000D01*
X252055239Y-52538381D01*
X251864762Y-52538381D01*
X251769524Y-52586000D01*
X251721905Y-52633619D01*
X251674286Y-52728857D01*
X251674286Y-52966952D01*
X251721905Y-53062190D01*
X251769524Y-53109810D01*
X251864762Y-53157429D01*
X252055239Y-53157429D01*
X252150477Y-53109810D01*
X252198096Y-53062190D01*
X252245715Y-52966952D01*
X206621143Y-128881143D02*
X206573524Y-128928762D01*
X206430667Y-128976381D01*
X206335429Y-128976381D01*
X206192571Y-128928762D01*
X206097333Y-128833524D01*
X206049714Y-128738286D01*
X206002095Y-128547810D01*
X206002095Y-128404952D01*
X206049714Y-128214476D01*
X206097333Y-128119238D01*
X206192571Y-128024000D01*
X206335429Y-127976381D01*
X206430667Y-127976381D01*
X206573524Y-128024000D01*
X206621143Y-128071619D01*
X207573524Y-128976381D02*
X207002095Y-128976381D01*
X207287809Y-128976381D02*
X207287809Y-127976381D01*
X207192571Y-128119238D01*
X207097333Y-128214476D01*
X207002095Y-128262095D01*
X208192571Y-127976381D02*
X208287810Y-127976381D01*
X208383048Y-128024000D01*
X208430667Y-128071619D01*
X208478286Y-128166857D01*
X208525905Y-128357333D01*
X208525905Y-128595429D01*
X208478286Y-128785905D01*
X208430667Y-128881143D01*
X208383048Y-128928762D01*
X208287810Y-128976381D01*
X208192571Y-128976381D01*
X208097333Y-128928762D01*
X208049714Y-128881143D01*
X208002095Y-128785905D01*
X207954476Y-128595429D01*
X207954476Y-128357333D01*
X208002095Y-128166857D01*
X208049714Y-128071619D01*
X208097333Y-128024000D01*
X208192571Y-127976381D01*
X194683143Y-108815143D02*
X194635524Y-108862762D01*
X194492667Y-108910381D01*
X194397429Y-108910381D01*
X194254571Y-108862762D01*
X194159333Y-108767524D01*
X194111714Y-108672286D01*
X194064095Y-108481810D01*
X194064095Y-108338952D01*
X194111714Y-108148476D01*
X194159333Y-108053238D01*
X194254571Y-107958000D01*
X194397429Y-107910381D01*
X194492667Y-107910381D01*
X194635524Y-107958000D01*
X194683143Y-108005619D01*
X195635524Y-108910381D02*
X195064095Y-108910381D01*
X195349809Y-108910381D02*
X195349809Y-107910381D01*
X195254571Y-108053238D01*
X195159333Y-108148476D01*
X195064095Y-108196095D01*
X196016476Y-108005619D02*
X196064095Y-107958000D01*
X196159333Y-107910381D01*
X196397429Y-107910381D01*
X196492667Y-107958000D01*
X196540286Y-108005619D01*
X196587905Y-108100857D01*
X196587905Y-108196095D01*
X196540286Y-108338952D01*
X195968857Y-108910381D01*
X196587905Y-108910381D01*
X188333143Y-123547143D02*
X188285524Y-123594762D01*
X188142667Y-123642381D01*
X188047429Y-123642381D01*
X187904571Y-123594762D01*
X187809333Y-123499524D01*
X187761714Y-123404286D01*
X187714095Y-123213810D01*
X187714095Y-123070952D01*
X187761714Y-122880476D01*
X187809333Y-122785238D01*
X187904571Y-122690000D01*
X188047429Y-122642381D01*
X188142667Y-122642381D01*
X188285524Y-122690000D01*
X188333143Y-122737619D01*
X189285524Y-123642381D02*
X188714095Y-123642381D01*
X188999809Y-123642381D02*
X188999809Y-122642381D01*
X188904571Y-122785238D01*
X188809333Y-122880476D01*
X188714095Y-122928095D01*
X189618857Y-122642381D02*
X190237905Y-122642381D01*
X189904571Y-123023333D01*
X190047429Y-123023333D01*
X190142667Y-123070952D01*
X190190286Y-123118571D01*
X190237905Y-123213810D01*
X190237905Y-123451905D01*
X190190286Y-123547143D01*
X190142667Y-123594762D01*
X190047429Y-123642381D01*
X189761714Y-123642381D01*
X189666476Y-123594762D01*
X189618857Y-123547143D01*
X209415143Y-76303143D02*
X209367524Y-76350762D01*
X209224667Y-76398381D01*
X209129429Y-76398381D01*
X208986571Y-76350762D01*
X208891333Y-76255524D01*
X208843714Y-76160286D01*
X208796095Y-75969810D01*
X208796095Y-75826952D01*
X208843714Y-75636476D01*
X208891333Y-75541238D01*
X208986571Y-75446000D01*
X209129429Y-75398381D01*
X209224667Y-75398381D01*
X209367524Y-75446000D01*
X209415143Y-75493619D01*
X210367524Y-76398381D02*
X209796095Y-76398381D01*
X210081809Y-76398381D02*
X210081809Y-75398381D01*
X209986571Y-75541238D01*
X209891333Y-75636476D01*
X209796095Y-75684095D01*
X211224667Y-75731714D02*
X211224667Y-76398381D01*
X210986571Y-75350762D02*
X210748476Y-76065048D01*
X211367524Y-76065048D01*
X195445143Y-91797143D02*
X195397524Y-91844762D01*
X195254667Y-91892381D01*
X195159429Y-91892381D01*
X195016571Y-91844762D01*
X194921333Y-91749524D01*
X194873714Y-91654286D01*
X194826095Y-91463810D01*
X194826095Y-91320952D01*
X194873714Y-91130476D01*
X194921333Y-91035238D01*
X195016571Y-90940000D01*
X195159429Y-90892381D01*
X195254667Y-90892381D01*
X195397524Y-90940000D01*
X195445143Y-90987619D01*
X196397524Y-91892381D02*
X195826095Y-91892381D01*
X196111809Y-91892381D02*
X196111809Y-90892381D01*
X196016571Y-91035238D01*
X195921333Y-91130476D01*
X195826095Y-91178095D01*
X197302286Y-90892381D02*
X196826095Y-90892381D01*
X196778476Y-91368571D01*
X196826095Y-91320952D01*
X196921333Y-91273333D01*
X197159429Y-91273333D01*
X197254667Y-91320952D01*
X197302286Y-91368571D01*
X197349905Y-91463810D01*
X197349905Y-91701905D01*
X197302286Y-91797143D01*
X197254667Y-91844762D01*
X197159429Y-91892381D01*
X196921333Y-91892381D01*
X196826095Y-91844762D01*
X196778476Y-91797143D01*
X215241143Y-138310857D02*
X215288762Y-138358476D01*
X215336381Y-138501333D01*
X215336381Y-138596571D01*
X215288762Y-138739429D01*
X215193524Y-138834667D01*
X215098286Y-138882286D01*
X214907810Y-138929905D01*
X214764952Y-138929905D01*
X214574476Y-138882286D01*
X214479238Y-138834667D01*
X214384000Y-138739429D01*
X214336381Y-138596571D01*
X214336381Y-138501333D01*
X214384000Y-138358476D01*
X214431619Y-138310857D01*
X215336381Y-137358476D02*
X215336381Y-137929905D01*
X215336381Y-137644191D02*
X214336381Y-137644191D01*
X214479238Y-137739429D01*
X214574476Y-137834667D01*
X214622095Y-137929905D01*
X214336381Y-136501333D02*
X214336381Y-136691810D01*
X214384000Y-136787048D01*
X214431619Y-136834667D01*
X214574476Y-136929905D01*
X214764952Y-136977524D01*
X215145905Y-136977524D01*
X215241143Y-136929905D01*
X215288762Y-136882286D01*
X215336381Y-136787048D01*
X215336381Y-136596571D01*
X215288762Y-136501333D01*
X215241143Y-136453714D01*
X215145905Y-136406095D01*
X214907810Y-136406095D01*
X214812571Y-136453714D01*
X214764952Y-136501333D01*
X214717333Y-136596571D01*
X214717333Y-136787048D01*
X214764952Y-136882286D01*
X214812571Y-136929905D01*
X214907810Y-136977524D01*
X202795143Y-138056857D02*
X202842762Y-138104476D01*
X202890381Y-138247333D01*
X202890381Y-138342571D01*
X202842762Y-138485429D01*
X202747524Y-138580667D01*
X202652286Y-138628286D01*
X202461810Y-138675905D01*
X202318952Y-138675905D01*
X202128476Y-138628286D01*
X202033238Y-138580667D01*
X201938000Y-138485429D01*
X201890381Y-138342571D01*
X201890381Y-138247333D01*
X201938000Y-138104476D01*
X201985619Y-138056857D01*
X202890381Y-137104476D02*
X202890381Y-137675905D01*
X202890381Y-137390191D02*
X201890381Y-137390191D01*
X202033238Y-137485429D01*
X202128476Y-137580667D01*
X202176095Y-137675905D01*
X201890381Y-136771143D02*
X201890381Y-136104476D01*
X202890381Y-136533048D01*
X203319143Y-146407143D02*
X203271524Y-146454762D01*
X203128667Y-146502381D01*
X203033429Y-146502381D01*
X202890571Y-146454762D01*
X202795333Y-146359524D01*
X202747714Y-146264286D01*
X202700095Y-146073810D01*
X202700095Y-145930952D01*
X202747714Y-145740476D01*
X202795333Y-145645238D01*
X202890571Y-145550000D01*
X203033429Y-145502381D01*
X203128667Y-145502381D01*
X203271524Y-145550000D01*
X203319143Y-145597619D01*
X204271524Y-146502381D02*
X203700095Y-146502381D01*
X203985809Y-146502381D02*
X203985809Y-145502381D01*
X203890571Y-145645238D01*
X203795333Y-145740476D01*
X203700095Y-145788095D01*
X204842952Y-145930952D02*
X204747714Y-145883333D01*
X204700095Y-145835714D01*
X204652476Y-145740476D01*
X204652476Y-145692857D01*
X204700095Y-145597619D01*
X204747714Y-145550000D01*
X204842952Y-145502381D01*
X205033429Y-145502381D01*
X205128667Y-145550000D01*
X205176286Y-145597619D01*
X205223905Y-145692857D01*
X205223905Y-145740476D01*
X205176286Y-145835714D01*
X205128667Y-145883333D01*
X205033429Y-145930952D01*
X204842952Y-145930952D01*
X204747714Y-145978571D01*
X204700095Y-146026190D01*
X204652476Y-146121429D01*
X204652476Y-146311905D01*
X204700095Y-146407143D01*
X204747714Y-146454762D01*
X204842952Y-146502381D01*
X205033429Y-146502381D01*
X205128667Y-146454762D01*
X205176286Y-146407143D01*
X205223905Y-146311905D01*
X205223905Y-146121429D01*
X205176286Y-146026190D01*
X205128667Y-145978571D01*
X205033429Y-145930952D01*
X189857143Y-146661143D02*
X189809524Y-146708762D01*
X189666667Y-146756381D01*
X189571429Y-146756381D01*
X189428571Y-146708762D01*
X189333333Y-146613524D01*
X189285714Y-146518286D01*
X189238095Y-146327810D01*
X189238095Y-146184952D01*
X189285714Y-145994476D01*
X189333333Y-145899238D01*
X189428571Y-145804000D01*
X189571429Y-145756381D01*
X189666667Y-145756381D01*
X189809524Y-145804000D01*
X189857143Y-145851619D01*
X190809524Y-146756381D02*
X190238095Y-146756381D01*
X190523809Y-146756381D02*
X190523809Y-145756381D01*
X190428571Y-145899238D01*
X190333333Y-145994476D01*
X190238095Y-146042095D01*
X191285714Y-146756381D02*
X191476190Y-146756381D01*
X191571429Y-146708762D01*
X191619048Y-146661143D01*
X191714286Y-146518286D01*
X191761905Y-146327810D01*
X191761905Y-145946857D01*
X191714286Y-145851619D01*
X191666667Y-145804000D01*
X191571429Y-145756381D01*
X191380952Y-145756381D01*
X191285714Y-145804000D01*
X191238095Y-145851619D01*
X191190476Y-145946857D01*
X191190476Y-146184952D01*
X191238095Y-146280190D01*
X191285714Y-146327810D01*
X191380952Y-146375429D01*
X191571429Y-146375429D01*
X191666667Y-146327810D01*
X191714286Y-146280190D01*
X191761905Y-146184952D01*
X211685143Y-138310857D02*
X211732762Y-138358476D01*
X211780381Y-138501333D01*
X211780381Y-138596571D01*
X211732762Y-138739429D01*
X211637524Y-138834667D01*
X211542286Y-138882286D01*
X211351810Y-138929905D01*
X211208952Y-138929905D01*
X211018476Y-138882286D01*
X210923238Y-138834667D01*
X210828000Y-138739429D01*
X210780381Y-138596571D01*
X210780381Y-138501333D01*
X210828000Y-138358476D01*
X210875619Y-138310857D01*
X210875619Y-137929905D02*
X210828000Y-137882286D01*
X210780381Y-137787048D01*
X210780381Y-137548952D01*
X210828000Y-137453714D01*
X210875619Y-137406095D01*
X210970857Y-137358476D01*
X211066095Y-137358476D01*
X211208952Y-137406095D01*
X211780381Y-137977524D01*
X211780381Y-137358476D01*
X210780381Y-136739429D02*
X210780381Y-136644190D01*
X210828000Y-136548952D01*
X210875619Y-136501333D01*
X210970857Y-136453714D01*
X211161333Y-136406095D01*
X211399429Y-136406095D01*
X211589905Y-136453714D01*
X211685143Y-136501333D01*
X211732762Y-136548952D01*
X211780381Y-136644190D01*
X211780381Y-136739429D01*
X211732762Y-136834667D01*
X211685143Y-136882286D01*
X211589905Y-136929905D01*
X211399429Y-136977524D01*
X211161333Y-136977524D01*
X210970857Y-136929905D01*
X210875619Y-136882286D01*
X210828000Y-136834667D01*
X210780381Y-136739429D01*
X199747143Y-138056857D02*
X199794762Y-138104476D01*
X199842381Y-138247333D01*
X199842381Y-138342571D01*
X199794762Y-138485429D01*
X199699524Y-138580667D01*
X199604286Y-138628286D01*
X199413810Y-138675905D01*
X199270952Y-138675905D01*
X199080476Y-138628286D01*
X198985238Y-138580667D01*
X198890000Y-138485429D01*
X198842381Y-138342571D01*
X198842381Y-138247333D01*
X198890000Y-138104476D01*
X198937619Y-138056857D01*
X198937619Y-137675905D02*
X198890000Y-137628286D01*
X198842381Y-137533048D01*
X198842381Y-137294952D01*
X198890000Y-137199714D01*
X198937619Y-137152095D01*
X199032857Y-137104476D01*
X199128095Y-137104476D01*
X199270952Y-137152095D01*
X199842381Y-137723524D01*
X199842381Y-137104476D01*
X199842381Y-136152095D02*
X199842381Y-136723524D01*
X199842381Y-136437810D02*
X198842381Y-136437810D01*
X198985238Y-136533048D01*
X199080476Y-136628286D01*
X199128095Y-136723524D01*
X196699143Y-138056857D02*
X196746762Y-138104476D01*
X196794381Y-138247333D01*
X196794381Y-138342571D01*
X196746762Y-138485429D01*
X196651524Y-138580667D01*
X196556286Y-138628286D01*
X196365810Y-138675905D01*
X196222952Y-138675905D01*
X196032476Y-138628286D01*
X195937238Y-138580667D01*
X195842000Y-138485429D01*
X195794381Y-138342571D01*
X195794381Y-138247333D01*
X195842000Y-138104476D01*
X195889619Y-138056857D01*
X195889619Y-137675905D02*
X195842000Y-137628286D01*
X195794381Y-137533048D01*
X195794381Y-137294952D01*
X195842000Y-137199714D01*
X195889619Y-137152095D01*
X195984857Y-137104476D01*
X196080095Y-137104476D01*
X196222952Y-137152095D01*
X196794381Y-137723524D01*
X196794381Y-137104476D01*
X195794381Y-136771143D02*
X195794381Y-136152095D01*
X196175333Y-136485429D01*
X196175333Y-136342571D01*
X196222952Y-136247333D01*
X196270571Y-136199714D01*
X196365810Y-136152095D01*
X196603905Y-136152095D01*
X196699143Y-136199714D01*
X196746762Y-136247333D01*
X196794381Y-136342571D01*
X196794381Y-136628286D01*
X196746762Y-136723524D01*
X196699143Y-136771143D01*
X216685905Y-91130381D02*
X216685905Y-90130381D01*
X216924000Y-90130381D01*
X217066858Y-90178000D01*
X217162096Y-90273238D01*
X217209715Y-90368476D01*
X217257334Y-90558952D01*
X217257334Y-90701810D01*
X217209715Y-90892286D01*
X217162096Y-90987524D01*
X217066858Y-91082762D01*
X216924000Y-91130381D01*
X216685905Y-91130381D01*
X217590667Y-90130381D02*
X218257334Y-90130381D01*
X217828762Y-91130381D01*
X197612095Y-15438381D02*
X197612095Y-14438381D01*
X197612095Y-14914571D02*
X198183524Y-14914571D01*
X198183524Y-15438381D02*
X198183524Y-14438381D01*
X199183524Y-15438381D02*
X198612095Y-15438381D01*
X198897809Y-15438381D02*
X198897809Y-14438381D01*
X198802571Y-14581238D01*
X198707333Y-14676476D01*
X198612095Y-14724095D01*
X184404095Y-107088381D02*
X184404095Y-106088381D01*
X184404095Y-106564571D02*
X184975524Y-106564571D01*
X184975524Y-107088381D02*
X184975524Y-106088381D01*
X185880286Y-106421714D02*
X185880286Y-107088381D01*
X185642190Y-106040762D02*
X185404095Y-106755048D01*
X186023143Y-106755048D01*
X254960381Y-32646857D02*
X254484190Y-32980191D01*
X254960381Y-33218286D02*
X253960381Y-33218286D01*
X253960381Y-32837333D01*
X254008000Y-32742095D01*
X254055619Y-32694476D01*
X254150857Y-32646857D01*
X254293714Y-32646857D01*
X254388952Y-32694476D01*
X254436571Y-32742095D01*
X254484190Y-32837333D01*
X254484190Y-33218286D01*
X254960381Y-31694476D02*
X254960381Y-32265905D01*
X254960381Y-31980191D02*
X253960381Y-31980191D01*
X254103238Y-32075429D01*
X254198476Y-32170667D01*
X254246095Y-32265905D01*
X254293714Y-30837333D02*
X254960381Y-30837333D01*
X253912762Y-31075429D02*
X254627048Y-31313524D01*
X254627048Y-30694476D01*
X270883143Y-41854381D02*
X270549809Y-41378190D01*
X270311714Y-41854381D02*
X270311714Y-40854381D01*
X270692667Y-40854381D01*
X270787905Y-40902000D01*
X270835524Y-40949619D01*
X270883143Y-41044857D01*
X270883143Y-41187714D01*
X270835524Y-41282952D01*
X270787905Y-41330571D01*
X270692667Y-41378190D01*
X270311714Y-41378190D01*
X271835524Y-41854381D02*
X271264095Y-41854381D01*
X271549809Y-41854381D02*
X271549809Y-40854381D01*
X271454571Y-40997238D01*
X271359333Y-41092476D01*
X271264095Y-41140095D01*
X272168857Y-40854381D02*
X272835524Y-40854381D01*
X272406952Y-41854381D01*
X229481143Y-116530381D02*
X229147809Y-116054190D01*
X228909714Y-116530381D02*
X228909714Y-115530381D01*
X229290667Y-115530381D01*
X229385905Y-115578000D01*
X229433524Y-115625619D01*
X229481143Y-115720857D01*
X229481143Y-115863714D01*
X229433524Y-115958952D01*
X229385905Y-116006571D01*
X229290667Y-116054190D01*
X228909714Y-116054190D01*
X230433524Y-116530381D02*
X229862095Y-116530381D01*
X230147809Y-116530381D02*
X230147809Y-115530381D01*
X230052571Y-115673238D01*
X229957333Y-115768476D01*
X229862095Y-115816095D01*
X231004952Y-115958952D02*
X230909714Y-115911333D01*
X230862095Y-115863714D01*
X230814476Y-115768476D01*
X230814476Y-115720857D01*
X230862095Y-115625619D01*
X230909714Y-115578000D01*
X231004952Y-115530381D01*
X231195429Y-115530381D01*
X231290667Y-115578000D01*
X231338286Y-115625619D01*
X231385905Y-115720857D01*
X231385905Y-115768476D01*
X231338286Y-115863714D01*
X231290667Y-115911333D01*
X231195429Y-115958952D01*
X231004952Y-115958952D01*
X230909714Y-116006571D01*
X230862095Y-116054190D01*
X230814476Y-116149429D01*
X230814476Y-116339905D01*
X230862095Y-116435143D01*
X230909714Y-116482762D01*
X231004952Y-116530381D01*
X231195429Y-116530381D01*
X231290667Y-116482762D01*
X231338286Y-116435143D01*
X231385905Y-116339905D01*
X231385905Y-116149429D01*
X231338286Y-116054190D01*
X231290667Y-116006571D01*
X231195429Y-115958952D01*
X271899143Y-51252381D02*
X271565809Y-50776190D01*
X271327714Y-51252381D02*
X271327714Y-50252381D01*
X271708667Y-50252381D01*
X271803905Y-50300000D01*
X271851524Y-50347619D01*
X271899143Y-50442857D01*
X271899143Y-50585714D01*
X271851524Y-50680952D01*
X271803905Y-50728571D01*
X271708667Y-50776190D01*
X271327714Y-50776190D01*
X272851524Y-51252381D02*
X272280095Y-51252381D01*
X272565809Y-51252381D02*
X272565809Y-50252381D01*
X272470571Y-50395238D01*
X272375333Y-50490476D01*
X272280095Y-50538095D01*
X273327714Y-51252381D02*
X273518190Y-51252381D01*
X273613429Y-51204762D01*
X273661048Y-51157143D01*
X273756286Y-51014286D01*
X273803905Y-50823810D01*
X273803905Y-50442857D01*
X273756286Y-50347619D01*
X273708667Y-50300000D01*
X273613429Y-50252381D01*
X273422952Y-50252381D01*
X273327714Y-50300000D01*
X273280095Y-50347619D01*
X273232476Y-50442857D01*
X273232476Y-50680952D01*
X273280095Y-50776190D01*
X273327714Y-50823810D01*
X273422952Y-50871429D01*
X273613429Y-50871429D01*
X273708667Y-50823810D01*
X273756286Y-50776190D01*
X273803905Y-50680952D01*
X229735143Y-127198381D02*
X229401809Y-126722190D01*
X229163714Y-127198381D02*
X229163714Y-126198381D01*
X229544667Y-126198381D01*
X229639905Y-126246000D01*
X229687524Y-126293619D01*
X229735143Y-126388857D01*
X229735143Y-126531714D01*
X229687524Y-126626952D01*
X229639905Y-126674571D01*
X229544667Y-126722190D01*
X229163714Y-126722190D01*
X230116095Y-126293619D02*
X230163714Y-126246000D01*
X230258952Y-126198381D01*
X230497048Y-126198381D01*
X230592286Y-126246000D01*
X230639905Y-126293619D01*
X230687524Y-126388857D01*
X230687524Y-126484095D01*
X230639905Y-126626952D01*
X230068476Y-127198381D01*
X230687524Y-127198381D01*
X231306571Y-126198381D02*
X231401810Y-126198381D01*
X231497048Y-126246000D01*
X231544667Y-126293619D01*
X231592286Y-126388857D01*
X231639905Y-126579333D01*
X231639905Y-126817429D01*
X231592286Y-127007905D01*
X231544667Y-127103143D01*
X231497048Y-127150762D01*
X231401810Y-127198381D01*
X231306571Y-127198381D01*
X231211333Y-127150762D01*
X231163714Y-127103143D01*
X231116095Y-127007905D01*
X231068476Y-126817429D01*
X231068476Y-126579333D01*
X231116095Y-126388857D01*
X231163714Y-126293619D01*
X231211333Y-126246000D01*
X231306571Y-126198381D01*
X271391143Y-45410381D02*
X271057809Y-44934190D01*
X270819714Y-45410381D02*
X270819714Y-44410381D01*
X271200667Y-44410381D01*
X271295905Y-44458000D01*
X271343524Y-44505619D01*
X271391143Y-44600857D01*
X271391143Y-44743714D01*
X271343524Y-44838952D01*
X271295905Y-44886571D01*
X271200667Y-44934190D01*
X270819714Y-44934190D01*
X271772095Y-44505619D02*
X271819714Y-44458000D01*
X271914952Y-44410381D01*
X272153048Y-44410381D01*
X272248286Y-44458000D01*
X272295905Y-44505619D01*
X272343524Y-44600857D01*
X272343524Y-44696095D01*
X272295905Y-44838952D01*
X271724476Y-45410381D01*
X272343524Y-45410381D01*
X273295905Y-45410381D02*
X272724476Y-45410381D01*
X273010190Y-45410381D02*
X273010190Y-44410381D01*
X272914952Y-44553238D01*
X272819714Y-44648476D01*
X272724476Y-44696095D01*
X229481143Y-118562381D02*
X229147809Y-118086190D01*
X228909714Y-118562381D02*
X228909714Y-117562381D01*
X229290667Y-117562381D01*
X229385905Y-117610000D01*
X229433524Y-117657619D01*
X229481143Y-117752857D01*
X229481143Y-117895714D01*
X229433524Y-117990952D01*
X229385905Y-118038571D01*
X229290667Y-118086190D01*
X228909714Y-118086190D01*
X229862095Y-117657619D02*
X229909714Y-117610000D01*
X230004952Y-117562381D01*
X230243048Y-117562381D01*
X230338286Y-117610000D01*
X230385905Y-117657619D01*
X230433524Y-117752857D01*
X230433524Y-117848095D01*
X230385905Y-117990952D01*
X229814476Y-118562381D01*
X230433524Y-118562381D01*
X230814476Y-117657619D02*
X230862095Y-117610000D01*
X230957333Y-117562381D01*
X231195429Y-117562381D01*
X231290667Y-117610000D01*
X231338286Y-117657619D01*
X231385905Y-117752857D01*
X231385905Y-117848095D01*
X231338286Y-117990952D01*
X230766857Y-118562381D01*
X231385905Y-118562381D01*
X271899143Y-49220381D02*
X271565809Y-48744190D01*
X271327714Y-49220381D02*
X271327714Y-48220381D01*
X271708667Y-48220381D01*
X271803905Y-48268000D01*
X271851524Y-48315619D01*
X271899143Y-48410857D01*
X271899143Y-48553714D01*
X271851524Y-48648952D01*
X271803905Y-48696571D01*
X271708667Y-48744190D01*
X271327714Y-48744190D01*
X272280095Y-48315619D02*
X272327714Y-48268000D01*
X272422952Y-48220381D01*
X272661048Y-48220381D01*
X272756286Y-48268000D01*
X272803905Y-48315619D01*
X272851524Y-48410857D01*
X272851524Y-48506095D01*
X272803905Y-48648952D01*
X272232476Y-49220381D01*
X272851524Y-49220381D01*
X273184857Y-48220381D02*
X273803905Y-48220381D01*
X273470571Y-48601333D01*
X273613429Y-48601333D01*
X273708667Y-48648952D01*
X273756286Y-48696571D01*
X273803905Y-48791810D01*
X273803905Y-49029905D01*
X273756286Y-49125143D01*
X273708667Y-49172762D01*
X273613429Y-49220381D01*
X273327714Y-49220381D01*
X273232476Y-49172762D01*
X273184857Y-49125143D01*
X229735143Y-129230381D02*
X229401809Y-128754190D01*
X229163714Y-129230381D02*
X229163714Y-128230381D01*
X229544667Y-128230381D01*
X229639905Y-128278000D01*
X229687524Y-128325619D01*
X229735143Y-128420857D01*
X229735143Y-128563714D01*
X229687524Y-128658952D01*
X229639905Y-128706571D01*
X229544667Y-128754190D01*
X229163714Y-128754190D01*
X230116095Y-128325619D02*
X230163714Y-128278000D01*
X230258952Y-128230381D01*
X230497048Y-128230381D01*
X230592286Y-128278000D01*
X230639905Y-128325619D01*
X230687524Y-128420857D01*
X230687524Y-128516095D01*
X230639905Y-128658952D01*
X230068476Y-129230381D01*
X230687524Y-129230381D01*
X231544667Y-128563714D02*
X231544667Y-129230381D01*
X231306571Y-128182762D02*
X231068476Y-128897048D01*
X231687524Y-128897048D01*
X249039143Y-49474381D02*
X248705809Y-48998190D01*
X248467714Y-49474381D02*
X248467714Y-48474381D01*
X248848667Y-48474381D01*
X248943905Y-48522000D01*
X248991524Y-48569619D01*
X249039143Y-48664857D01*
X249039143Y-48807714D01*
X248991524Y-48902952D01*
X248943905Y-48950571D01*
X248848667Y-48998190D01*
X248467714Y-48998190D01*
X249420095Y-48569619D02*
X249467714Y-48522000D01*
X249562952Y-48474381D01*
X249801048Y-48474381D01*
X249896286Y-48522000D01*
X249943905Y-48569619D01*
X249991524Y-48664857D01*
X249991524Y-48760095D01*
X249943905Y-48902952D01*
X249372476Y-49474381D01*
X249991524Y-49474381D01*
X250896286Y-48474381D02*
X250420095Y-48474381D01*
X250372476Y-48950571D01*
X250420095Y-48902952D01*
X250515333Y-48855333D01*
X250753429Y-48855333D01*
X250848667Y-48902952D01*
X250896286Y-48950571D01*
X250943905Y-49045810D01*
X250943905Y-49283905D01*
X250896286Y-49379143D01*
X250848667Y-49426762D01*
X250753429Y-49474381D01*
X250515333Y-49474381D01*
X250420095Y-49426762D01*
X250372476Y-49379143D01*
X205097143Y-126436381D02*
X204763809Y-125960190D01*
X204525714Y-126436381D02*
X204525714Y-125436381D01*
X204906667Y-125436381D01*
X205001905Y-125484000D01*
X205049524Y-125531619D01*
X205097143Y-125626857D01*
X205097143Y-125769714D01*
X205049524Y-125864952D01*
X205001905Y-125912571D01*
X204906667Y-125960190D01*
X204525714Y-125960190D01*
X205478095Y-125531619D02*
X205525714Y-125484000D01*
X205620952Y-125436381D01*
X205859048Y-125436381D01*
X205954286Y-125484000D01*
X206001905Y-125531619D01*
X206049524Y-125626857D01*
X206049524Y-125722095D01*
X206001905Y-125864952D01*
X205430476Y-126436381D01*
X206049524Y-126436381D01*
X206906667Y-125436381D02*
X206716190Y-125436381D01*
X206620952Y-125484000D01*
X206573333Y-125531619D01*
X206478095Y-125674476D01*
X206430476Y-125864952D01*
X206430476Y-126245905D01*
X206478095Y-126341143D01*
X206525714Y-126388762D01*
X206620952Y-126436381D01*
X206811429Y-126436381D01*
X206906667Y-126388762D01*
X206954286Y-126341143D01*
X207001905Y-126245905D01*
X207001905Y-126007810D01*
X206954286Y-125912571D01*
X206906667Y-125864952D01*
X206811429Y-125817333D01*
X206620952Y-125817333D01*
X206525714Y-125864952D01*
X206478095Y-125912571D01*
X206430476Y-126007810D01*
X249293143Y-44394381D02*
X248959809Y-43918190D01*
X248721714Y-44394381D02*
X248721714Y-43394381D01*
X249102667Y-43394381D01*
X249197905Y-43442000D01*
X249245524Y-43489619D01*
X249293143Y-43584857D01*
X249293143Y-43727714D01*
X249245524Y-43822952D01*
X249197905Y-43870571D01*
X249102667Y-43918190D01*
X248721714Y-43918190D01*
X249674095Y-43489619D02*
X249721714Y-43442000D01*
X249816952Y-43394381D01*
X250055048Y-43394381D01*
X250150286Y-43442000D01*
X250197905Y-43489619D01*
X250245524Y-43584857D01*
X250245524Y-43680095D01*
X250197905Y-43822952D01*
X249626476Y-44394381D01*
X250245524Y-44394381D01*
X250578857Y-43394381D02*
X251245524Y-43394381D01*
X250816952Y-44394381D01*
X206621143Y-121356381D02*
X206287809Y-120880190D01*
X206049714Y-121356381D02*
X206049714Y-120356381D01*
X206430667Y-120356381D01*
X206525905Y-120404000D01*
X206573524Y-120451619D01*
X206621143Y-120546857D01*
X206621143Y-120689714D01*
X206573524Y-120784952D01*
X206525905Y-120832571D01*
X206430667Y-120880190D01*
X206049714Y-120880190D01*
X207002095Y-120451619D02*
X207049714Y-120404000D01*
X207144952Y-120356381D01*
X207383048Y-120356381D01*
X207478286Y-120404000D01*
X207525905Y-120451619D01*
X207573524Y-120546857D01*
X207573524Y-120642095D01*
X207525905Y-120784952D01*
X206954476Y-121356381D01*
X207573524Y-121356381D01*
X208144952Y-120784952D02*
X208049714Y-120737333D01*
X208002095Y-120689714D01*
X207954476Y-120594476D01*
X207954476Y-120546857D01*
X208002095Y-120451619D01*
X208049714Y-120404000D01*
X208144952Y-120356381D01*
X208335429Y-120356381D01*
X208430667Y-120404000D01*
X208478286Y-120451619D01*
X208525905Y-120546857D01*
X208525905Y-120594476D01*
X208478286Y-120689714D01*
X208430667Y-120737333D01*
X208335429Y-120784952D01*
X208144952Y-120784952D01*
X208049714Y-120832571D01*
X208002095Y-120880190D01*
X207954476Y-120975429D01*
X207954476Y-121165905D01*
X208002095Y-121261143D01*
X208049714Y-121308762D01*
X208144952Y-121356381D01*
X208335429Y-121356381D01*
X208430667Y-121308762D01*
X208478286Y-121261143D01*
X208525905Y-121165905D01*
X208525905Y-120975429D01*
X208478286Y-120880190D01*
X208430667Y-120832571D01*
X208335429Y-120784952D01*
X242260381Y-28328857D02*
X241784190Y-28662191D01*
X242260381Y-28900286D02*
X241260381Y-28900286D01*
X241260381Y-28519333D01*
X241308000Y-28424095D01*
X241355619Y-28376476D01*
X241450857Y-28328857D01*
X241593714Y-28328857D01*
X241688952Y-28376476D01*
X241736571Y-28424095D01*
X241784190Y-28519333D01*
X241784190Y-28900286D01*
X241355619Y-27947905D02*
X241308000Y-27900286D01*
X241260381Y-27805048D01*
X241260381Y-27566952D01*
X241308000Y-27471714D01*
X241355619Y-27424095D01*
X241450857Y-27376476D01*
X241546095Y-27376476D01*
X241688952Y-27424095D01*
X242260381Y-27995524D01*
X242260381Y-27376476D01*
X242260381Y-26900286D02*
X242260381Y-26709810D01*
X242212762Y-26614571D01*
X242165143Y-26566952D01*
X242022286Y-26471714D01*
X241831810Y-26424095D01*
X241450857Y-26424095D01*
X241355619Y-26471714D01*
X241308000Y-26519333D01*
X241260381Y-26614571D01*
X241260381Y-26805048D01*
X241308000Y-26900286D01*
X241355619Y-26947905D01*
X241450857Y-26995524D01*
X241688952Y-26995524D01*
X241784190Y-26947905D01*
X241831810Y-26900286D01*
X241879429Y-26805048D01*
X241879429Y-26614571D01*
X241831810Y-26519333D01*
X241784190Y-26471714D01*
X241688952Y-26424095D01*
X240482381Y-21216857D02*
X240006190Y-21550191D01*
X240482381Y-21788286D02*
X239482381Y-21788286D01*
X239482381Y-21407333D01*
X239530000Y-21312095D01*
X239577619Y-21264476D01*
X239672857Y-21216857D01*
X239815714Y-21216857D01*
X239910952Y-21264476D01*
X239958571Y-21312095D01*
X240006190Y-21407333D01*
X240006190Y-21788286D01*
X239482381Y-20883524D02*
X239482381Y-20264476D01*
X239863333Y-20597810D01*
X239863333Y-20454952D01*
X239910952Y-20359714D01*
X239958571Y-20312095D01*
X240053810Y-20264476D01*
X240291905Y-20264476D01*
X240387143Y-20312095D01*
X240434762Y-20359714D01*
X240482381Y-20454952D01*
X240482381Y-20740667D01*
X240434762Y-20835905D01*
X240387143Y-20883524D01*
X239482381Y-19645429D02*
X239482381Y-19550190D01*
X239530000Y-19454952D01*
X239577619Y-19407333D01*
X239672857Y-19359714D01*
X239863333Y-19312095D01*
X240101429Y-19312095D01*
X240291905Y-19359714D01*
X240387143Y-19407333D01*
X240434762Y-19454952D01*
X240482381Y-19550190D01*
X240482381Y-19645429D01*
X240434762Y-19740667D01*
X240387143Y-19788286D01*
X240291905Y-19835905D01*
X240101429Y-19883524D01*
X239863333Y-19883524D01*
X239672857Y-19835905D01*
X239577619Y-19788286D01*
X239530000Y-19740667D01*
X239482381Y-19645429D01*
X233878381Y-28328857D02*
X233402190Y-28662191D01*
X233878381Y-28900286D02*
X232878381Y-28900286D01*
X232878381Y-28519333D01*
X232926000Y-28424095D01*
X232973619Y-28376476D01*
X233068857Y-28328857D01*
X233211714Y-28328857D01*
X233306952Y-28376476D01*
X233354571Y-28424095D01*
X233402190Y-28519333D01*
X233402190Y-28900286D01*
X232878381Y-27995524D02*
X232878381Y-27376476D01*
X233259333Y-27709810D01*
X233259333Y-27566952D01*
X233306952Y-27471714D01*
X233354571Y-27424095D01*
X233449810Y-27376476D01*
X233687905Y-27376476D01*
X233783143Y-27424095D01*
X233830762Y-27471714D01*
X233878381Y-27566952D01*
X233878381Y-27852667D01*
X233830762Y-27947905D01*
X233783143Y-27995524D01*
X233878381Y-26424095D02*
X233878381Y-26995524D01*
X233878381Y-26709810D02*
X232878381Y-26709810D01*
X233021238Y-26805048D01*
X233116476Y-26900286D01*
X233164095Y-26995524D01*
X232100381Y-21216857D02*
X231624190Y-21550191D01*
X232100381Y-21788286D02*
X231100381Y-21788286D01*
X231100381Y-21407333D01*
X231148000Y-21312095D01*
X231195619Y-21264476D01*
X231290857Y-21216857D01*
X231433714Y-21216857D01*
X231528952Y-21264476D01*
X231576571Y-21312095D01*
X231624190Y-21407333D01*
X231624190Y-21788286D01*
X231100381Y-20883524D02*
X231100381Y-20264476D01*
X231481333Y-20597810D01*
X231481333Y-20454952D01*
X231528952Y-20359714D01*
X231576571Y-20312095D01*
X231671810Y-20264476D01*
X231909905Y-20264476D01*
X232005143Y-20312095D01*
X232052762Y-20359714D01*
X232100381Y-20454952D01*
X232100381Y-20740667D01*
X232052762Y-20835905D01*
X232005143Y-20883524D01*
X231195619Y-19883524D02*
X231148000Y-19835905D01*
X231100381Y-19740667D01*
X231100381Y-19502571D01*
X231148000Y-19407333D01*
X231195619Y-19359714D01*
X231290857Y-19312095D01*
X231386095Y-19312095D01*
X231528952Y-19359714D01*
X232100381Y-19931143D01*
X232100381Y-19312095D01*
X225496381Y-28328857D02*
X225020190Y-28662191D01*
X225496381Y-28900286D02*
X224496381Y-28900286D01*
X224496381Y-28519333D01*
X224544000Y-28424095D01*
X224591619Y-28376476D01*
X224686857Y-28328857D01*
X224829714Y-28328857D01*
X224924952Y-28376476D01*
X224972571Y-28424095D01*
X225020190Y-28519333D01*
X225020190Y-28900286D01*
X224496381Y-27995524D02*
X224496381Y-27376476D01*
X224877333Y-27709810D01*
X224877333Y-27566952D01*
X224924952Y-27471714D01*
X224972571Y-27424095D01*
X225067810Y-27376476D01*
X225305905Y-27376476D01*
X225401143Y-27424095D01*
X225448762Y-27471714D01*
X225496381Y-27566952D01*
X225496381Y-27852667D01*
X225448762Y-27947905D01*
X225401143Y-27995524D01*
X224496381Y-27043143D02*
X224496381Y-26424095D01*
X224877333Y-26757429D01*
X224877333Y-26614571D01*
X224924952Y-26519333D01*
X224972571Y-26471714D01*
X225067810Y-26424095D01*
X225305905Y-26424095D01*
X225401143Y-26471714D01*
X225448762Y-26519333D01*
X225496381Y-26614571D01*
X225496381Y-26900286D01*
X225448762Y-26995524D01*
X225401143Y-27043143D01*
X223718381Y-21216857D02*
X223242190Y-21550191D01*
X223718381Y-21788286D02*
X222718381Y-21788286D01*
X222718381Y-21407333D01*
X222766000Y-21312095D01*
X222813619Y-21264476D01*
X222908857Y-21216857D01*
X223051714Y-21216857D01*
X223146952Y-21264476D01*
X223194571Y-21312095D01*
X223242190Y-21407333D01*
X223242190Y-21788286D01*
X222718381Y-20883524D02*
X222718381Y-20264476D01*
X223099333Y-20597810D01*
X223099333Y-20454952D01*
X223146952Y-20359714D01*
X223194571Y-20312095D01*
X223289810Y-20264476D01*
X223527905Y-20264476D01*
X223623143Y-20312095D01*
X223670762Y-20359714D01*
X223718381Y-20454952D01*
X223718381Y-20740667D01*
X223670762Y-20835905D01*
X223623143Y-20883524D01*
X223051714Y-19407333D02*
X223718381Y-19407333D01*
X222670762Y-19645429D02*
X223385048Y-19883524D01*
X223385048Y-19264476D01*
X217114381Y-28328857D02*
X216638190Y-28662191D01*
X217114381Y-28900286D02*
X216114381Y-28900286D01*
X216114381Y-28519333D01*
X216162000Y-28424095D01*
X216209619Y-28376476D01*
X216304857Y-28328857D01*
X216447714Y-28328857D01*
X216542952Y-28376476D01*
X216590571Y-28424095D01*
X216638190Y-28519333D01*
X216638190Y-28900286D01*
X216114381Y-27995524D02*
X216114381Y-27376476D01*
X216495333Y-27709810D01*
X216495333Y-27566952D01*
X216542952Y-27471714D01*
X216590571Y-27424095D01*
X216685810Y-27376476D01*
X216923905Y-27376476D01*
X217019143Y-27424095D01*
X217066762Y-27471714D01*
X217114381Y-27566952D01*
X217114381Y-27852667D01*
X217066762Y-27947905D01*
X217019143Y-27995524D01*
X216114381Y-26471714D02*
X216114381Y-26947905D01*
X216590571Y-26995524D01*
X216542952Y-26947905D01*
X216495333Y-26852667D01*
X216495333Y-26614571D01*
X216542952Y-26519333D01*
X216590571Y-26471714D01*
X216685810Y-26424095D01*
X216923905Y-26424095D01*
X217019143Y-26471714D01*
X217066762Y-26519333D01*
X217114381Y-26614571D01*
X217114381Y-26852667D01*
X217066762Y-26947905D01*
X217019143Y-26995524D01*
X215590381Y-21216857D02*
X215114190Y-21550191D01*
X215590381Y-21788286D02*
X214590381Y-21788286D01*
X214590381Y-21407333D01*
X214638000Y-21312095D01*
X214685619Y-21264476D01*
X214780857Y-21216857D01*
X214923714Y-21216857D01*
X215018952Y-21264476D01*
X215066571Y-21312095D01*
X215114190Y-21407333D01*
X215114190Y-21788286D01*
X214590381Y-20883524D02*
X214590381Y-20264476D01*
X214971333Y-20597810D01*
X214971333Y-20454952D01*
X215018952Y-20359714D01*
X215066571Y-20312095D01*
X215161810Y-20264476D01*
X215399905Y-20264476D01*
X215495143Y-20312095D01*
X215542762Y-20359714D01*
X215590381Y-20454952D01*
X215590381Y-20740667D01*
X215542762Y-20835905D01*
X215495143Y-20883524D01*
X214590381Y-19407333D02*
X214590381Y-19597810D01*
X214638000Y-19693048D01*
X214685619Y-19740667D01*
X214828476Y-19835905D01*
X215018952Y-19883524D01*
X215399905Y-19883524D01*
X215495143Y-19835905D01*
X215542762Y-19788286D01*
X215590381Y-19693048D01*
X215590381Y-19502571D01*
X215542762Y-19407333D01*
X215495143Y-19359714D01*
X215399905Y-19312095D01*
X215161810Y-19312095D01*
X215066571Y-19359714D01*
X215018952Y-19407333D01*
X214971333Y-19502571D01*
X214971333Y-19693048D01*
X215018952Y-19788286D01*
X215066571Y-19835905D01*
X215161810Y-19883524D01*
X208732381Y-28328857D02*
X208256190Y-28662191D01*
X208732381Y-28900286D02*
X207732381Y-28900286D01*
X207732381Y-28519333D01*
X207780000Y-28424095D01*
X207827619Y-28376476D01*
X207922857Y-28328857D01*
X208065714Y-28328857D01*
X208160952Y-28376476D01*
X208208571Y-28424095D01*
X208256190Y-28519333D01*
X208256190Y-28900286D01*
X207732381Y-27995524D02*
X207732381Y-27376476D01*
X208113333Y-27709810D01*
X208113333Y-27566952D01*
X208160952Y-27471714D01*
X208208571Y-27424095D01*
X208303810Y-27376476D01*
X208541905Y-27376476D01*
X208637143Y-27424095D01*
X208684762Y-27471714D01*
X208732381Y-27566952D01*
X208732381Y-27852667D01*
X208684762Y-27947905D01*
X208637143Y-27995524D01*
X207732381Y-27043143D02*
X207732381Y-26376476D01*
X208732381Y-26805048D01*
X206954381Y-20962857D02*
X206478190Y-21296191D01*
X206954381Y-21534286D02*
X205954381Y-21534286D01*
X205954381Y-21153333D01*
X206002000Y-21058095D01*
X206049619Y-21010476D01*
X206144857Y-20962857D01*
X206287714Y-20962857D01*
X206382952Y-21010476D01*
X206430571Y-21058095D01*
X206478190Y-21153333D01*
X206478190Y-21534286D01*
X205954381Y-20629524D02*
X205954381Y-20010476D01*
X206335333Y-20343810D01*
X206335333Y-20200952D01*
X206382952Y-20105714D01*
X206430571Y-20058095D01*
X206525810Y-20010476D01*
X206763905Y-20010476D01*
X206859143Y-20058095D01*
X206906762Y-20105714D01*
X206954381Y-20200952D01*
X206954381Y-20486667D01*
X206906762Y-20581905D01*
X206859143Y-20629524D01*
X206382952Y-19439048D02*
X206335333Y-19534286D01*
X206287714Y-19581905D01*
X206192476Y-19629524D01*
X206144857Y-19629524D01*
X206049619Y-19581905D01*
X206002000Y-19534286D01*
X205954381Y-19439048D01*
X205954381Y-19248571D01*
X206002000Y-19153333D01*
X206049619Y-19105714D01*
X206144857Y-19058095D01*
X206192476Y-19058095D01*
X206287714Y-19105714D01*
X206335333Y-19153333D01*
X206382952Y-19248571D01*
X206382952Y-19439048D01*
X206430571Y-19534286D01*
X206478190Y-19581905D01*
X206573429Y-19629524D01*
X206763905Y-19629524D01*
X206859143Y-19581905D01*
X206906762Y-19534286D01*
X206954381Y-19439048D01*
X206954381Y-19248571D01*
X206906762Y-19153333D01*
X206859143Y-19105714D01*
X206763905Y-19058095D01*
X206573429Y-19058095D01*
X206478190Y-19105714D01*
X206430571Y-19153333D01*
X206382952Y-19248571D01*
X185872381Y-73286857D02*
X185396190Y-73620191D01*
X185872381Y-73858286D02*
X184872381Y-73858286D01*
X184872381Y-73477333D01*
X184920000Y-73382095D01*
X184967619Y-73334476D01*
X185062857Y-73286857D01*
X185205714Y-73286857D01*
X185300952Y-73334476D01*
X185348571Y-73382095D01*
X185396190Y-73477333D01*
X185396190Y-73858286D01*
X184872381Y-72953524D02*
X184872381Y-72334476D01*
X185253333Y-72667810D01*
X185253333Y-72524952D01*
X185300952Y-72429714D01*
X185348571Y-72382095D01*
X185443810Y-72334476D01*
X185681905Y-72334476D01*
X185777143Y-72382095D01*
X185824762Y-72429714D01*
X185872381Y-72524952D01*
X185872381Y-72810667D01*
X185824762Y-72905905D01*
X185777143Y-72953524D01*
X185872381Y-71858286D02*
X185872381Y-71667810D01*
X185824762Y-71572571D01*
X185777143Y-71524952D01*
X185634286Y-71429714D01*
X185443810Y-71382095D01*
X185062857Y-71382095D01*
X184967619Y-71429714D01*
X184920000Y-71477333D01*
X184872381Y-71572571D01*
X184872381Y-71763048D01*
X184920000Y-71858286D01*
X184967619Y-71905905D01*
X185062857Y-71953524D01*
X185300952Y-71953524D01*
X185396190Y-71905905D01*
X185443810Y-71858286D01*
X185491429Y-71763048D01*
X185491429Y-71572571D01*
X185443810Y-71477333D01*
X185396190Y-71429714D01*
X185300952Y-71382095D01*
X184348381Y-73286857D02*
X183872190Y-73620191D01*
X184348381Y-73858286D02*
X183348381Y-73858286D01*
X183348381Y-73477333D01*
X183396000Y-73382095D01*
X183443619Y-73334476D01*
X183538857Y-73286857D01*
X183681714Y-73286857D01*
X183776952Y-73334476D01*
X183824571Y-73382095D01*
X183872190Y-73477333D01*
X183872190Y-73858286D01*
X183681714Y-72429714D02*
X184348381Y-72429714D01*
X183300762Y-72667810D02*
X184015048Y-72905905D01*
X184015048Y-72286857D01*
X183348381Y-71715429D02*
X183348381Y-71620190D01*
X183396000Y-71524952D01*
X183443619Y-71477333D01*
X183538857Y-71429714D01*
X183729333Y-71382095D01*
X183967429Y-71382095D01*
X184157905Y-71429714D01*
X184253143Y-71477333D01*
X184300762Y-71524952D01*
X184348381Y-71620190D01*
X184348381Y-71715429D01*
X184300762Y-71810667D01*
X184253143Y-71858286D01*
X184157905Y-71905905D01*
X183967429Y-71953524D01*
X183729333Y-71953524D01*
X183538857Y-71905905D01*
X183443619Y-71858286D01*
X183396000Y-71810667D01*
X183348381Y-71715429D01*
X221432381Y-46362857D02*
X220956190Y-46696191D01*
X221432381Y-46934286D02*
X220432381Y-46934286D01*
X220432381Y-46553333D01*
X220480000Y-46458095D01*
X220527619Y-46410476D01*
X220622857Y-46362857D01*
X220765714Y-46362857D01*
X220860952Y-46410476D01*
X220908571Y-46458095D01*
X220956190Y-46553333D01*
X220956190Y-46934286D01*
X220765714Y-45505714D02*
X221432381Y-45505714D01*
X220384762Y-45743810D02*
X221099048Y-45981905D01*
X221099048Y-45362857D01*
X221432381Y-44458095D02*
X221432381Y-45029524D01*
X221432381Y-44743810D02*
X220432381Y-44743810D01*
X220575238Y-44839048D01*
X220670476Y-44934286D01*
X220718095Y-45029524D01*
X219908381Y-46362857D02*
X219432190Y-46696191D01*
X219908381Y-46934286D02*
X218908381Y-46934286D01*
X218908381Y-46553333D01*
X218956000Y-46458095D01*
X219003619Y-46410476D01*
X219098857Y-46362857D01*
X219241714Y-46362857D01*
X219336952Y-46410476D01*
X219384571Y-46458095D01*
X219432190Y-46553333D01*
X219432190Y-46934286D01*
X219241714Y-45505714D02*
X219908381Y-45505714D01*
X218860762Y-45743810D02*
X219575048Y-45981905D01*
X219575048Y-45362857D01*
X219003619Y-45029524D02*
X218956000Y-44981905D01*
X218908381Y-44886667D01*
X218908381Y-44648571D01*
X218956000Y-44553333D01*
X219003619Y-44505714D01*
X219098857Y-44458095D01*
X219194095Y-44458095D01*
X219336952Y-44505714D01*
X219908381Y-45077143D01*
X219908381Y-44458095D01*
X218384381Y-46362857D02*
X217908190Y-46696191D01*
X218384381Y-46934286D02*
X217384381Y-46934286D01*
X217384381Y-46553333D01*
X217432000Y-46458095D01*
X217479619Y-46410476D01*
X217574857Y-46362857D01*
X217717714Y-46362857D01*
X217812952Y-46410476D01*
X217860571Y-46458095D01*
X217908190Y-46553333D01*
X217908190Y-46934286D01*
X217717714Y-45505714D02*
X218384381Y-45505714D01*
X217336762Y-45743810D02*
X218051048Y-45981905D01*
X218051048Y-45362857D01*
X217384381Y-45077143D02*
X217384381Y-44458095D01*
X217765333Y-44791429D01*
X217765333Y-44648571D01*
X217812952Y-44553333D01*
X217860571Y-44505714D01*
X217955810Y-44458095D01*
X218193905Y-44458095D01*
X218289143Y-44505714D01*
X218336762Y-44553333D01*
X218384381Y-44648571D01*
X218384381Y-44934286D01*
X218336762Y-45029524D01*
X218289143Y-45077143D01*
X216860381Y-46362857D02*
X216384190Y-46696191D01*
X216860381Y-46934286D02*
X215860381Y-46934286D01*
X215860381Y-46553333D01*
X215908000Y-46458095D01*
X215955619Y-46410476D01*
X216050857Y-46362857D01*
X216193714Y-46362857D01*
X216288952Y-46410476D01*
X216336571Y-46458095D01*
X216384190Y-46553333D01*
X216384190Y-46934286D01*
X216193714Y-45505714D02*
X216860381Y-45505714D01*
X215812762Y-45743810D02*
X216527048Y-45981905D01*
X216527048Y-45362857D01*
X216193714Y-44553333D02*
X216860381Y-44553333D01*
X215812762Y-44791429D02*
X216527048Y-45029524D01*
X216527048Y-44410476D01*
X215336381Y-46362857D02*
X214860190Y-46696191D01*
X215336381Y-46934286D02*
X214336381Y-46934286D01*
X214336381Y-46553333D01*
X214384000Y-46458095D01*
X214431619Y-46410476D01*
X214526857Y-46362857D01*
X214669714Y-46362857D01*
X214764952Y-46410476D01*
X214812571Y-46458095D01*
X214860190Y-46553333D01*
X214860190Y-46934286D01*
X214669714Y-45505714D02*
X215336381Y-45505714D01*
X214288762Y-45743810D02*
X215003048Y-45981905D01*
X215003048Y-45362857D01*
X214336381Y-44505714D02*
X214336381Y-44981905D01*
X214812571Y-45029524D01*
X214764952Y-44981905D01*
X214717333Y-44886667D01*
X214717333Y-44648571D01*
X214764952Y-44553333D01*
X214812571Y-44505714D01*
X214907810Y-44458095D01*
X215145905Y-44458095D01*
X215241143Y-44505714D01*
X215288762Y-44553333D01*
X215336381Y-44648571D01*
X215336381Y-44886667D01*
X215288762Y-44981905D01*
X215241143Y-45029524D01*
X213812381Y-46362857D02*
X213336190Y-46696191D01*
X213812381Y-46934286D02*
X212812381Y-46934286D01*
X212812381Y-46553333D01*
X212860000Y-46458095D01*
X212907619Y-46410476D01*
X213002857Y-46362857D01*
X213145714Y-46362857D01*
X213240952Y-46410476D01*
X213288571Y-46458095D01*
X213336190Y-46553333D01*
X213336190Y-46934286D01*
X213145714Y-45505714D02*
X213812381Y-45505714D01*
X212764762Y-45743810D02*
X213479048Y-45981905D01*
X213479048Y-45362857D01*
X212812381Y-44553333D02*
X212812381Y-44743810D01*
X212860000Y-44839048D01*
X212907619Y-44886667D01*
X213050476Y-44981905D01*
X213240952Y-45029524D01*
X213621905Y-45029524D01*
X213717143Y-44981905D01*
X213764762Y-44934286D01*
X213812381Y-44839048D01*
X213812381Y-44648571D01*
X213764762Y-44553333D01*
X213717143Y-44505714D01*
X213621905Y-44458095D01*
X213383810Y-44458095D01*
X213288571Y-44505714D01*
X213240952Y-44553333D01*
X213193333Y-44648571D01*
X213193333Y-44839048D01*
X213240952Y-44934286D01*
X213288571Y-44981905D01*
X213383810Y-45029524D01*
X212288381Y-46362857D02*
X211812190Y-46696191D01*
X212288381Y-46934286D02*
X211288381Y-46934286D01*
X211288381Y-46553333D01*
X211336000Y-46458095D01*
X211383619Y-46410476D01*
X211478857Y-46362857D01*
X211621714Y-46362857D01*
X211716952Y-46410476D01*
X211764571Y-46458095D01*
X211812190Y-46553333D01*
X211812190Y-46934286D01*
X211621714Y-45505714D02*
X212288381Y-45505714D01*
X211240762Y-45743810D02*
X211955048Y-45981905D01*
X211955048Y-45362857D01*
X211288381Y-45077143D02*
X211288381Y-44410476D01*
X212288381Y-44839048D01*
X210764381Y-46362857D02*
X210288190Y-46696191D01*
X210764381Y-46934286D02*
X209764381Y-46934286D01*
X209764381Y-46553333D01*
X209812000Y-46458095D01*
X209859619Y-46410476D01*
X209954857Y-46362857D01*
X210097714Y-46362857D01*
X210192952Y-46410476D01*
X210240571Y-46458095D01*
X210288190Y-46553333D01*
X210288190Y-46934286D01*
X210097714Y-45505714D02*
X210764381Y-45505714D01*
X209716762Y-45743810D02*
X210431048Y-45981905D01*
X210431048Y-45362857D01*
X210192952Y-44839048D02*
X210145333Y-44934286D01*
X210097714Y-44981905D01*
X210002476Y-45029524D01*
X209954857Y-45029524D01*
X209859619Y-44981905D01*
X209812000Y-44934286D01*
X209764381Y-44839048D01*
X209764381Y-44648571D01*
X209812000Y-44553333D01*
X209859619Y-44505714D01*
X209954857Y-44458095D01*
X210002476Y-44458095D01*
X210097714Y-44505714D01*
X210145333Y-44553333D01*
X210192952Y-44648571D01*
X210192952Y-44839048D01*
X210240571Y-44934286D01*
X210288190Y-44981905D01*
X210383429Y-45029524D01*
X210573905Y-45029524D01*
X210669143Y-44981905D01*
X210716762Y-44934286D01*
X210764381Y-44839048D01*
X210764381Y-44648571D01*
X210716762Y-44553333D01*
X210669143Y-44505714D01*
X210573905Y-44458095D01*
X210383429Y-44458095D01*
X210288190Y-44505714D01*
X210240571Y-44553333D01*
X210192952Y-44648571D01*
X202049143Y-74874381D02*
X201715809Y-74398190D01*
X201477714Y-74874381D02*
X201477714Y-73874381D01*
X201858667Y-73874381D01*
X201953905Y-73922000D01*
X202001524Y-73969619D01*
X202049143Y-74064857D01*
X202049143Y-74207714D01*
X202001524Y-74302952D01*
X201953905Y-74350571D01*
X201858667Y-74398190D01*
X201477714Y-74398190D01*
X202906286Y-74207714D02*
X202906286Y-74874381D01*
X202668190Y-73826762D02*
X202430095Y-74541048D01*
X203049143Y-74541048D01*
X203477714Y-74874381D02*
X203668190Y-74874381D01*
X203763429Y-74826762D01*
X203811048Y-74779143D01*
X203906286Y-74636286D01*
X203953905Y-74445810D01*
X203953905Y-74064857D01*
X203906286Y-73969619D01*
X203858667Y-73922000D01*
X203763429Y-73874381D01*
X203572952Y-73874381D01*
X203477714Y-73922000D01*
X203430095Y-73969619D01*
X203382476Y-74064857D01*
X203382476Y-74302952D01*
X203430095Y-74398190D01*
X203477714Y-74445810D01*
X203572952Y-74493429D01*
X203763429Y-74493429D01*
X203858667Y-74445810D01*
X203906286Y-74398190D01*
X203953905Y-74302952D01*
X196207143Y-84018381D02*
X195873809Y-83542190D01*
X195635714Y-84018381D02*
X195635714Y-83018381D01*
X196016667Y-83018381D01*
X196111905Y-83066000D01*
X196159524Y-83113619D01*
X196207143Y-83208857D01*
X196207143Y-83351714D01*
X196159524Y-83446952D01*
X196111905Y-83494571D01*
X196016667Y-83542190D01*
X195635714Y-83542190D01*
X197111905Y-83018381D02*
X196635714Y-83018381D01*
X196588095Y-83494571D01*
X196635714Y-83446952D01*
X196730952Y-83399333D01*
X196969048Y-83399333D01*
X197064286Y-83446952D01*
X197111905Y-83494571D01*
X197159524Y-83589810D01*
X197159524Y-83827905D01*
X197111905Y-83923143D01*
X197064286Y-83970762D01*
X196969048Y-84018381D01*
X196730952Y-84018381D01*
X196635714Y-83970762D01*
X196588095Y-83923143D01*
X198111905Y-84018381D02*
X197540476Y-84018381D01*
X197826190Y-84018381D02*
X197826190Y-83018381D01*
X197730952Y-83161238D01*
X197635714Y-83256476D01*
X197540476Y-83304095D01*
X195445143Y-90368381D02*
X195111809Y-89892190D01*
X194873714Y-90368381D02*
X194873714Y-89368381D01*
X195254667Y-89368381D01*
X195349905Y-89416000D01*
X195397524Y-89463619D01*
X195445143Y-89558857D01*
X195445143Y-89701714D01*
X195397524Y-89796952D01*
X195349905Y-89844571D01*
X195254667Y-89892190D01*
X194873714Y-89892190D01*
X196349905Y-89368381D02*
X195873714Y-89368381D01*
X195826095Y-89844571D01*
X195873714Y-89796952D01*
X195968952Y-89749333D01*
X196207048Y-89749333D01*
X196302286Y-89796952D01*
X196349905Y-89844571D01*
X196397524Y-89939810D01*
X196397524Y-90177905D01*
X196349905Y-90273143D01*
X196302286Y-90320762D01*
X196207048Y-90368381D01*
X195968952Y-90368381D01*
X195873714Y-90320762D01*
X195826095Y-90273143D01*
X196730857Y-89368381D02*
X197349905Y-89368381D01*
X197016571Y-89749333D01*
X197159429Y-89749333D01*
X197254667Y-89796952D01*
X197302286Y-89844571D01*
X197349905Y-89939810D01*
X197349905Y-90177905D01*
X197302286Y-90273143D01*
X197254667Y-90320762D01*
X197159429Y-90368381D01*
X196873714Y-90368381D01*
X196778476Y-90320762D01*
X196730857Y-90273143D01*
X216781143Y-86304381D02*
X216447809Y-85828190D01*
X216209714Y-86304381D02*
X216209714Y-85304381D01*
X216590667Y-85304381D01*
X216685905Y-85352000D01*
X216733524Y-85399619D01*
X216781143Y-85494857D01*
X216781143Y-85637714D01*
X216733524Y-85732952D01*
X216685905Y-85780571D01*
X216590667Y-85828190D01*
X216209714Y-85828190D01*
X217685905Y-85304381D02*
X217209714Y-85304381D01*
X217162095Y-85780571D01*
X217209714Y-85732952D01*
X217304952Y-85685333D01*
X217543048Y-85685333D01*
X217638286Y-85732952D01*
X217685905Y-85780571D01*
X217733524Y-85875810D01*
X217733524Y-86113905D01*
X217685905Y-86209143D01*
X217638286Y-86256762D01*
X217543048Y-86304381D01*
X217304952Y-86304381D01*
X217209714Y-86256762D01*
X217162095Y-86209143D01*
X218590667Y-85637714D02*
X218590667Y-86304381D01*
X218352571Y-85256762D02*
X218114476Y-85971048D01*
X218733524Y-85971048D01*
X216781143Y-87828381D02*
X216447809Y-87352190D01*
X216209714Y-87828381D02*
X216209714Y-86828381D01*
X216590667Y-86828381D01*
X216685905Y-86876000D01*
X216733524Y-86923619D01*
X216781143Y-87018857D01*
X216781143Y-87161714D01*
X216733524Y-87256952D01*
X216685905Y-87304571D01*
X216590667Y-87352190D01*
X216209714Y-87352190D01*
X217685905Y-86828381D02*
X217209714Y-86828381D01*
X217162095Y-87304571D01*
X217209714Y-87256952D01*
X217304952Y-87209333D01*
X217543048Y-87209333D01*
X217638286Y-87256952D01*
X217685905Y-87304571D01*
X217733524Y-87399810D01*
X217733524Y-87637905D01*
X217685905Y-87733143D01*
X217638286Y-87780762D01*
X217543048Y-87828381D01*
X217304952Y-87828381D01*
X217209714Y-87780762D01*
X217162095Y-87733143D01*
X218638286Y-86828381D02*
X218162095Y-86828381D01*
X218114476Y-87304571D01*
X218162095Y-87256952D01*
X218257333Y-87209333D01*
X218495429Y-87209333D01*
X218590667Y-87256952D01*
X218638286Y-87304571D01*
X218685905Y-87399810D01*
X218685905Y-87637905D01*
X218638286Y-87733143D01*
X218590667Y-87780762D01*
X218495429Y-87828381D01*
X218257333Y-87828381D01*
X218162095Y-87780762D01*
X218114476Y-87733143D01*
X202303143Y-92654381D02*
X201969809Y-92178190D01*
X201731714Y-92654381D02*
X201731714Y-91654381D01*
X202112667Y-91654381D01*
X202207905Y-91702000D01*
X202255524Y-91749619D01*
X202303143Y-91844857D01*
X202303143Y-91987714D01*
X202255524Y-92082952D01*
X202207905Y-92130571D01*
X202112667Y-92178190D01*
X201731714Y-92178190D01*
X203207905Y-91654381D02*
X202731714Y-91654381D01*
X202684095Y-92130571D01*
X202731714Y-92082952D01*
X202826952Y-92035333D01*
X203065048Y-92035333D01*
X203160286Y-92082952D01*
X203207905Y-92130571D01*
X203255524Y-92225810D01*
X203255524Y-92463905D01*
X203207905Y-92559143D01*
X203160286Y-92606762D01*
X203065048Y-92654381D01*
X202826952Y-92654381D01*
X202731714Y-92606762D01*
X202684095Y-92559143D01*
X204112667Y-91654381D02*
X203922190Y-91654381D01*
X203826952Y-91702000D01*
X203779333Y-91749619D01*
X203684095Y-91892476D01*
X203636476Y-92082952D01*
X203636476Y-92463905D01*
X203684095Y-92559143D01*
X203731714Y-92606762D01*
X203826952Y-92654381D01*
X204017429Y-92654381D01*
X204112667Y-92606762D01*
X204160286Y-92559143D01*
X204207905Y-92463905D01*
X204207905Y-92225810D01*
X204160286Y-92130571D01*
X204112667Y-92082952D01*
X204017429Y-92035333D01*
X203826952Y-92035333D01*
X203731714Y-92082952D01*
X203684095Y-92130571D01*
X203636476Y-92225810D01*
X216781143Y-89352381D02*
X216447809Y-88876190D01*
X216209714Y-89352381D02*
X216209714Y-88352381D01*
X216590667Y-88352381D01*
X216685905Y-88400000D01*
X216733524Y-88447619D01*
X216781143Y-88542857D01*
X216781143Y-88685714D01*
X216733524Y-88780952D01*
X216685905Y-88828571D01*
X216590667Y-88876190D01*
X216209714Y-88876190D01*
X217685905Y-88352381D02*
X217209714Y-88352381D01*
X217162095Y-88828571D01*
X217209714Y-88780952D01*
X217304952Y-88733333D01*
X217543048Y-88733333D01*
X217638286Y-88780952D01*
X217685905Y-88828571D01*
X217733524Y-88923810D01*
X217733524Y-89161905D01*
X217685905Y-89257143D01*
X217638286Y-89304762D01*
X217543048Y-89352381D01*
X217304952Y-89352381D01*
X217209714Y-89304762D01*
X217162095Y-89257143D01*
X218066857Y-88352381D02*
X218733524Y-88352381D01*
X218304952Y-89352381D01*
X216781143Y-84780381D02*
X216447809Y-84304190D01*
X216209714Y-84780381D02*
X216209714Y-83780381D01*
X216590667Y-83780381D01*
X216685905Y-83828000D01*
X216733524Y-83875619D01*
X216781143Y-83970857D01*
X216781143Y-84113714D01*
X216733524Y-84208952D01*
X216685905Y-84256571D01*
X216590667Y-84304190D01*
X216209714Y-84304190D01*
X217685905Y-83780381D02*
X217209714Y-83780381D01*
X217162095Y-84256571D01*
X217209714Y-84208952D01*
X217304952Y-84161333D01*
X217543048Y-84161333D01*
X217638286Y-84208952D01*
X217685905Y-84256571D01*
X217733524Y-84351810D01*
X217733524Y-84589905D01*
X217685905Y-84685143D01*
X217638286Y-84732762D01*
X217543048Y-84780381D01*
X217304952Y-84780381D01*
X217209714Y-84732762D01*
X217162095Y-84685143D01*
X218304952Y-84208952D02*
X218209714Y-84161333D01*
X218162095Y-84113714D01*
X218114476Y-84018476D01*
X218114476Y-83970857D01*
X218162095Y-83875619D01*
X218209714Y-83828000D01*
X218304952Y-83780381D01*
X218495429Y-83780381D01*
X218590667Y-83828000D01*
X218638286Y-83875619D01*
X218685905Y-83970857D01*
X218685905Y-84018476D01*
X218638286Y-84113714D01*
X218590667Y-84161333D01*
X218495429Y-84208952D01*
X218304952Y-84208952D01*
X218209714Y-84256571D01*
X218162095Y-84304190D01*
X218114476Y-84399429D01*
X218114476Y-84589905D01*
X218162095Y-84685143D01*
X218209714Y-84732762D01*
X218304952Y-84780381D01*
X218495429Y-84780381D01*
X218590667Y-84732762D01*
X218638286Y-84685143D01*
X218685905Y-84589905D01*
X218685905Y-84399429D01*
X218638286Y-84304190D01*
X218590667Y-84256571D01*
X218495429Y-84208952D01*
X213304381Y-138310857D02*
X212828190Y-138644191D01*
X213304381Y-138882286D02*
X212304381Y-138882286D01*
X212304381Y-138501333D01*
X212352000Y-138406095D01*
X212399619Y-138358476D01*
X212494857Y-138310857D01*
X212637714Y-138310857D01*
X212732952Y-138358476D01*
X212780571Y-138406095D01*
X212828190Y-138501333D01*
X212828190Y-138882286D01*
X212304381Y-137406095D02*
X212304381Y-137882286D01*
X212780571Y-137929905D01*
X212732952Y-137882286D01*
X212685333Y-137787048D01*
X212685333Y-137548952D01*
X212732952Y-137453714D01*
X212780571Y-137406095D01*
X212875810Y-137358476D01*
X213113905Y-137358476D01*
X213209143Y-137406095D01*
X213256762Y-137453714D01*
X213304381Y-137548952D01*
X213304381Y-137787048D01*
X213256762Y-137882286D01*
X213209143Y-137929905D01*
X213304381Y-136882286D02*
X213304381Y-136691810D01*
X213256762Y-136596571D01*
X213209143Y-136548952D01*
X213066286Y-136453714D01*
X212875810Y-136406095D01*
X212494857Y-136406095D01*
X212399619Y-136453714D01*
X212352000Y-136501333D01*
X212304381Y-136596571D01*
X212304381Y-136787048D01*
X212352000Y-136882286D01*
X212399619Y-136929905D01*
X212494857Y-136977524D01*
X212732952Y-136977524D01*
X212828190Y-136929905D01*
X212875810Y-136882286D01*
X212923429Y-136787048D01*
X212923429Y-136596571D01*
X212875810Y-136501333D01*
X212828190Y-136453714D01*
X212732952Y-136406095D01*
X201366381Y-138056857D02*
X200890190Y-138390191D01*
X201366381Y-138628286D02*
X200366381Y-138628286D01*
X200366381Y-138247333D01*
X200414000Y-138152095D01*
X200461619Y-138104476D01*
X200556857Y-138056857D01*
X200699714Y-138056857D01*
X200794952Y-138104476D01*
X200842571Y-138152095D01*
X200890190Y-138247333D01*
X200890190Y-138628286D01*
X200366381Y-137199714D02*
X200366381Y-137390191D01*
X200414000Y-137485429D01*
X200461619Y-137533048D01*
X200604476Y-137628286D01*
X200794952Y-137675905D01*
X201175905Y-137675905D01*
X201271143Y-137628286D01*
X201318762Y-137580667D01*
X201366381Y-137485429D01*
X201366381Y-137294952D01*
X201318762Y-137199714D01*
X201271143Y-137152095D01*
X201175905Y-137104476D01*
X200937810Y-137104476D01*
X200842571Y-137152095D01*
X200794952Y-137199714D01*
X200747333Y-137294952D01*
X200747333Y-137485429D01*
X200794952Y-137580667D01*
X200842571Y-137628286D01*
X200937810Y-137675905D01*
X200366381Y-136485429D02*
X200366381Y-136390190D01*
X200414000Y-136294952D01*
X200461619Y-136247333D01*
X200556857Y-136199714D01*
X200747333Y-136152095D01*
X200985429Y-136152095D01*
X201175905Y-136199714D01*
X201271143Y-136247333D01*
X201318762Y-136294952D01*
X201366381Y-136390190D01*
X201366381Y-136485429D01*
X201318762Y-136580667D01*
X201271143Y-136628286D01*
X201175905Y-136675905D01*
X200985429Y-136723524D01*
X200747333Y-136723524D01*
X200556857Y-136675905D01*
X200461619Y-136628286D01*
X200414000Y-136580667D01*
X200366381Y-136485429D01*
X210256381Y-138310857D02*
X209780190Y-138644191D01*
X210256381Y-138882286D02*
X209256381Y-138882286D01*
X209256381Y-138501333D01*
X209304000Y-138406095D01*
X209351619Y-138358476D01*
X209446857Y-138310857D01*
X209589714Y-138310857D01*
X209684952Y-138358476D01*
X209732571Y-138406095D01*
X209780190Y-138501333D01*
X209780190Y-138882286D01*
X209256381Y-137453714D02*
X209256381Y-137644191D01*
X209304000Y-137739429D01*
X209351619Y-137787048D01*
X209494476Y-137882286D01*
X209684952Y-137929905D01*
X210065905Y-137929905D01*
X210161143Y-137882286D01*
X210208762Y-137834667D01*
X210256381Y-137739429D01*
X210256381Y-137548952D01*
X210208762Y-137453714D01*
X210161143Y-137406095D01*
X210065905Y-137358476D01*
X209827810Y-137358476D01*
X209732571Y-137406095D01*
X209684952Y-137453714D01*
X209637333Y-137548952D01*
X209637333Y-137739429D01*
X209684952Y-137834667D01*
X209732571Y-137882286D01*
X209827810Y-137929905D01*
X210256381Y-136406095D02*
X210256381Y-136977524D01*
X210256381Y-136691810D02*
X209256381Y-136691810D01*
X209399238Y-136787048D01*
X209494476Y-136882286D01*
X209542095Y-136977524D01*
X198318381Y-138056857D02*
X197842190Y-138390191D01*
X198318381Y-138628286D02*
X197318381Y-138628286D01*
X197318381Y-138247333D01*
X197366000Y-138152095D01*
X197413619Y-138104476D01*
X197508857Y-138056857D01*
X197651714Y-138056857D01*
X197746952Y-138104476D01*
X197794571Y-138152095D01*
X197842190Y-138247333D01*
X197842190Y-138628286D01*
X197318381Y-137199714D02*
X197318381Y-137390191D01*
X197366000Y-137485429D01*
X197413619Y-137533048D01*
X197556476Y-137628286D01*
X197746952Y-137675905D01*
X198127905Y-137675905D01*
X198223143Y-137628286D01*
X198270762Y-137580667D01*
X198318381Y-137485429D01*
X198318381Y-137294952D01*
X198270762Y-137199714D01*
X198223143Y-137152095D01*
X198127905Y-137104476D01*
X197889810Y-137104476D01*
X197794571Y-137152095D01*
X197746952Y-137199714D01*
X197699333Y-137294952D01*
X197699333Y-137485429D01*
X197746952Y-137580667D01*
X197794571Y-137628286D01*
X197889810Y-137675905D01*
X197413619Y-136723524D02*
X197366000Y-136675905D01*
X197318381Y-136580667D01*
X197318381Y-136342571D01*
X197366000Y-136247333D01*
X197413619Y-136199714D01*
X197508857Y-136152095D01*
X197604095Y-136152095D01*
X197746952Y-136199714D01*
X198318381Y-136771143D01*
X198318381Y-136152095D01*
X253847714Y-40998857D02*
X253847714Y-41970286D01*
X253904857Y-42084571D01*
X253962000Y-42141714D01*
X254076286Y-42198857D01*
X254304857Y-42198857D01*
X254419143Y-42141714D01*
X254476286Y-42084571D01*
X254533429Y-41970286D01*
X254533429Y-40998857D01*
X255047714Y-41113143D02*
X255104857Y-41056000D01*
X255219143Y-40998857D01*
X255504857Y-40998857D01*
X255619143Y-41056000D01*
X255676286Y-41113143D01*
X255733429Y-41227429D01*
X255733429Y-41341714D01*
X255676286Y-41513143D01*
X254990572Y-42198857D01*
X255733429Y-42198857D01*
X201168095Y-80478381D02*
X201168095Y-81287905D01*
X201215714Y-81383143D01*
X201263333Y-81430762D01*
X201358571Y-81478381D01*
X201549048Y-81478381D01*
X201644286Y-81430762D01*
X201691905Y-81383143D01*
X201739524Y-81287905D01*
X201739524Y-80478381D01*
X202120476Y-80478381D02*
X202787143Y-80478381D01*
X202358571Y-81478381D01*
X203862381Y-141985905D02*
X204671905Y-141985905D01*
X204767143Y-141938286D01*
X204814762Y-141890667D01*
X204862381Y-141795429D01*
X204862381Y-141604952D01*
X204814762Y-141509714D01*
X204767143Y-141462095D01*
X204671905Y-141414476D01*
X203862381Y-141414476D01*
X204290952Y-140795429D02*
X204243333Y-140890667D01*
X204195714Y-140938286D01*
X204100476Y-140985905D01*
X204052857Y-140985905D01*
X203957619Y-140938286D01*
X203910000Y-140890667D01*
X203862381Y-140795429D01*
X203862381Y-140604952D01*
X203910000Y-140509714D01*
X203957619Y-140462095D01*
X204052857Y-140414476D01*
X204100476Y-140414476D01*
X204195714Y-140462095D01*
X204243333Y-140509714D01*
X204290952Y-140604952D01*
X204290952Y-140795429D01*
X204338571Y-140890667D01*
X204386190Y-140938286D01*
X204481429Y-140985905D01*
X204671905Y-140985905D01*
X204767143Y-140938286D01*
X204814762Y-140890667D01*
X204862381Y-140795429D01*
X204862381Y-140604952D01*
X204814762Y-140509714D01*
X204767143Y-140462095D01*
X204671905Y-140414476D01*
X204481429Y-140414476D01*
X204386190Y-140462095D01*
X204338571Y-140509714D01*
X204290952Y-140604952D01*
X237513905Y-14422381D02*
X237513905Y-13422381D01*
X237752000Y-13422381D01*
X237894858Y-13470000D01*
X237990096Y-13565238D01*
X238037715Y-13660476D01*
X238085334Y-13850952D01*
X238085334Y-13993810D01*
X238037715Y-14184286D01*
X237990096Y-14279524D01*
X237894858Y-14374762D01*
X237752000Y-14422381D01*
X237513905Y-14422381D01*
X239037715Y-14422381D02*
X238466286Y-14422381D01*
X238752000Y-14422381D02*
X238752000Y-13422381D01*
X238656762Y-13565238D01*
X238561524Y-13660476D01*
X238466286Y-13708095D01*
X229131905Y-14422381D02*
X229131905Y-13422381D01*
X229370000Y-13422381D01*
X229512858Y-13470000D01*
X229608096Y-13565238D01*
X229655715Y-13660476D01*
X229703334Y-13850952D01*
X229703334Y-13993810D01*
X229655715Y-14184286D01*
X229608096Y-14279524D01*
X229512858Y-14374762D01*
X229370000Y-14422381D01*
X229131905Y-14422381D01*
X230084286Y-13517619D02*
X230131905Y-13470000D01*
X230227143Y-13422381D01*
X230465239Y-13422381D01*
X230560477Y-13470000D01*
X230608096Y-13517619D01*
X230655715Y-13612857D01*
X230655715Y-13708095D01*
X230608096Y-13850952D01*
X230036667Y-14422381D01*
X230655715Y-14422381D01*
X220749905Y-14422381D02*
X220749905Y-13422381D01*
X220988000Y-13422381D01*
X221130858Y-13470000D01*
X221226096Y-13565238D01*
X221273715Y-13660476D01*
X221321334Y-13850952D01*
X221321334Y-13993810D01*
X221273715Y-14184286D01*
X221226096Y-14279524D01*
X221130858Y-14374762D01*
X220988000Y-14422381D01*
X220749905Y-14422381D01*
X221654667Y-13422381D02*
X222273715Y-13422381D01*
X221940381Y-13803333D01*
X222083239Y-13803333D01*
X222178477Y-13850952D01*
X222226096Y-13898571D01*
X222273715Y-13993810D01*
X222273715Y-14231905D01*
X222226096Y-14327143D01*
X222178477Y-14374762D01*
X222083239Y-14422381D01*
X221797524Y-14422381D01*
X221702286Y-14374762D01*
X221654667Y-14327143D01*
X212367905Y-14422381D02*
X212367905Y-13422381D01*
X212606000Y-13422381D01*
X212748858Y-13470000D01*
X212844096Y-13565238D01*
X212891715Y-13660476D01*
X212939334Y-13850952D01*
X212939334Y-13993810D01*
X212891715Y-14184286D01*
X212844096Y-14279524D01*
X212748858Y-14374762D01*
X212606000Y-14422381D01*
X212367905Y-14422381D01*
X213796477Y-13755714D02*
X213796477Y-14422381D01*
X213558381Y-13374762D02*
X213320286Y-14089048D01*
X213939334Y-14089048D01*
X203985905Y-14422381D02*
X203985905Y-13422381D01*
X204224000Y-13422381D01*
X204366858Y-13470000D01*
X204462096Y-13565238D01*
X204509715Y-13660476D01*
X204557334Y-13850952D01*
X204557334Y-13993810D01*
X204509715Y-14184286D01*
X204462096Y-14279524D01*
X204366858Y-14374762D01*
X204224000Y-14422381D01*
X203985905Y-14422381D01*
X205462096Y-13422381D02*
X204985905Y-13422381D01*
X204938286Y-13898571D01*
X204985905Y-13850952D01*
X205081143Y-13803333D01*
X205319239Y-13803333D01*
X205414477Y-13850952D01*
X205462096Y-13898571D01*
X205509715Y-13993810D01*
X205509715Y-14231905D01*
X205462096Y-14327143D01*
X205414477Y-14374762D01*
X205319239Y-14422381D01*
X205081143Y-14422381D01*
X204985905Y-14374762D01*
X204938286Y-14327143D01*
X205706381Y-32511905D02*
X206515905Y-32511905D01*
X206611143Y-32464286D01*
X206658762Y-32416667D01*
X206706381Y-32321429D01*
X206706381Y-32130952D01*
X206658762Y-32035714D01*
X206611143Y-31988095D01*
X206515905Y-31940476D01*
X205706381Y-31940476D01*
X206706381Y-30940476D02*
X206706381Y-31511905D01*
X206706381Y-31226191D02*
X205706381Y-31226191D01*
X205849238Y-31321429D01*
X205944476Y-31416667D01*
X205992095Y-31511905D01*
X268509809Y-34012190D02*
X268509809Y-34488381D01*
X268176476Y-33488381D02*
X268509809Y-34012190D01*
X268843143Y-33488381D01*
X269700286Y-34488381D02*
X269128857Y-34488381D01*
X269414571Y-34488381D02*
X269414571Y-33488381D01*
X269319333Y-33631238D01*
X269224095Y-33726476D01*
X269128857Y-33774095D01*
X217455809Y-115286190D02*
X217455809Y-115762381D01*
X217122476Y-114762381D02*
X217455809Y-115286190D01*
X217789143Y-114762381D01*
X218074857Y-114857619D02*
X218122476Y-114810000D01*
X218217714Y-114762381D01*
X218455810Y-114762381D01*
X218551048Y-114810000D01*
X218598667Y-114857619D01*
X218646286Y-114952857D01*
X218646286Y-115048095D01*
X218598667Y-115190952D01*
X218027238Y-115762381D01*
X218646286Y-115762381D01*
X195857905Y-88590381D02*
X195857905Y-87590381D01*
X196096000Y-87590381D01*
X196238858Y-87638000D01*
X196334096Y-87733238D01*
X196381715Y-87828476D01*
X196429334Y-88018952D01*
X196429334Y-88161810D01*
X196381715Y-88352286D01*
X196334096Y-88447524D01*
X196238858Y-88542762D01*
X196096000Y-88590381D01*
X195857905Y-88590381D01*
X197286477Y-87590381D02*
X197096000Y-87590381D01*
X197000762Y-87638000D01*
X196953143Y-87685619D01*
X196857905Y-87828476D01*
X196810286Y-88018952D01*
X196810286Y-88399905D01*
X196857905Y-88495143D01*
X196905524Y-88542762D01*
X197000762Y-88590381D01*
X197191239Y-88590381D01*
X197286477Y-88542762D01*
X197334096Y-88495143D01*
X197381715Y-88399905D01*
X197381715Y-88161810D01*
X197334096Y-88066571D01*
X197286477Y-88018952D01*
X197191239Y-87971333D01*
X197000762Y-87971333D01*
X196905524Y-88018952D01*
X196857905Y-88066571D01*
X196810286Y-88161810D01*
X268398667Y-106596381D02*
X268398667Y-107310667D01*
X268351047Y-107453524D01*
X268255809Y-107548762D01*
X268112952Y-107596381D01*
X268017714Y-107596381D01*
X269398667Y-107596381D02*
X268827238Y-107596381D01*
X269112952Y-107596381D02*
X269112952Y-106596381D01*
X269017714Y-106739238D01*
X268922476Y-106834476D01*
X268827238Y-106882095D01*
X264842667Y-106596381D02*
X264842667Y-107310667D01*
X264795047Y-107453524D01*
X264699809Y-107548762D01*
X264556952Y-107596381D01*
X264461714Y-107596381D01*
X265271238Y-106691619D02*
X265318857Y-106644000D01*
X265414095Y-106596381D01*
X265652191Y-106596381D01*
X265747429Y-106644000D01*
X265795048Y-106691619D01*
X265842667Y-106786857D01*
X265842667Y-106882095D01*
X265795048Y-107024952D01*
X265223619Y-107596381D01*
X265842667Y-107596381D01*
X269922667Y-29468381D02*
X269922667Y-30182667D01*
X269875047Y-30325524D01*
X269779809Y-30420762D01*
X269636952Y-30468381D01*
X269541714Y-30468381D01*
X270303619Y-29468381D02*
X270922667Y-29468381D01*
X270589333Y-29849333D01*
X270732191Y-29849333D01*
X270827429Y-29896952D01*
X270875048Y-29944571D01*
X270922667Y-30039810D01*
X270922667Y-30277905D01*
X270875048Y-30373143D01*
X270827429Y-30420762D01*
X270732191Y-30468381D01*
X270446476Y-30468381D01*
X270351238Y-30420762D01*
X270303619Y-30373143D01*
X234108667Y-109942381D02*
X234108667Y-110656667D01*
X234061047Y-110799524D01*
X233965809Y-110894762D01*
X233822952Y-110942381D01*
X233727714Y-110942381D01*
X235013429Y-110275714D02*
X235013429Y-110942381D01*
X234775333Y-109894762D02*
X234537238Y-110609048D01*
X235156286Y-110609048D01*
X266366667Y-29468381D02*
X266366667Y-30182667D01*
X266319047Y-30325524D01*
X266223809Y-30420762D01*
X266080952Y-30468381D01*
X265985714Y-30468381D01*
X267319048Y-29468381D02*
X266842857Y-29468381D01*
X266795238Y-29944571D01*
X266842857Y-29896952D01*
X266938095Y-29849333D01*
X267176191Y-29849333D01*
X267271429Y-29896952D01*
X267319048Y-29944571D01*
X267366667Y-30039810D01*
X267366667Y-30277905D01*
X267319048Y-30373143D01*
X267271429Y-30420762D01*
X267176191Y-30468381D01*
X266938095Y-30468381D01*
X266842857Y-30420762D01*
X266795238Y-30373143D01*
X205914667Y-131234381D02*
X205914667Y-131948667D01*
X205867047Y-132091524D01*
X205771809Y-132186762D01*
X205628952Y-132234381D01*
X205533714Y-132234381D01*
X206819429Y-131234381D02*
X206628952Y-131234381D01*
X206533714Y-131282000D01*
X206486095Y-131329619D01*
X206390857Y-131472476D01*
X206343238Y-131662952D01*
X206343238Y-132043905D01*
X206390857Y-132139143D01*
X206438476Y-132186762D01*
X206533714Y-132234381D01*
X206724191Y-132234381D01*
X206819429Y-132186762D01*
X206867048Y-132139143D01*
X206914667Y-132043905D01*
X206914667Y-131805810D01*
X206867048Y-131710571D01*
X206819429Y-131662952D01*
X206724191Y-131615333D01*
X206533714Y-131615333D01*
X206438476Y-131662952D01*
X206390857Y-131710571D01*
X206343238Y-131805810D01*
X257730667Y-106596381D02*
X257730667Y-107310667D01*
X257683047Y-107453524D01*
X257587809Y-107548762D01*
X257444952Y-107596381D01*
X257349714Y-107596381D01*
X258111619Y-106596381D02*
X258778286Y-106596381D01*
X258349714Y-107596381D01*
X195246667Y-131234381D02*
X195246667Y-131948667D01*
X195199047Y-132091524D01*
X195103809Y-132186762D01*
X194960952Y-132234381D01*
X194865714Y-132234381D01*
X195865714Y-131662952D02*
X195770476Y-131615333D01*
X195722857Y-131567714D01*
X195675238Y-131472476D01*
X195675238Y-131424857D01*
X195722857Y-131329619D01*
X195770476Y-131282000D01*
X195865714Y-131234381D01*
X196056191Y-131234381D01*
X196151429Y-131282000D01*
X196199048Y-131329619D01*
X196246667Y-131424857D01*
X196246667Y-131472476D01*
X196199048Y-131567714D01*
X196151429Y-131615333D01*
X196056191Y-131662952D01*
X195865714Y-131662952D01*
X195770476Y-131710571D01*
X195722857Y-131758190D01*
X195675238Y-131853429D01*
X195675238Y-132043905D01*
X195722857Y-132139143D01*
X195770476Y-132186762D01*
X195865714Y-132234381D01*
X196056191Y-132234381D01*
X196151429Y-132186762D01*
X196199048Y-132139143D01*
X196246667Y-132043905D01*
X196246667Y-131853429D01*
X196199048Y-131758190D01*
X196151429Y-131710571D01*
X196056191Y-131662952D01*
X202358667Y-131234381D02*
X202358667Y-131948667D01*
X202311047Y-132091524D01*
X202215809Y-132186762D01*
X202072952Y-132234381D01*
X201977714Y-132234381D01*
X202882476Y-132234381D02*
X203072952Y-132234381D01*
X203168191Y-132186762D01*
X203215810Y-132139143D01*
X203311048Y-131996286D01*
X203358667Y-131805810D01*
X203358667Y-131424857D01*
X203311048Y-131329619D01*
X203263429Y-131282000D01*
X203168191Y-131234381D01*
X202977714Y-131234381D01*
X202882476Y-131282000D01*
X202834857Y-131329619D01*
X202787238Y-131424857D01*
X202787238Y-131662952D01*
X202834857Y-131758190D01*
X202882476Y-131805810D01*
X202977714Y-131853429D01*
X203168191Y-131853429D01*
X203263429Y-131805810D01*
X203311048Y-131758190D01*
X203358667Y-131662952D01*
X260810477Y-106596381D02*
X260810477Y-107310667D01*
X260762857Y-107453524D01*
X260667619Y-107548762D01*
X260524762Y-107596381D01*
X260429524Y-107596381D01*
X261810477Y-107596381D02*
X261239048Y-107596381D01*
X261524762Y-107596381D02*
X261524762Y-106596381D01*
X261429524Y-106739238D01*
X261334286Y-106834476D01*
X261239048Y-106882095D01*
X262429524Y-106596381D02*
X262524763Y-106596381D01*
X262620001Y-106644000D01*
X262667620Y-106691619D01*
X262715239Y-106786857D01*
X262762858Y-106977333D01*
X262762858Y-107215429D01*
X262715239Y-107405905D01*
X262667620Y-107501143D01*
X262620001Y-107548762D01*
X262524763Y-107596381D01*
X262429524Y-107596381D01*
X262334286Y-107548762D01*
X262286667Y-107501143D01*
X262239048Y-107405905D01*
X262191429Y-107215429D01*
X262191429Y-106977333D01*
X262239048Y-106786857D01*
X262286667Y-106691619D01*
X262334286Y-106644000D01*
X262429524Y-106596381D01*
X187658477Y-138346381D02*
X187658477Y-139060667D01*
X187610857Y-139203524D01*
X187515619Y-139298762D01*
X187372762Y-139346381D01*
X187277524Y-139346381D01*
X188658477Y-139346381D02*
X188087048Y-139346381D01*
X188372762Y-139346381D02*
X188372762Y-138346381D01*
X188277524Y-138489238D01*
X188182286Y-138584476D01*
X188087048Y-138632095D01*
X189610858Y-139346381D02*
X189039429Y-139346381D01*
X189325143Y-139346381D02*
X189325143Y-138346381D01*
X189229905Y-138489238D01*
X189134667Y-138584476D01*
X189039429Y-138632095D01*
X211788477Y-59860381D02*
X211788477Y-60574667D01*
X211740857Y-60717524D01*
X211645619Y-60812762D01*
X211502762Y-60860381D01*
X211407524Y-60860381D01*
X212788477Y-60860381D02*
X212217048Y-60860381D01*
X212502762Y-60860381D02*
X212502762Y-59860381D01*
X212407524Y-60003238D01*
X212312286Y-60098476D01*
X212217048Y-60146095D01*
X213169429Y-59955619D02*
X213217048Y-59908000D01*
X213312286Y-59860381D01*
X213550382Y-59860381D01*
X213645620Y-59908000D01*
X213693239Y-59955619D01*
X213740858Y-60050857D01*
X213740858Y-60146095D01*
X213693239Y-60288952D01*
X213121810Y-60860381D01*
X213740858Y-60860381D01*
X232362477Y-119594381D02*
X232362477Y-120308667D01*
X232314857Y-120451524D01*
X232219619Y-120546762D01*
X232076762Y-120594381D01*
X231981524Y-120594381D01*
X233362477Y-120594381D02*
X232791048Y-120594381D01*
X233076762Y-120594381D02*
X233076762Y-119594381D01*
X232981524Y-119737238D01*
X232886286Y-119832476D01*
X232791048Y-119880095D01*
X233695810Y-119594381D02*
X234314858Y-119594381D01*
X233981524Y-119975333D01*
X234124382Y-119975333D01*
X234219620Y-120022952D01*
X234267239Y-120070571D01*
X234314858Y-120165810D01*
X234314858Y-120403905D01*
X234267239Y-120499143D01*
X234219620Y-120546762D01*
X234124382Y-120594381D01*
X233838667Y-120594381D01*
X233743429Y-120546762D01*
X233695810Y-120499143D01*
X262334477Y-29678381D02*
X262334477Y-30392667D01*
X262286857Y-30535524D01*
X262191619Y-30630762D01*
X262048762Y-30678381D01*
X261953524Y-30678381D01*
X263334477Y-30678381D02*
X262763048Y-30678381D01*
X263048762Y-30678381D02*
X263048762Y-29678381D01*
X262953524Y-29821238D01*
X262858286Y-29916476D01*
X262763048Y-29964095D01*
X264191620Y-30011714D02*
X264191620Y-30678381D01*
X263953524Y-29630762D02*
X263715429Y-30345048D01*
X264334477Y-30345048D01*
X208994477Y-131234381D02*
X208994477Y-131948667D01*
X208946857Y-132091524D01*
X208851619Y-132186762D01*
X208708762Y-132234381D01*
X208613524Y-132234381D01*
X209994477Y-132234381D02*
X209423048Y-132234381D01*
X209708762Y-132234381D02*
X209708762Y-131234381D01*
X209613524Y-131377238D01*
X209518286Y-131472476D01*
X209423048Y-131520095D01*
X210899239Y-131234381D02*
X210423048Y-131234381D01*
X210375429Y-131710571D01*
X210423048Y-131662952D01*
X210518286Y-131615333D01*
X210756382Y-131615333D01*
X210851620Y-131662952D01*
X210899239Y-131710571D01*
X210946858Y-131805810D01*
X210946858Y-132043905D01*
X210899239Y-132139143D01*
X210851620Y-132186762D01*
X210756382Y-132234381D01*
X210518286Y-132234381D01*
X210423048Y-132186762D01*
X210375429Y-132139143D01*
X199850477Y-145966381D02*
X199850477Y-146680667D01*
X199802857Y-146823524D01*
X199707619Y-146918762D01*
X199564762Y-146966381D01*
X199469524Y-146966381D01*
X200850477Y-146966381D02*
X200279048Y-146966381D01*
X200564762Y-146966381D02*
X200564762Y-145966381D01*
X200469524Y-146109238D01*
X200374286Y-146204476D01*
X200279048Y-146252095D01*
X201707620Y-145966381D02*
X201517143Y-145966381D01*
X201421905Y-146014000D01*
X201374286Y-146061619D01*
X201279048Y-146204476D01*
X201231429Y-146394952D01*
X201231429Y-146775905D01*
X201279048Y-146871143D01*
X201326667Y-146918762D01*
X201421905Y-146966381D01*
X201612382Y-146966381D01*
X201707620Y-146918762D01*
X201755239Y-146871143D01*
X201802858Y-146775905D01*
X201802858Y-146537810D01*
X201755239Y-146442571D01*
X201707620Y-146394952D01*
X201612382Y-146347333D01*
X201421905Y-146347333D01*
X201326667Y-146394952D01*
X201279048Y-146442571D01*
X201231429Y-146537810D01*
X232767143Y-48902857D02*
X232814762Y-48950476D01*
X232862381Y-49093333D01*
X232862381Y-49188571D01*
X232814762Y-49331429D01*
X232719524Y-49426667D01*
X232624286Y-49474286D01*
X232433810Y-49521905D01*
X232290952Y-49521905D01*
X232100476Y-49474286D01*
X232005238Y-49426667D01*
X231910000Y-49331429D01*
X231862381Y-49188571D01*
X231862381Y-49093333D01*
X231910000Y-48950476D01*
X231957619Y-48902857D01*
X231957619Y-48521905D02*
X231910000Y-48474286D01*
X231862381Y-48379048D01*
X231862381Y-48140952D01*
X231910000Y-48045714D01*
X231957619Y-47998095D01*
X232052857Y-47950476D01*
X232148095Y-47950476D01*
X232290952Y-47998095D01*
X232862381Y-48569524D01*
X232862381Y-47950476D01*
X232195714Y-47093333D02*
X232862381Y-47093333D01*
X231814762Y-47331429D02*
X232529048Y-47569524D01*
X232529048Y-46950476D01*
X233545143Y-36679143D02*
X233497524Y-36726762D01*
X233354667Y-36774381D01*
X233259429Y-36774381D01*
X233116571Y-36726762D01*
X233021333Y-36631524D01*
X232973714Y-36536286D01*
X232926095Y-36345810D01*
X232926095Y-36202952D01*
X232973714Y-36012476D01*
X233021333Y-35917238D01*
X233116571Y-35822000D01*
X233259429Y-35774381D01*
X233354667Y-35774381D01*
X233497524Y-35822000D01*
X233545143Y-35869619D01*
X233926095Y-35869619D02*
X233973714Y-35822000D01*
X234068952Y-35774381D01*
X234307048Y-35774381D01*
X234402286Y-35822000D01*
X234449905Y-35869619D01*
X234497524Y-35964857D01*
X234497524Y-36060095D01*
X234449905Y-36202952D01*
X233878476Y-36774381D01*
X234497524Y-36774381D01*
X235402286Y-35774381D02*
X234926095Y-35774381D01*
X234878476Y-36250571D01*
X234926095Y-36202952D01*
X235021333Y-36155333D01*
X235259429Y-36155333D01*
X235354667Y-36202952D01*
X235402286Y-36250571D01*
X235449905Y-36345810D01*
X235449905Y-36583905D01*
X235402286Y-36679143D01*
X235354667Y-36726762D01*
X235259429Y-36774381D01*
X235021333Y-36774381D01*
X234926095Y-36726762D01*
X234878476Y-36679143D01*
X229227143Y-47601143D02*
X229179524Y-47648762D01*
X229036667Y-47696381D01*
X228941429Y-47696381D01*
X228798571Y-47648762D01*
X228703333Y-47553524D01*
X228655714Y-47458286D01*
X228608095Y-47267810D01*
X228608095Y-47124952D01*
X228655714Y-46934476D01*
X228703333Y-46839238D01*
X228798571Y-46744000D01*
X228941429Y-46696381D01*
X229036667Y-46696381D01*
X229179524Y-46744000D01*
X229227143Y-46791619D01*
X229608095Y-46791619D02*
X229655714Y-46744000D01*
X229750952Y-46696381D01*
X229989048Y-46696381D01*
X230084286Y-46744000D01*
X230131905Y-46791619D01*
X230179524Y-46886857D01*
X230179524Y-46982095D01*
X230131905Y-47124952D01*
X229560476Y-47696381D01*
X230179524Y-47696381D01*
X231036667Y-46696381D02*
X230846190Y-46696381D01*
X230750952Y-46744000D01*
X230703333Y-46791619D01*
X230608095Y-46934476D01*
X230560476Y-47124952D01*
X230560476Y-47505905D01*
X230608095Y-47601143D01*
X230655714Y-47648762D01*
X230750952Y-47696381D01*
X230941429Y-47696381D01*
X231036667Y-47648762D01*
X231084286Y-47601143D01*
X231131905Y-47505905D01*
X231131905Y-47267810D01*
X231084286Y-47172571D01*
X231036667Y-47124952D01*
X230941429Y-47077333D01*
X230750952Y-47077333D01*
X230655714Y-47124952D01*
X230608095Y-47172571D01*
X230560476Y-47267810D01*
X195699143Y-47855143D02*
X195651524Y-47902762D01*
X195508667Y-47950381D01*
X195413429Y-47950381D01*
X195270571Y-47902762D01*
X195175333Y-47807524D01*
X195127714Y-47712286D01*
X195080095Y-47521810D01*
X195080095Y-47378952D01*
X195127714Y-47188476D01*
X195175333Y-47093238D01*
X195270571Y-46998000D01*
X195413429Y-46950381D01*
X195508667Y-46950381D01*
X195651524Y-46998000D01*
X195699143Y-47045619D01*
X196080095Y-47045619D02*
X196127714Y-46998000D01*
X196222952Y-46950381D01*
X196461048Y-46950381D01*
X196556286Y-46998000D01*
X196603905Y-47045619D01*
X196651524Y-47140857D01*
X196651524Y-47236095D01*
X196603905Y-47378952D01*
X196032476Y-47950381D01*
X196651524Y-47950381D01*
X197222952Y-47378952D02*
X197127714Y-47331333D01*
X197080095Y-47283714D01*
X197032476Y-47188476D01*
X197032476Y-47140857D01*
X197080095Y-47045619D01*
X197127714Y-46998000D01*
X197222952Y-46950381D01*
X197413429Y-46950381D01*
X197508667Y-46998000D01*
X197556286Y-47045619D01*
X197603905Y-47140857D01*
X197603905Y-47188476D01*
X197556286Y-47283714D01*
X197508667Y-47331333D01*
X197413429Y-47378952D01*
X197222952Y-47378952D01*
X197127714Y-47426571D01*
X197080095Y-47474190D01*
X197032476Y-47569429D01*
X197032476Y-47759905D01*
X197080095Y-47855143D01*
X197127714Y-47902762D01*
X197222952Y-47950381D01*
X197413429Y-47950381D01*
X197508667Y-47902762D01*
X197556286Y-47855143D01*
X197603905Y-47759905D01*
X197603905Y-47569429D01*
X197556286Y-47474190D01*
X197508667Y-47426571D01*
X197413429Y-47378952D01*
X188845143Y-59824857D02*
X188892762Y-59872476D01*
X188940381Y-60015333D01*
X188940381Y-60110571D01*
X188892762Y-60253429D01*
X188797524Y-60348667D01*
X188702286Y-60396286D01*
X188511810Y-60443905D01*
X188368952Y-60443905D01*
X188178476Y-60396286D01*
X188083238Y-60348667D01*
X187988000Y-60253429D01*
X187940381Y-60110571D01*
X187940381Y-60015333D01*
X187988000Y-59872476D01*
X188035619Y-59824857D01*
X188035619Y-59443905D02*
X187988000Y-59396286D01*
X187940381Y-59301048D01*
X187940381Y-59062952D01*
X187988000Y-58967714D01*
X188035619Y-58920095D01*
X188130857Y-58872476D01*
X188226095Y-58872476D01*
X188368952Y-58920095D01*
X188940381Y-59491524D01*
X188940381Y-58872476D01*
X188940381Y-58396286D02*
X188940381Y-58205810D01*
X188892762Y-58110571D01*
X188845143Y-58062952D01*
X188702286Y-57967714D01*
X188511810Y-57920095D01*
X188130857Y-57920095D01*
X188035619Y-57967714D01*
X187988000Y-58015333D01*
X187940381Y-58110571D01*
X187940381Y-58301048D01*
X187988000Y-58396286D01*
X188035619Y-58443905D01*
X188130857Y-58491524D01*
X188368952Y-58491524D01*
X188464190Y-58443905D01*
X188511810Y-58396286D01*
X188559429Y-58301048D01*
X188559429Y-58110571D01*
X188511810Y-58015333D01*
X188464190Y-57967714D01*
X188368952Y-57920095D01*
X197635905Y-108656381D02*
X197635905Y-107656381D01*
X197874000Y-107656381D01*
X198016858Y-107704000D01*
X198112096Y-107799238D01*
X198159715Y-107894476D01*
X198207334Y-108084952D01*
X198207334Y-108227810D01*
X198159715Y-108418286D01*
X198112096Y-108513524D01*
X198016858Y-108608762D01*
X197874000Y-108656381D01*
X197635905Y-108656381D01*
X198778762Y-108084952D02*
X198683524Y-108037333D01*
X198635905Y-107989714D01*
X198588286Y-107894476D01*
X198588286Y-107846857D01*
X198635905Y-107751619D01*
X198683524Y-107704000D01*
X198778762Y-107656381D01*
X198969239Y-107656381D01*
X199064477Y-107704000D01*
X199112096Y-107751619D01*
X199159715Y-107846857D01*
X199159715Y-107894476D01*
X199112096Y-107989714D01*
X199064477Y-108037333D01*
X198969239Y-108084952D01*
X198778762Y-108084952D01*
X198683524Y-108132571D01*
X198635905Y-108180190D01*
X198588286Y-108275429D01*
X198588286Y-108465905D01*
X198635905Y-108561143D01*
X198683524Y-108608762D01*
X198778762Y-108656381D01*
X198969239Y-108656381D01*
X199064477Y-108608762D01*
X199112096Y-108561143D01*
X199159715Y-108465905D01*
X199159715Y-108275429D01*
X199112096Y-108180190D01*
X199064477Y-108132571D01*
X198969239Y-108084952D01*
X239291905Y-34996381D02*
X239291905Y-33996381D01*
X239530000Y-33996381D01*
X239672858Y-34044000D01*
X239768096Y-34139238D01*
X239815715Y-34234476D01*
X239863334Y-34424952D01*
X239863334Y-34567810D01*
X239815715Y-34758286D01*
X239768096Y-34853524D01*
X239672858Y-34948762D01*
X239530000Y-34996381D01*
X239291905Y-34996381D01*
X240339524Y-34996381D02*
X240530000Y-34996381D01*
X240625239Y-34948762D01*
X240672858Y-34901143D01*
X240768096Y-34758286D01*
X240815715Y-34567810D01*
X240815715Y-34186857D01*
X240768096Y-34091619D01*
X240720477Y-34044000D01*
X240625239Y-33996381D01*
X240434762Y-33996381D01*
X240339524Y-34044000D01*
X240291905Y-34091619D01*
X240244286Y-34186857D01*
X240244286Y-34424952D01*
X240291905Y-34520190D01*
X240339524Y-34567810D01*
X240434762Y-34615429D01*
X240625239Y-34615429D01*
X240720477Y-34567810D01*
X240768096Y-34520190D01*
X240815715Y-34424952D01*
X189428381Y-109640666D02*
X188952190Y-109974000D01*
X189428381Y-110212095D02*
X188428381Y-110212095D01*
X188428381Y-109831142D01*
X188476000Y-109735904D01*
X188523619Y-109688285D01*
X188618857Y-109640666D01*
X188761714Y-109640666D01*
X188856952Y-109688285D01*
X188904571Y-109735904D01*
X188952190Y-109831142D01*
X188952190Y-110212095D01*
X189428381Y-108688285D02*
X189428381Y-109259714D01*
X189428381Y-108974000D02*
X188428381Y-108974000D01*
X188571238Y-109069238D01*
X188666476Y-109164476D01*
X188714095Y-109259714D01*
X190952381Y-109640666D02*
X190476190Y-109974000D01*
X190952381Y-110212095D02*
X189952381Y-110212095D01*
X189952381Y-109831142D01*
X190000000Y-109735904D01*
X190047619Y-109688285D01*
X190142857Y-109640666D01*
X190285714Y-109640666D01*
X190380952Y-109688285D01*
X190428571Y-109735904D01*
X190476190Y-109831142D01*
X190476190Y-110212095D01*
X190047619Y-109259714D02*
X190000000Y-109212095D01*
X189952381Y-109116857D01*
X189952381Y-108878761D01*
X190000000Y-108783523D01*
X190047619Y-108735904D01*
X190142857Y-108688285D01*
X190238095Y-108688285D01*
X190380952Y-108735904D01*
X190952381Y-109307333D01*
X190952381Y-108688285D01*
X198969334Y-110434381D02*
X198636000Y-109958190D01*
X198397905Y-110434381D02*
X198397905Y-109434381D01*
X198778858Y-109434381D01*
X198874096Y-109482000D01*
X198921715Y-109529619D01*
X198969334Y-109624857D01*
X198969334Y-109767714D01*
X198921715Y-109862952D01*
X198874096Y-109910571D01*
X198778858Y-109958190D01*
X198397905Y-109958190D01*
X199302667Y-109434381D02*
X199921715Y-109434381D01*
X199588381Y-109815333D01*
X199731239Y-109815333D01*
X199826477Y-109862952D01*
X199874096Y-109910571D01*
X199921715Y-110005810D01*
X199921715Y-110243905D01*
X199874096Y-110339143D01*
X199826477Y-110386762D01*
X199731239Y-110434381D01*
X199445524Y-110434381D01*
X199350286Y-110386762D01*
X199302667Y-110339143D01*
X246721334Y-36774381D02*
X246388000Y-36298190D01*
X246149905Y-36774381D02*
X246149905Y-35774381D01*
X246530858Y-35774381D01*
X246626096Y-35822000D01*
X246673715Y-35869619D01*
X246721334Y-35964857D01*
X246721334Y-36107714D01*
X246673715Y-36202952D01*
X246626096Y-36250571D01*
X246530858Y-36298190D01*
X246149905Y-36298190D01*
X247578477Y-35774381D02*
X247388000Y-35774381D01*
X247292762Y-35822000D01*
X247245143Y-35869619D01*
X247149905Y-36012476D01*
X247102286Y-36202952D01*
X247102286Y-36583905D01*
X247149905Y-36679143D01*
X247197524Y-36726762D01*
X247292762Y-36774381D01*
X247483239Y-36774381D01*
X247578477Y-36726762D01*
X247626096Y-36679143D01*
X247673715Y-36583905D01*
X247673715Y-36345810D01*
X247626096Y-36250571D01*
X247578477Y-36202952D01*
X247483239Y-36155333D01*
X247292762Y-36155333D01*
X247197524Y-36202952D01*
X247149905Y-36250571D01*
X247102286Y-36345810D01*
X190190381Y-48426666D02*
X189714190Y-48760000D01*
X190190381Y-48998095D02*
X189190381Y-48998095D01*
X189190381Y-48617142D01*
X189238000Y-48521904D01*
X189285619Y-48474285D01*
X189380857Y-48426666D01*
X189523714Y-48426666D01*
X189618952Y-48474285D01*
X189666571Y-48521904D01*
X189714190Y-48617142D01*
X189714190Y-48998095D01*
X189190381Y-48093333D02*
X189190381Y-47426666D01*
X190190381Y-47855238D01*
X191968381Y-48426666D02*
X191492190Y-48760000D01*
X191968381Y-48998095D02*
X190968381Y-48998095D01*
X190968381Y-48617142D01*
X191016000Y-48521904D01*
X191063619Y-48474285D01*
X191158857Y-48426666D01*
X191301714Y-48426666D01*
X191396952Y-48474285D01*
X191444571Y-48521904D01*
X191492190Y-48617142D01*
X191492190Y-48998095D01*
X191396952Y-47855238D02*
X191349333Y-47950476D01*
X191301714Y-47998095D01*
X191206476Y-48045714D01*
X191158857Y-48045714D01*
X191063619Y-47998095D01*
X191016000Y-47950476D01*
X190968381Y-47855238D01*
X190968381Y-47664761D01*
X191016000Y-47569523D01*
X191063619Y-47521904D01*
X191158857Y-47474285D01*
X191206476Y-47474285D01*
X191301714Y-47521904D01*
X191349333Y-47569523D01*
X191396952Y-47664761D01*
X191396952Y-47855238D01*
X191444571Y-47950476D01*
X191492190Y-47998095D01*
X191587429Y-48045714D01*
X191777905Y-48045714D01*
X191873143Y-47998095D01*
X191920762Y-47950476D01*
X191968381Y-47855238D01*
X191968381Y-47664761D01*
X191920762Y-47569523D01*
X191873143Y-47521904D01*
X191777905Y-47474285D01*
X191587429Y-47474285D01*
X191492190Y-47521904D01*
X191444571Y-47569523D01*
X191396952Y-47664761D01*
X197643809Y-122552190D02*
X197643809Y-123028381D01*
X197310476Y-122028381D02*
X197643809Y-122552190D01*
X197977143Y-122028381D01*
X198215238Y-122028381D02*
X198834286Y-122028381D01*
X198500952Y-122409333D01*
X198643810Y-122409333D01*
X198739048Y-122456952D01*
X198786667Y-122504571D01*
X198834286Y-122599810D01*
X198834286Y-122837905D01*
X198786667Y-122933143D01*
X198739048Y-122980762D01*
X198643810Y-123028381D01*
X198358095Y-123028381D01*
X198262857Y-122980762D01*
X198215238Y-122933143D01*
X233203809Y-51284190D02*
X233203809Y-51760381D01*
X232870476Y-50760381D02*
X233203809Y-51284190D01*
X233537143Y-50760381D01*
X234299048Y-51093714D02*
X234299048Y-51760381D01*
X234060952Y-50712762D02*
X233822857Y-51427048D01*
X234441905Y-51427048D01*
X197643809Y-62100190D02*
X197643809Y-62576381D01*
X197310476Y-61576381D02*
X197643809Y-62100190D01*
X197977143Y-61576381D01*
X198786667Y-61576381D02*
X198310476Y-61576381D01*
X198262857Y-62052571D01*
X198310476Y-62004952D01*
X198405714Y-61957333D01*
X198643810Y-61957333D01*
X198739048Y-62004952D01*
X198786667Y-62052571D01*
X198834286Y-62147810D01*
X198834286Y-62385905D01*
X198786667Y-62481143D01*
X198739048Y-62528762D01*
X198643810Y-62576381D01*
X198405714Y-62576381D01*
X198310476Y-62528762D01*
X198262857Y-62481143D01*
X191522381Y-117093905D02*
X192331905Y-117093905D01*
X192427143Y-117046286D01*
X192474762Y-116998667D01*
X192522381Y-116903429D01*
X192522381Y-116712952D01*
X192474762Y-116617714D01*
X192427143Y-116570095D01*
X192331905Y-116522476D01*
X191522381Y-116522476D01*
X191855714Y-115617714D02*
X192522381Y-115617714D01*
X191474762Y-115855810D02*
X192189048Y-116093905D01*
X192189048Y-115474857D01*
X192030381Y-56133905D02*
X192839905Y-56133905D01*
X192935143Y-56086286D01*
X192982762Y-56038667D01*
X193030381Y-55943429D01*
X193030381Y-55752952D01*
X192982762Y-55657714D01*
X192935143Y-55610095D01*
X192839905Y-55562476D01*
X192030381Y-55562476D01*
X192030381Y-54657714D02*
X192030381Y-54848191D01*
X192078000Y-54943429D01*
X192125619Y-54991048D01*
X192268476Y-55086286D01*
X192458952Y-55133905D01*
X192839905Y-55133905D01*
X192935143Y-55086286D01*
X192982762Y-55038667D01*
X193030381Y-54943429D01*
X193030381Y-54752952D01*
X192982762Y-54657714D01*
X192935143Y-54610095D01*
X192839905Y-54562476D01*
X192601810Y-54562476D01*
X192506571Y-54610095D01*
X192458952Y-54657714D01*
X192411333Y-54752952D01*
X192411333Y-54943429D01*
X192458952Y-55038667D01*
X192506571Y-55086286D01*
X192601810Y-55133905D01*
X220924381Y-37726857D02*
X220448190Y-38060191D01*
X220924381Y-38298286D02*
X219924381Y-38298286D01*
X219924381Y-37917333D01*
X219972000Y-37822095D01*
X220019619Y-37774476D01*
X220114857Y-37726857D01*
X220257714Y-37726857D01*
X220352952Y-37774476D01*
X220400571Y-37822095D01*
X220448190Y-37917333D01*
X220448190Y-38298286D01*
X220924381Y-36774476D02*
X220924381Y-37345905D01*
X220924381Y-37060191D02*
X219924381Y-37060191D01*
X220067238Y-37155429D01*
X220162476Y-37250667D01*
X220210095Y-37345905D01*
X219924381Y-36155429D02*
X219924381Y-36060190D01*
X219972000Y-35964952D01*
X220019619Y-35917333D01*
X220114857Y-35869714D01*
X220305333Y-35822095D01*
X220543429Y-35822095D01*
X220733905Y-35869714D01*
X220829143Y-35917333D01*
X220876762Y-35964952D01*
X220924381Y-36060190D01*
X220924381Y-36155429D01*
X220876762Y-36250667D01*
X220829143Y-36298286D01*
X220733905Y-36345905D01*
X220543429Y-36393524D01*
X220305333Y-36393524D01*
X220114857Y-36345905D01*
X220019619Y-36298286D01*
X219972000Y-36250667D01*
X219924381Y-36155429D01*
X217876381Y-37726857D02*
X217400190Y-38060191D01*
X217876381Y-38298286D02*
X216876381Y-38298286D01*
X216876381Y-37917333D01*
X216924000Y-37822095D01*
X216971619Y-37774476D01*
X217066857Y-37726857D01*
X217209714Y-37726857D01*
X217304952Y-37774476D01*
X217352571Y-37822095D01*
X217400190Y-37917333D01*
X217400190Y-38298286D01*
X217876381Y-36774476D02*
X217876381Y-37345905D01*
X217876381Y-37060191D02*
X216876381Y-37060191D01*
X217019238Y-37155429D01*
X217114476Y-37250667D01*
X217162095Y-37345905D01*
X217876381Y-35822095D02*
X217876381Y-36393524D01*
X217876381Y-36107810D02*
X216876381Y-36107810D01*
X217019238Y-36203048D01*
X217114476Y-36298286D01*
X217162095Y-36393524D01*
X214828381Y-37726857D02*
X214352190Y-38060191D01*
X214828381Y-38298286D02*
X213828381Y-38298286D01*
X213828381Y-37917333D01*
X213876000Y-37822095D01*
X213923619Y-37774476D01*
X214018857Y-37726857D01*
X214161714Y-37726857D01*
X214256952Y-37774476D01*
X214304571Y-37822095D01*
X214352190Y-37917333D01*
X214352190Y-38298286D01*
X214828381Y-36774476D02*
X214828381Y-37345905D01*
X214828381Y-37060191D02*
X213828381Y-37060191D01*
X213971238Y-37155429D01*
X214066476Y-37250667D01*
X214114095Y-37345905D01*
X213923619Y-36393524D02*
X213876000Y-36345905D01*
X213828381Y-36250667D01*
X213828381Y-36012571D01*
X213876000Y-35917333D01*
X213923619Y-35869714D01*
X214018857Y-35822095D01*
X214114095Y-35822095D01*
X214256952Y-35869714D01*
X214828381Y-36441143D01*
X214828381Y-35822095D01*
X211780381Y-37726857D02*
X211304190Y-38060191D01*
X211780381Y-38298286D02*
X210780381Y-38298286D01*
X210780381Y-37917333D01*
X210828000Y-37822095D01*
X210875619Y-37774476D01*
X210970857Y-37726857D01*
X211113714Y-37726857D01*
X211208952Y-37774476D01*
X211256571Y-37822095D01*
X211304190Y-37917333D01*
X211304190Y-38298286D01*
X211780381Y-36774476D02*
X211780381Y-37345905D01*
X211780381Y-37060191D02*
X210780381Y-37060191D01*
X210923238Y-37155429D01*
X211018476Y-37250667D01*
X211066095Y-37345905D01*
X210780381Y-36441143D02*
X210780381Y-35822095D01*
X211161333Y-36155429D01*
X211161333Y-36012571D01*
X211208952Y-35917333D01*
X211256571Y-35869714D01*
X211351810Y-35822095D01*
X211589905Y-35822095D01*
X211685143Y-35869714D01*
X211732762Y-35917333D01*
X211780381Y-36012571D01*
X211780381Y-36298286D01*
X211732762Y-36393524D01*
X211685143Y-36441143D01*
M02*
