G04 #@! TF.FileFunction,Paste,Top*
%FSLAX46Y46*%
G04 Gerber Fmt 4.6, Leading zero omitted, Abs format (unit mm)*
G04 Created by KiCad (PCBNEW 4.0.6) date 01/13/18 17:56:14*
%MOMM*%
%LPD*%
G01*
G04 APERTURE LIST*
%ADD10C,0.100000*%
%ADD11R,0.550000X1.600000*%
%ADD12R,1.600000X0.550000*%
%ADD13R,2.200000X0.600000*%
%ADD14R,0.450000X1.450000*%
%ADD15R,0.750000X1.200000*%
%ADD16R,1.200000X0.750000*%
%ADD17R,1.500000X1.300000*%
%ADD18R,0.900000X1.200000*%
%ADD19R,1.200000X0.900000*%
%ADD20R,1.143000X0.508000*%
%ADD21R,7.875000X2.000000*%
%ADD22R,1.000000X1.000000*%
%ADD23R,2.450000X3.800000*%
G04 APERTURE END LIST*
D10*
D11*
X236976000Y-46922000D03*
X237776000Y-46922000D03*
X238576000Y-46922000D03*
X239376000Y-46922000D03*
X240176000Y-46922000D03*
X240976000Y-46922000D03*
X241776000Y-46922000D03*
X242576000Y-46922000D03*
D12*
X244026000Y-45472000D03*
X244026000Y-44672000D03*
X244026000Y-43872000D03*
X244026000Y-43072000D03*
X244026000Y-42272000D03*
X244026000Y-41472000D03*
X244026000Y-40672000D03*
X244026000Y-39872000D03*
D11*
X242576000Y-38422000D03*
X241776000Y-38422000D03*
X240976000Y-38422000D03*
X240176000Y-38422000D03*
X239376000Y-38422000D03*
X238576000Y-38422000D03*
X237776000Y-38422000D03*
X236976000Y-38422000D03*
D12*
X235526000Y-39872000D03*
X235526000Y-40672000D03*
X235526000Y-41472000D03*
X235526000Y-42272000D03*
X235526000Y-43072000D03*
X235526000Y-43872000D03*
X235526000Y-44672000D03*
X235526000Y-45472000D03*
D13*
X215840000Y-128651000D03*
X221040000Y-128651000D03*
X215840000Y-127381000D03*
X221040000Y-127381000D03*
X215840000Y-126111000D03*
X221040000Y-126111000D03*
X215840000Y-124841000D03*
X221040000Y-124841000D03*
X215840000Y-123571000D03*
X221040000Y-123571000D03*
X215840000Y-122301000D03*
X221040000Y-122301000D03*
X215840000Y-121031000D03*
X221040000Y-121031000D03*
X215840000Y-119761000D03*
X221040000Y-119761000D03*
X215840000Y-118491000D03*
X221040000Y-118491000D03*
X215840000Y-117221000D03*
X221040000Y-117221000D03*
D14*
X192827000Y-143424000D03*
X193477000Y-143424000D03*
X194127000Y-143424000D03*
X194777000Y-143424000D03*
X194777000Y-139024000D03*
X194127000Y-139024000D03*
X193477000Y-139024000D03*
X192827000Y-139024000D03*
D15*
X179578000Y-29276000D03*
X179578000Y-31176000D03*
D16*
X268036000Y-52832000D03*
X269936000Y-52832000D03*
X227772000Y-125222000D03*
X225872000Y-125222000D03*
X227518000Y-119634000D03*
X225618000Y-119634000D03*
X255458000Y-51054000D03*
X253558000Y-51054000D03*
X208346000Y-124460000D03*
X210246000Y-124460000D03*
X255458000Y-53086000D03*
X253558000Y-53086000D03*
X211770000Y-128524000D03*
X209870000Y-128524000D03*
X196530000Y-109982000D03*
X194630000Y-109982000D03*
X188026000Y-121666000D03*
X189926000Y-121666000D03*
X200594000Y-91440000D03*
X198694000Y-91440000D03*
D15*
X214884000Y-142174000D03*
X214884000Y-140274000D03*
X202438000Y-140020000D03*
X202438000Y-141920000D03*
D16*
X206568000Y-146050000D03*
X208468000Y-146050000D03*
X193106000Y-146304000D03*
X195006000Y-146304000D03*
D15*
X211328000Y-140274000D03*
X211328000Y-142174000D03*
X199390000Y-140020000D03*
X199390000Y-141920000D03*
X196342000Y-140020000D03*
X196342000Y-141920000D03*
D17*
X215218000Y-90678000D03*
X212518000Y-90678000D03*
D18*
X254508000Y-27348000D03*
X254508000Y-29548000D03*
D19*
X266870000Y-41402000D03*
X269070000Y-41402000D03*
X225468000Y-116078000D03*
X227668000Y-116078000D03*
X267886000Y-50800000D03*
X270086000Y-50800000D03*
X225722000Y-126746000D03*
X227922000Y-126746000D03*
X269578000Y-44958000D03*
X267378000Y-44958000D03*
X227668000Y-118110000D03*
X225468000Y-118110000D03*
X267886000Y-48768000D03*
X270086000Y-48768000D03*
X225722000Y-128778000D03*
X227922000Y-128778000D03*
X254338000Y-49022000D03*
X252138000Y-49022000D03*
X210396000Y-125984000D03*
X208196000Y-125984000D03*
X254592000Y-43942000D03*
X252392000Y-43942000D03*
X211920000Y-120904000D03*
X209720000Y-120904000D03*
D18*
X211328000Y-22776000D03*
X211328000Y-24976000D03*
X208026000Y-15410000D03*
X208026000Y-17610000D03*
X220980000Y-22776000D03*
X220980000Y-24976000D03*
X217678000Y-15410000D03*
X217678000Y-17610000D03*
X230632000Y-22776000D03*
X230632000Y-24976000D03*
X227330000Y-15410000D03*
X227330000Y-17610000D03*
X240284000Y-22776000D03*
X240284000Y-24976000D03*
X236982000Y-15410000D03*
X236982000Y-17610000D03*
X249936000Y-22776000D03*
X249936000Y-24976000D03*
X246634000Y-15410000D03*
X246634000Y-17610000D03*
X182880000Y-77046000D03*
X182880000Y-74846000D03*
X181356000Y-74846000D03*
X181356000Y-77046000D03*
X220980000Y-41064000D03*
X220980000Y-43264000D03*
X219456000Y-43264000D03*
X219456000Y-41064000D03*
X217932000Y-41064000D03*
X217932000Y-43264000D03*
X216408000Y-43264000D03*
X216408000Y-41064000D03*
X214884000Y-41064000D03*
X214884000Y-43264000D03*
X213360000Y-43264000D03*
X213360000Y-41064000D03*
X211836000Y-41064000D03*
X211836000Y-43264000D03*
X210312000Y-43264000D03*
X210312000Y-41064000D03*
D19*
X207348000Y-74422000D03*
X205148000Y-74422000D03*
X201252000Y-83566000D03*
X199052000Y-83566000D03*
X200744000Y-89916000D03*
X198544000Y-89916000D03*
X212768000Y-85852000D03*
X214968000Y-85852000D03*
X212768000Y-87376000D03*
X214968000Y-87376000D03*
X207602000Y-92202000D03*
X205402000Y-92202000D03*
X214968000Y-88900000D03*
X212768000Y-88900000D03*
X212768000Y-84328000D03*
X214968000Y-84328000D03*
D18*
X212852000Y-140124000D03*
X212852000Y-142324000D03*
X200914000Y-139870000D03*
X200914000Y-142070000D03*
X209804000Y-142324000D03*
X209804000Y-140124000D03*
X197866000Y-142070000D03*
X197866000Y-139870000D03*
D13*
X258258000Y-52959000D03*
X263458000Y-52959000D03*
X258258000Y-51689000D03*
X263458000Y-51689000D03*
X258258000Y-50419000D03*
X263458000Y-50419000D03*
X258258000Y-49149000D03*
X263458000Y-49149000D03*
X258258000Y-47879000D03*
X263458000Y-47879000D03*
X258258000Y-46609000D03*
X263458000Y-46609000D03*
X258258000Y-45339000D03*
X263458000Y-45339000D03*
X258258000Y-44069000D03*
X263458000Y-44069000D03*
X258258000Y-42799000D03*
X263458000Y-42799000D03*
X258258000Y-41529000D03*
X263458000Y-41529000D03*
D20*
X203200000Y-82296000D03*
X203200000Y-83566000D03*
X203200000Y-84836000D03*
X203200000Y-86106000D03*
X203200000Y-87376000D03*
X203200000Y-88646000D03*
X203200000Y-89916000D03*
X209550000Y-89916000D03*
X209550000Y-88646000D03*
X209550000Y-86106000D03*
X209550000Y-84836000D03*
X209550000Y-83566000D03*
X209550000Y-82296000D03*
X209550000Y-87376000D03*
D14*
X206035000Y-143424000D03*
X206685000Y-143424000D03*
X207335000Y-143424000D03*
X207985000Y-143424000D03*
X207985000Y-139024000D03*
X207335000Y-139024000D03*
X206685000Y-139024000D03*
X206035000Y-139024000D03*
D21*
X266795500Y-37846000D03*
X254920500Y-37846000D03*
X223869500Y-111760000D03*
X211994500Y-111760000D03*
D22*
X200894000Y-88138000D03*
X198394000Y-88138000D03*
D15*
X233680000Y-48448000D03*
X233680000Y-46548000D03*
D16*
X238694000Y-36322000D03*
X236794000Y-36322000D03*
X229428000Y-45974000D03*
X231328000Y-45974000D03*
X197546000Y-49022000D03*
X195646000Y-49022000D03*
D15*
X189738000Y-60132000D03*
X189738000Y-58232000D03*
D17*
X200580000Y-108204000D03*
X203280000Y-108204000D03*
X242236000Y-34544000D03*
X244936000Y-34544000D03*
D18*
X188976000Y-111422000D03*
X188976000Y-113622000D03*
X190500000Y-111422000D03*
X190500000Y-113622000D03*
D19*
X203284000Y-109982000D03*
X201084000Y-109982000D03*
X244940000Y-36322000D03*
X242740000Y-36322000D03*
D18*
X189738000Y-50462000D03*
X189738000Y-52662000D03*
X191516000Y-50462000D03*
X191516000Y-52662000D03*
D23*
X194570000Y-125476000D03*
X198120000Y-125476000D03*
X201670000Y-125476000D03*
X236226000Y-51308000D03*
X239776000Y-51308000D03*
X243326000Y-51308000D03*
X194570000Y-65024000D03*
X198120000Y-65024000D03*
X201670000Y-65024000D03*
D11*
X195320000Y-120582000D03*
X196120000Y-120582000D03*
X196920000Y-120582000D03*
X197720000Y-120582000D03*
X198520000Y-120582000D03*
X199320000Y-120582000D03*
X200120000Y-120582000D03*
X200920000Y-120582000D03*
D12*
X202370000Y-119132000D03*
X202370000Y-118332000D03*
X202370000Y-117532000D03*
X202370000Y-116732000D03*
X202370000Y-115932000D03*
X202370000Y-115132000D03*
X202370000Y-114332000D03*
X202370000Y-113532000D03*
D11*
X200920000Y-112082000D03*
X200120000Y-112082000D03*
X199320000Y-112082000D03*
X198520000Y-112082000D03*
X197720000Y-112082000D03*
X196920000Y-112082000D03*
X196120000Y-112082000D03*
X195320000Y-112082000D03*
D12*
X193870000Y-113532000D03*
X193870000Y-114332000D03*
X193870000Y-115132000D03*
X193870000Y-115932000D03*
X193870000Y-116732000D03*
X193870000Y-117532000D03*
X193870000Y-118332000D03*
X193870000Y-119132000D03*
D11*
X195828000Y-59622000D03*
X196628000Y-59622000D03*
X197428000Y-59622000D03*
X198228000Y-59622000D03*
X199028000Y-59622000D03*
X199828000Y-59622000D03*
X200628000Y-59622000D03*
X201428000Y-59622000D03*
D12*
X202878000Y-58172000D03*
X202878000Y-57372000D03*
X202878000Y-56572000D03*
X202878000Y-55772000D03*
X202878000Y-54972000D03*
X202878000Y-54172000D03*
X202878000Y-53372000D03*
X202878000Y-52572000D03*
D11*
X201428000Y-51122000D03*
X200628000Y-51122000D03*
X199828000Y-51122000D03*
X199028000Y-51122000D03*
X198228000Y-51122000D03*
X197428000Y-51122000D03*
X196628000Y-51122000D03*
X195828000Y-51122000D03*
D12*
X194378000Y-52572000D03*
X194378000Y-53372000D03*
X194378000Y-54172000D03*
X194378000Y-54972000D03*
X194378000Y-55772000D03*
X194378000Y-56572000D03*
X194378000Y-57372000D03*
X194378000Y-58172000D03*
M02*
