G04 #@! TF.FileFunction,Copper,L4,Bot,Signal*
%FSLAX46Y46*%
G04 Gerber Fmt 4.6, Leading zero omitted, Abs format (unit mm)*
G04 Created by KiCad (PCBNEW 4.0.6) date 01/13/18 17:56:14*
%MOMM*%
%LPD*%
G01*
G04 APERTURE LIST*
%ADD10C,0.100000*%
%ADD11C,1.000000*%
%ADD12R,1.000000X1.000000*%
%ADD13C,1.100000*%
%ADD14R,1.700000X1.700000*%
%ADD15O,1.700000X1.700000*%
%ADD16C,1.700000*%
%ADD17R,1.200000X0.750000*%
%ADD18R,1.600000X1.600000*%
%ADD19C,1.600000*%
%ADD20R,0.750000X1.200000*%
%ADD21C,3.048000*%
%ADD22C,2.540000*%
%ADD23R,1.200000X0.900000*%
%ADD24R,0.900000X1.200000*%
%ADD25R,1.800000X1.800000*%
%ADD26C,1.800000*%
%ADD27O,1.800000X1.800000*%
%ADD28C,1.400000*%
%ADD29O,1.400000X1.400000*%
%ADD30C,0.600000*%
%ADD31C,0.250000*%
G04 APERTURE END LIST*
D10*
D11*
X213614000Y-22606000D03*
X214884000Y-21336000D03*
D12*
X214884000Y-23876000D03*
D13*
X182880000Y-40386000D03*
X184880000Y-40386000D03*
D14*
X228854000Y-102870000D03*
D15*
X231394000Y-102870000D03*
X233934000Y-102870000D03*
X236474000Y-102870000D03*
X239014000Y-102870000D03*
X241554000Y-102870000D03*
X244094000Y-102870000D03*
X246634000Y-102870000D03*
X249174000Y-102870000D03*
X251714000Y-102870000D03*
X254254000Y-102870000D03*
X256794000Y-102870000D03*
X259334000Y-102870000D03*
X261874000Y-102870000D03*
X264414000Y-102870000D03*
X266954000Y-102870000D03*
X269494000Y-102870000D03*
X272034000Y-102870000D03*
D14*
X225552000Y-34544000D03*
D15*
X225552000Y-37084000D03*
X225552000Y-39624000D03*
X225552000Y-42164000D03*
X225552000Y-44704000D03*
X225552000Y-47244000D03*
D14*
X185420000Y-48514000D03*
D15*
X185420000Y-51054000D03*
X185420000Y-53594000D03*
X185420000Y-56134000D03*
X185420000Y-58674000D03*
X185420000Y-61214000D03*
D11*
X258318000Y-28702000D03*
X257048000Y-27432000D03*
D12*
X259588000Y-27432000D03*
D11*
X223266000Y-22606000D03*
X224536000Y-21336000D03*
D12*
X224536000Y-23876000D03*
D11*
X232918000Y-22606000D03*
X234188000Y-21336000D03*
D12*
X234188000Y-23876000D03*
D11*
X242570000Y-22606000D03*
X243840000Y-21336000D03*
D12*
X243840000Y-23876000D03*
D11*
X252222000Y-22606000D03*
X253492000Y-21336000D03*
D12*
X253492000Y-23876000D03*
D11*
X213868000Y-80264000D03*
X215138000Y-81534000D03*
D12*
X212598000Y-81534000D03*
D16*
X191920000Y-79430000D03*
X185420000Y-79430000D03*
X191920000Y-74930000D03*
X185420000Y-74930000D03*
D17*
X267528000Y-42926000D03*
X269428000Y-42926000D03*
X201102000Y-86106000D03*
X199202000Y-86106000D03*
D18*
X207264000Y-77978000D03*
D19*
X205264000Y-77978000D03*
D20*
X204216000Y-142174000D03*
X204216000Y-140274000D03*
D21*
X182372000Y-18542000D03*
X192372000Y-18542000D03*
D22*
X274066000Y-19304000D03*
X269066000Y-19304000D03*
X264066000Y-19304000D03*
X259066000Y-19304000D03*
D14*
X185166000Y-108966000D03*
D15*
X185166000Y-111506000D03*
X185166000Y-114046000D03*
X185166000Y-116586000D03*
X185166000Y-119126000D03*
X185166000Y-121666000D03*
D23*
X201252000Y-82042000D03*
X199052000Y-82042000D03*
D24*
X196088000Y-87206000D03*
X196088000Y-85006000D03*
D25*
X212090000Y-17780000D03*
D26*
X212090000Y-15240000D03*
D25*
X221742000Y-17780000D03*
D26*
X221742000Y-15240000D03*
D25*
X231394000Y-17780000D03*
D26*
X231394000Y-15240000D03*
D25*
X241046000Y-17780000D03*
D26*
X241046000Y-15240000D03*
D25*
X250698000Y-17780000D03*
D26*
X250698000Y-15240000D03*
D25*
X182880000Y-29464000D03*
D27*
X182880000Y-32004000D03*
X182880000Y-34544000D03*
D14*
X274066000Y-109474000D03*
X270510000Y-109474000D03*
X274066000Y-27686000D03*
X231902000Y-110490000D03*
X270256000Y-27686000D03*
X206248000Y-134112000D03*
X263398000Y-109474000D03*
X195580000Y-134112000D03*
X202692000Y-134112000D03*
X266954000Y-109474000D03*
X188468000Y-141224000D03*
X201930000Y-18542000D03*
X233172000Y-122428000D03*
X266446000Y-27686000D03*
X209804000Y-134112000D03*
X200660000Y-148844000D03*
D17*
X197678000Y-61214000D03*
X199578000Y-61214000D03*
D24*
X230378000Y-37254000D03*
X230378000Y-39454000D03*
X232918000Y-37254000D03*
X232918000Y-39454000D03*
D28*
X220472000Y-34544000D03*
D29*
X220472000Y-32004000D03*
D28*
X217424000Y-34544000D03*
D29*
X217424000Y-32004000D03*
D28*
X214376000Y-34544000D03*
D29*
X214376000Y-32004000D03*
D28*
X211328000Y-34544000D03*
D29*
X211328000Y-32004000D03*
D30*
X200660000Y-52578000D03*
X191516000Y-48768000D03*
X239522000Y-44958000D03*
X241046000Y-45720000D03*
X199644000Y-57658000D03*
X199644000Y-118872000D03*
X189738000Y-48768000D03*
X190500000Y-109982000D03*
X232918000Y-36068000D03*
X230378000Y-36068000D03*
X200152000Y-113284000D03*
X208534000Y-120904000D03*
X211328000Y-124460000D03*
X215646000Y-129540000D03*
X182880000Y-73660000D03*
X241808000Y-39624000D03*
X254508000Y-30480000D03*
X220980000Y-44196000D03*
X217932000Y-44196000D03*
X214884000Y-44196000D03*
X211836000Y-44196000D03*
X203708000Y-74676000D03*
X207264000Y-137668000D03*
X204216000Y-139192000D03*
X196342000Y-138938000D03*
X194310000Y-137414000D03*
X202184000Y-86106000D03*
X216154000Y-85852000D03*
X252222000Y-51054000D03*
X250952000Y-43942000D03*
X246634000Y-19050000D03*
X236982000Y-19050000D03*
X227330000Y-19050000D03*
X217678000Y-19050000D03*
X208026000Y-19050000D03*
X268478000Y-43942000D03*
X218694000Y-120142000D03*
X199390000Y-137922000D03*
X271780000Y-52832000D03*
X204724000Y-83312000D03*
X196850000Y-88138000D03*
X196850000Y-57150000D03*
X234950000Y-60198000D03*
X196088000Y-56642000D03*
X235712000Y-59182000D03*
X241554000Y-43942000D03*
X235966000Y-46990000D03*
X243586000Y-46990000D03*
X246126000Y-46990000D03*
X254000000Y-45212000D03*
X210566000Y-122682000D03*
X194056000Y-120142000D03*
X218948000Y-25400000D03*
X208280000Y-26924000D03*
X207264000Y-28956000D03*
X229108000Y-25400000D03*
X238760000Y-25400000D03*
X206248000Y-30988000D03*
X248412000Y-25400000D03*
X205232000Y-33020000D03*
X196088000Y-115316000D03*
X187960000Y-60452000D03*
X187960000Y-61976000D03*
X231394000Y-48006000D03*
X197612000Y-55626000D03*
X228600000Y-74422000D03*
X204216000Y-144780000D03*
X191516000Y-144780000D03*
X256540000Y-49022000D03*
X250444000Y-48006000D03*
X223266000Y-116078000D03*
X223266000Y-120650000D03*
X261620000Y-42926000D03*
X236982000Y-43434000D03*
X261366000Y-41656000D03*
X237998000Y-42164000D03*
X209550000Y-119380000D03*
X212598000Y-122428000D03*
X213614000Y-121920000D03*
X211074000Y-119380000D03*
X211074000Y-118110000D03*
X213868000Y-120904000D03*
X217678000Y-118364000D03*
X195580000Y-118110000D03*
X218440000Y-117094000D03*
X199898000Y-116586000D03*
X187706000Y-106426000D03*
X187198000Y-59690000D03*
X228854000Y-42672000D03*
X197358000Y-54864000D03*
X230378000Y-41910000D03*
X192786000Y-52832000D03*
X193040000Y-59690000D03*
X228600000Y-40894000D03*
X197104000Y-54102000D03*
X232918000Y-40640000D03*
X199644000Y-52578000D03*
X197612000Y-57658000D03*
X238760000Y-44450000D03*
X240284000Y-45466000D03*
X193294000Y-48006000D03*
X197866000Y-82042000D03*
X199136000Y-58420000D03*
X229108000Y-116078000D03*
X208280000Y-128524000D03*
X234696000Y-46736000D03*
X193294000Y-109982000D03*
X198120000Y-128016000D03*
X197104000Y-118618000D03*
X198628000Y-119126000D03*
X195072000Y-113538000D03*
X197612000Y-113284000D03*
X199136000Y-113284000D03*
X199136000Y-108204000D03*
X223012000Y-123444000D03*
X229108000Y-118110000D03*
X235712000Y-36322000D03*
X240792000Y-39624000D03*
X236728000Y-39878000D03*
X198120000Y-52324000D03*
X198120000Y-67564000D03*
X195580000Y-53340000D03*
X210820000Y-86360000D03*
X206756000Y-140208000D03*
X204216000Y-143256000D03*
X196088000Y-146304000D03*
X209550000Y-146050000D03*
X196342000Y-143002000D03*
X193548000Y-140208000D03*
X197358000Y-89916000D03*
X197612000Y-91440000D03*
X198120000Y-86106000D03*
X216662000Y-90678000D03*
X216154000Y-87376000D03*
X266446000Y-42926000D03*
X270764000Y-44958000D03*
X270256000Y-41402000D03*
X261620000Y-48006000D03*
X252222000Y-53086000D03*
X239268000Y-39624000D03*
X239776000Y-54102000D03*
X240538000Y-34544000D03*
X204470000Y-88646000D03*
X211582000Y-87630000D03*
X201930000Y-84836000D03*
X265430000Y-45974000D03*
X265430000Y-42672000D03*
X224028000Y-121412000D03*
X224028000Y-117602000D03*
X223012000Y-126238000D03*
X224536000Y-128778000D03*
X199898000Y-84836000D03*
X191770000Y-117602000D03*
X191516000Y-118618000D03*
X230378000Y-43942000D03*
X234188000Y-43942000D03*
X233426000Y-44704000D03*
X230124000Y-44704000D03*
X190754000Y-56642000D03*
X191516000Y-58420000D03*
D31*
X197678000Y-61214000D02*
X197678000Y-60894000D01*
X197678000Y-60894000D02*
X198374000Y-60198000D01*
X198374000Y-60198000D02*
X198374000Y-57912000D01*
X198374000Y-57912000D02*
X198628000Y-57658000D01*
X198628000Y-57658000D02*
X199644000Y-57658000D01*
X232918000Y-37254000D02*
X232918000Y-36068000D01*
X230378000Y-37254000D02*
X230378000Y-36068000D01*
X204216000Y-140274000D02*
X204216000Y-139192000D01*
X202184000Y-86106000D02*
X201102000Y-86106000D01*
X266446000Y-27686000D02*
X266446000Y-28194000D01*
X266446000Y-28194000D02*
X272034000Y-33782000D01*
X272034000Y-33782000D02*
X272034000Y-41910000D01*
X272034000Y-41910000D02*
X271018000Y-42926000D01*
X271018000Y-42926000D02*
X269428000Y-42926000D01*
X269428000Y-42926000D02*
X269428000Y-43500000D01*
X268986000Y-43942000D02*
X268478000Y-43942000D01*
X269428000Y-43500000D02*
X268986000Y-43942000D01*
X218186000Y-120650000D02*
X218694000Y-120142000D01*
X218186000Y-129540000D02*
X218186000Y-120650000D01*
X216662000Y-131064000D02*
X218186000Y-129540000D01*
X200660000Y-131064000D02*
X216662000Y-131064000D01*
X199390000Y-132334000D02*
X200660000Y-131064000D01*
X199390000Y-137922000D02*
X199390000Y-132334000D01*
X270256000Y-27686000D02*
X270256000Y-30226000D01*
X273050000Y-51562000D02*
X271780000Y-52832000D01*
X273050000Y-33020000D02*
X273050000Y-51562000D01*
X270256000Y-30226000D02*
X273050000Y-33020000D01*
X269066000Y-19304000D02*
X269066000Y-22686000D01*
X270256000Y-23876000D02*
X270256000Y-27686000D01*
X269066000Y-22686000D02*
X270256000Y-23876000D01*
X196088000Y-87206000D02*
X203878000Y-87206000D01*
X204724000Y-86360000D02*
X204724000Y-83312000D01*
X203878000Y-87206000D02*
X204724000Y-86360000D01*
X196850000Y-88138000D02*
X196088000Y-87376000D01*
X196088000Y-87376000D02*
X196088000Y-87206000D01*
X197104000Y-56896000D02*
X231648000Y-56896000D01*
X196850000Y-57150000D02*
X197104000Y-56896000D01*
X231648000Y-56896000D02*
X234950000Y-60198000D01*
X196088000Y-56642000D02*
X196342000Y-56388000D01*
X196342000Y-56388000D02*
X232918000Y-56388000D01*
X235712000Y-59182000D02*
X232918000Y-56388000D01*
X215138000Y-81534000D02*
X215646000Y-81534000D01*
X246634000Y-49022000D02*
X241554000Y-43942000D01*
X246634000Y-58674000D02*
X246634000Y-49022000D01*
X240792000Y-64516000D02*
X246634000Y-58674000D01*
X232664000Y-64516000D02*
X240792000Y-64516000D01*
X215646000Y-81534000D02*
X232664000Y-64516000D01*
X243586000Y-46990000D02*
X235966000Y-46990000D01*
X252222000Y-46990000D02*
X246126000Y-46990000D01*
X254000000Y-45212000D02*
X252222000Y-46990000D01*
X208534000Y-122682000D02*
X210566000Y-122682000D01*
X206502000Y-120650000D02*
X208534000Y-122682000D01*
X194564000Y-120650000D02*
X206502000Y-120650000D01*
X194056000Y-120142000D02*
X194564000Y-120650000D01*
X218948000Y-25400000D02*
X217932000Y-26416000D01*
X217932000Y-26416000D02*
X208788000Y-26416000D01*
X208788000Y-26416000D02*
X208280000Y-26924000D01*
X208788000Y-27432000D02*
X207264000Y-28956000D01*
X227076000Y-27432000D02*
X208788000Y-27432000D01*
X229108000Y-25400000D02*
X227076000Y-27432000D01*
X238760000Y-25400000D02*
X235712000Y-28448000D01*
X235712000Y-28448000D02*
X208788000Y-28448000D01*
X208788000Y-28448000D02*
X206248000Y-30988000D01*
X248412000Y-25400000D02*
X244348000Y-29464000D01*
X244348000Y-29464000D02*
X208788000Y-29464000D01*
X208788000Y-29464000D02*
X205232000Y-33020000D01*
X188976000Y-61976000D02*
X187960000Y-61976000D01*
X189230000Y-62230000D02*
X188976000Y-61976000D01*
X189230000Y-69088000D02*
X189230000Y-62230000D01*
X193548000Y-73406000D02*
X189230000Y-69088000D01*
X193548000Y-104648000D02*
X193548000Y-73406000D01*
X196088000Y-107188000D02*
X193548000Y-104648000D01*
X196088000Y-115316000D02*
X196088000Y-107188000D01*
X187960000Y-60452000D02*
X187960000Y-61976000D01*
X231394000Y-48260000D02*
X231394000Y-48006000D01*
X224028000Y-55626000D02*
X231394000Y-48260000D01*
X197612000Y-55626000D02*
X224028000Y-55626000D01*
X274066000Y-52578000D02*
X274066000Y-27686000D01*
X252222000Y-74422000D02*
X274066000Y-52578000D01*
X228600000Y-74422000D02*
X252222000Y-74422000D01*
X274066000Y-19304000D02*
X274066000Y-27686000D01*
X191516000Y-144780000D02*
X204216000Y-144780000D01*
X251460000Y-49022000D02*
X256540000Y-49022000D01*
X250444000Y-48006000D02*
X251460000Y-49022000D01*
X223266000Y-120650000D02*
X223266000Y-116078000D01*
X237490000Y-42926000D02*
X261620000Y-42926000D01*
X236982000Y-43434000D02*
X237490000Y-42926000D01*
X238506000Y-41656000D02*
X261366000Y-41656000D01*
X237998000Y-42164000D02*
X238506000Y-41656000D01*
X212598000Y-122428000D02*
X209550000Y-119380000D01*
X211074000Y-119380000D02*
X213614000Y-121920000D01*
X213868000Y-120904000D02*
X211074000Y-118110000D01*
X216662000Y-117348000D02*
X217678000Y-118364000D01*
X196342000Y-117348000D02*
X216662000Y-117348000D01*
X195580000Y-118110000D02*
X196342000Y-117348000D01*
X217932000Y-116586000D02*
X218440000Y-117094000D01*
X199898000Y-116586000D02*
X217932000Y-116586000D01*
X187706000Y-92456000D02*
X187706000Y-106426000D01*
X187198000Y-91948000D02*
X187706000Y-92456000D01*
X187198000Y-59690000D02*
X187198000Y-91948000D01*
X228346000Y-43180000D02*
X228854000Y-42672000D01*
X228346000Y-50038000D02*
X228346000Y-43180000D01*
X223520000Y-54864000D02*
X228346000Y-50038000D01*
X197358000Y-54864000D02*
X223520000Y-54864000D01*
X230378000Y-39454000D02*
X230378000Y-41910000D01*
X193548000Y-53594000D02*
X192786000Y-52832000D01*
X193548000Y-59182000D02*
X193548000Y-53594000D01*
X193040000Y-59690000D02*
X193548000Y-59182000D01*
X223012000Y-54102000D02*
X197104000Y-54102000D01*
X227584000Y-49530000D02*
X223012000Y-54102000D01*
X227584000Y-41910000D02*
X227584000Y-49530000D01*
X228600000Y-40894000D02*
X227584000Y-41910000D01*
X232918000Y-39454000D02*
X232918000Y-40640000D01*
X197866000Y-82042000D02*
X199052000Y-82042000D01*
X199578000Y-61214000D02*
X199578000Y-58862000D01*
X199578000Y-58862000D02*
X199136000Y-58420000D01*
X204216000Y-142174000D02*
X204216000Y-143256000D01*
X199202000Y-86106000D02*
X198120000Y-86106000D01*
X267528000Y-42926000D02*
X266446000Y-42926000D01*
X210566000Y-88646000D02*
X204470000Y-88646000D01*
X211582000Y-87630000D02*
X210566000Y-88646000D01*
X205264000Y-77978000D02*
X202438000Y-77978000D01*
X201252000Y-84158000D02*
X201930000Y-84836000D01*
X201252000Y-79164000D02*
X201252000Y-84158000D01*
X202438000Y-77978000D02*
X201252000Y-79164000D01*
X265430000Y-42672000D02*
X265430000Y-45974000D01*
X224028000Y-117602000D02*
X224028000Y-121412000D01*
X223520000Y-126238000D02*
X223012000Y-126238000D01*
X224028000Y-126746000D02*
X223520000Y-126238000D01*
X224028000Y-128270000D02*
X224028000Y-126746000D01*
X224536000Y-128778000D02*
X224028000Y-128270000D01*
X196088000Y-85006000D02*
X199728000Y-85006000D01*
X199728000Y-85006000D02*
X199898000Y-84836000D01*
X185166000Y-116586000D02*
X189230000Y-116586000D01*
X190246000Y-117602000D02*
X191770000Y-117602000D01*
X189230000Y-116586000D02*
X190246000Y-117602000D01*
X185166000Y-119126000D02*
X191008000Y-119126000D01*
X191008000Y-119126000D02*
X191516000Y-118618000D01*
X230378000Y-43942000D02*
X234188000Y-43942000D01*
X230124000Y-44704000D02*
X233426000Y-44704000D01*
X185420000Y-56134000D02*
X190246000Y-56134000D01*
X190246000Y-56134000D02*
X190754000Y-56642000D01*
X185420000Y-58674000D02*
X191262000Y-58674000D01*
X191262000Y-58674000D02*
X191516000Y-58420000D01*
M02*
