M48
;DRILL file {KiCad 4.0.6} date 01/13/18 17:56:05
;FORMAT={-:-/ absolute / inch / decimal}
FMAT,2
INCH,TZ
T1C0.016
T2C0.024
T3C0.025
T4C0.028
T5C0.031
T6C0.035
T7C0.039
T8C0.057
%
G90
G05
M72
T1
X7.2Y-2.9
X7.37Y-2.35
X7.39Y-4.19
X7.4Y-2.38
X7.4Y-2.44
X7.47Y-1.92
X7.5Y-4.33
X7.51Y-2.23
X7.54Y-1.92
X7.54Y-2.3
X7.54Y-4.67
X7.54Y-5.7
X7.55Y-4.63
X7.59Y-2.08
X7.6Y-2.35
X7.61Y-1.89
X7.61Y-4.33
X7.62Y-5.52
X7.64Y-4.73
X7.65Y-5.41
X7.68Y-4.47
X7.7Y-2.1
X7.7Y-4.65
X7.72Y-2.23
X7.72Y-4.54
X7.72Y-5.76
X7.73Y-5.47
X7.73Y-5.63
X7.75Y-2.25
X7.75Y-3.47
X7.76Y-2.13
X7.76Y-4.67
X7.77Y-2.16
X7.77Y-3.54
X7.78Y-2.19
X7.78Y-2.27
X7.78Y-3.6
X7.78Y-4.46
X7.79Y-3.23
X7.8Y-2.06
X7.8Y-2.66
X7.8Y-3.39
X7.8Y-5.04
X7.82Y-4.69
X7.84Y-2.3
X7.84Y-4.26
X7.84Y-4.46
X7.85Y-5.43
X7.86Y-2.07
X7.86Y-2.27
X7.86Y-4.68
X7.87Y-3.34
X7.87Y-4.59
X7.88Y-4.46
X7.9Y-2.07
X7.95Y-3.34
X7.96Y-3.39
X8.02Y-2.94
X8.04Y-5.48
X8.04Y-5.64
X8.04Y-5.7
X8.05Y-3.49
X8.06Y-3.28
X8.08Y-1.3
X8.12Y-1.22
X8.14Y-5.52
X8.16Y-1.14
X8.16Y-5.42
X8.19Y-0.75
X8.2Y-1.06
X8.2Y-5.06
X8.21Y-4.76
X8.25Y-4.7
X8.25Y-5.75
X8.29Y-4.83
X8.3Y-3.4
X8.31Y-4.65
X8.31Y-4.7
X8.32Y-4.9
X8.33Y-3.45
X8.34Y-1.74
X8.37Y-4.82
X8.41Y-4.8
X8.42Y-4.76
X8.46Y-1.74
X8.49Y-5.1
X8.51Y-3.38
X8.51Y-3.44
X8.53Y-3.57
X8.57Y-0.75
X8.57Y-4.66
X8.58Y-1.74
X8.6Y-4.61
X8.61Y-4.73
X8.62Y-1.
X8.7Y-1.74
X8.78Y-4.86
X8.78Y-4.97
X8.79Y-4.57
X8.79Y-4.75
X8.82Y-4.63
X8.82Y-4.78
X8.84Y-5.07
X8.95Y-0.75
X9.Y-1.61
X9.Y-2.93
X9.01Y-1.68
X9.02Y-1.
X9.02Y-4.57
X9.02Y-4.65
X9.06Y-1.76
X9.07Y-1.42
X9.07Y-1.65
X9.07Y-1.73
X9.11Y-1.89
X9.17Y-1.42
X9.17Y-1.6
X9.19Y-1.76
X9.22Y-1.73
X9.24Y-1.84
X9.25Y-2.37
X9.28Y-1.43
X9.28Y-2.33
X9.29Y-1.85
X9.32Y-1.57
X9.33Y-0.75
X9.33Y-1.71
X9.37Y-1.66
X9.4Y-1.
X9.4Y-1.75
X9.42Y-1.56
X9.43Y-1.77
X9.44Y-2.13
X9.46Y-1.79
X9.47Y-1.36
X9.48Y-1.56
X9.49Y-1.8
X9.51Y-1.73
X9.52Y-1.56
X9.59Y-1.85
X9.69Y-1.85
X9.71Y-0.75
X9.78Y-1.
X9.86Y-1.89
X9.88Y-1.73
X9.93Y-2.01
X9.93Y-2.09
X10.Y-1.78
X10.02Y-1.2
X10.1Y-1.93
X10.29Y-1.64
X10.3Y-1.69
X10.3Y-1.89
X10.45Y-1.68
X10.45Y-1.81
X10.49Y-1.69
X10.57Y-1.73
X10.64Y-1.63
X10.66Y-1.77
X10.7Y-2.08
T2
X8.37Y-3.21
X8.41Y-0.89
X8.42Y-3.16
X8.46Y-0.84
X8.46Y-0.94
X8.47Y-3.21
X8.79Y-0.89
X8.84Y-0.84
X8.84Y-0.94
X9.17Y-0.89
X9.22Y-0.84
X9.22Y-0.94
X9.55Y-0.89
X9.6Y-0.84
X9.6Y-0.94
X9.93Y-0.89
X9.98Y-0.84
X9.98Y-0.94
X10.12Y-1.08
X10.17Y-1.13
X10.22Y-1.08
T3
X7.2Y-1.59
X7.2787Y-1.59
T4
X8.32Y-1.26
X8.32Y-1.36
X8.44Y-1.26
X8.44Y-1.36
X8.56Y-1.26
X8.56Y-1.36
X8.68Y-1.26
X8.68Y-1.36
T5
X8.0813Y-3.07
X8.16Y-3.07
T6
X8.35Y-0.6
X8.35Y-0.7
X8.73Y-0.6
X8.73Y-0.7
X9.11Y-0.6
X9.11Y-0.7
X9.49Y-0.6
X9.49Y-0.7
X9.87Y-0.6
X9.87Y-0.7
T7
X7.2Y-1.16
X7.2Y-1.26
X7.2Y-1.36
X7.29Y-4.29
X7.29Y-4.39
X7.29Y-4.49
X7.29Y-4.59
X7.29Y-4.69
X7.29Y-4.79
X7.3Y-1.91
X7.3Y-2.01
X7.3Y-2.11
X7.3Y-2.21
X7.3Y-2.31
X7.3Y-2.41
X7.3Y-2.95
X7.3Y-3.1272
X7.42Y-5.56
X7.5559Y-2.95
X7.5559Y-3.1272
X7.7Y-5.28
X7.9Y-5.86
X7.95Y-0.73
X7.98Y-5.28
X8.12Y-5.28
X8.26Y-5.28
X8.88Y-1.36
X8.88Y-1.46
X8.88Y-1.56
X8.88Y-1.66
X8.88Y-1.76
X8.88Y-1.86
X9.01Y-4.05
X9.11Y-4.05
X9.13Y-4.35
X9.18Y-4.82
X9.21Y-4.05
X9.31Y-4.05
X9.41Y-4.05
X9.51Y-4.05
X9.61Y-4.05
X9.71Y-4.05
X9.81Y-4.05
X9.91Y-4.05
X10.01Y-4.05
X10.11Y-4.05
X10.21Y-4.05
X10.31Y-4.05
X10.37Y-4.31
X10.41Y-4.05
X10.49Y-1.09
X10.51Y-4.05
X10.51Y-4.31
X10.61Y-4.05
X10.64Y-1.09
X10.65Y-4.31
X10.71Y-4.05
X10.79Y-1.09
X10.79Y-4.31
T8
X7.18Y-0.73
X7.5737Y-0.73
X10.1994Y-0.76
X10.3963Y-0.76
X10.5931Y-0.76
X10.79Y-0.76
T0
M30
