G04 #@! TF.FileFunction,Other,User*
%FSLAX46Y46*%
G04 Gerber Fmt 4.6, Leading zero omitted, Abs format (unit mm)*
G04 Created by KiCad (PCBNEW 4.0.6) date 01/22/18 18:48:35*
%MOMM*%
%LPD*%
G01*
G04 APERTURE LIST*
%ADD10C,0.100000*%
%ADD11C,0.050000*%
G04 APERTURE END LIST*
D10*
D11*
X234476000Y-47972000D02*
X245076000Y-47972000D01*
X234476000Y-37372000D02*
X245076000Y-37372000D01*
X234476000Y-47972000D02*
X234476000Y-37372000D01*
X245076000Y-47972000D02*
X245076000Y-37372000D01*
X242634000Y-25590000D02*
X242634000Y-20130000D01*
X242634000Y-25590000D02*
X247374000Y-25590000D01*
X247374000Y-20130000D02*
X242634000Y-20130000D01*
X247374000Y-20130000D02*
X247374000Y-25590000D01*
X223752000Y-104670000D02*
X270502000Y-104670000D01*
X270502000Y-104670000D02*
X270502000Y-101070000D01*
X270502000Y-101070000D02*
X223752000Y-101070000D01*
X223752000Y-101070000D02*
X223752000Y-104670000D01*
X223752000Y-32744000D02*
X223752000Y-49044000D01*
X223752000Y-49044000D02*
X227352000Y-49044000D01*
X227352000Y-49044000D02*
X227352000Y-32744000D01*
X227352000Y-32744000D02*
X223752000Y-32744000D01*
X183620000Y-46714000D02*
X183620000Y-63014000D01*
X183620000Y-63014000D02*
X187220000Y-63014000D01*
X187220000Y-63014000D02*
X187220000Y-46714000D01*
X187220000Y-46714000D02*
X183620000Y-46714000D01*
X261048000Y-30162000D02*
X255588000Y-30162000D01*
X261048000Y-30162000D02*
X261048000Y-25422000D01*
X255588000Y-25422000D02*
X255588000Y-30162000D01*
X255588000Y-25422000D02*
X261048000Y-25422000D01*
X234252000Y-25590000D02*
X234252000Y-20130000D01*
X234252000Y-25590000D02*
X238992000Y-25590000D01*
X238992000Y-20130000D02*
X234252000Y-20130000D01*
X238992000Y-20130000D02*
X238992000Y-25590000D01*
X225870000Y-25590000D02*
X225870000Y-20130000D01*
X225870000Y-25590000D02*
X230610000Y-25590000D01*
X230610000Y-20130000D02*
X225870000Y-20130000D01*
X230610000Y-20130000D02*
X230610000Y-25590000D01*
X217488000Y-25590000D02*
X217488000Y-20130000D01*
X217488000Y-25590000D02*
X222228000Y-25590000D01*
X222228000Y-20130000D02*
X217488000Y-20130000D01*
X222228000Y-20130000D02*
X222228000Y-25590000D01*
X209106000Y-25590000D02*
X209106000Y-20130000D01*
X209106000Y-25590000D02*
X213846000Y-25590000D01*
X213846000Y-20130000D02*
X209106000Y-20130000D01*
X213846000Y-20130000D02*
X213846000Y-25590000D01*
X211138000Y-78804000D02*
X216598000Y-78804000D01*
X211138000Y-78804000D02*
X211138000Y-83544000D01*
X216598000Y-83544000D02*
X216598000Y-78804000D01*
X216598000Y-83544000D02*
X211138000Y-83544000D01*
X196626000Y-73780000D02*
X187876000Y-73780000D01*
X196576000Y-80530000D02*
X196576000Y-73830000D01*
X187876000Y-80530000D02*
X196576000Y-80530000D01*
X187876000Y-73780000D02*
X187876000Y-80530000D01*
X191952000Y-144424000D02*
X195652000Y-144424000D01*
X191952000Y-138024000D02*
X195652000Y-138024000D01*
X191952000Y-144424000D02*
X191952000Y-138024000D01*
X195652000Y-144424000D02*
X195652000Y-138024000D01*
X183276000Y-28426000D02*
X183276000Y-32026000D01*
X183276000Y-28426000D02*
X181976000Y-28426000D01*
X181976000Y-32026000D02*
X183276000Y-32026000D01*
X181976000Y-32026000D02*
X181976000Y-28426000D01*
X267186000Y-52182000D02*
X270786000Y-52182000D01*
X267186000Y-52182000D02*
X267186000Y-53482000D01*
X270786000Y-53482000D02*
X270786000Y-52182000D01*
X270786000Y-53482000D02*
X267186000Y-53482000D01*
X228622000Y-125872000D02*
X225022000Y-125872000D01*
X228622000Y-125872000D02*
X228622000Y-124572000D01*
X225022000Y-124572000D02*
X225022000Y-125872000D01*
X225022000Y-124572000D02*
X228622000Y-124572000D01*
X228368000Y-120284000D02*
X224768000Y-120284000D01*
X228368000Y-120284000D02*
X228368000Y-118984000D01*
X224768000Y-118984000D02*
X224768000Y-120284000D01*
X224768000Y-118984000D02*
X228368000Y-118984000D01*
X256308000Y-51704000D02*
X252708000Y-51704000D01*
X256308000Y-51704000D02*
X256308000Y-50404000D01*
X252708000Y-50404000D02*
X252708000Y-51704000D01*
X252708000Y-50404000D02*
X256308000Y-50404000D01*
X207496000Y-123810000D02*
X211096000Y-123810000D01*
X207496000Y-123810000D02*
X207496000Y-125110000D01*
X211096000Y-125110000D02*
X211096000Y-123810000D01*
X211096000Y-125110000D02*
X207496000Y-125110000D01*
X256308000Y-53736000D02*
X252708000Y-53736000D01*
X256308000Y-53736000D02*
X256308000Y-52436000D01*
X252708000Y-52436000D02*
X252708000Y-53736000D01*
X252708000Y-52436000D02*
X256308000Y-52436000D01*
X212620000Y-129174000D02*
X209020000Y-129174000D01*
X212620000Y-129174000D02*
X212620000Y-127874000D01*
X209020000Y-127874000D02*
X209020000Y-129174000D01*
X209020000Y-127874000D02*
X212620000Y-127874000D01*
X197380000Y-110632000D02*
X193780000Y-110632000D01*
X197380000Y-110632000D02*
X197380000Y-109332000D01*
X193780000Y-109332000D02*
X193780000Y-110632000D01*
X193780000Y-109332000D02*
X197380000Y-109332000D01*
X187176000Y-121016000D02*
X190776000Y-121016000D01*
X187176000Y-121016000D02*
X187176000Y-122316000D01*
X190776000Y-122316000D02*
X190776000Y-121016000D01*
X190776000Y-122316000D02*
X187176000Y-122316000D01*
X209114000Y-80828000D02*
X209114000Y-75128000D01*
X209114000Y-75128000D02*
X203414000Y-75128000D01*
X203414000Y-75128000D02*
X203414000Y-80828000D01*
X203414000Y-80828000D02*
X209114000Y-80828000D01*
X201444000Y-92090000D02*
X197844000Y-92090000D01*
X201444000Y-92090000D02*
X201444000Y-90790000D01*
X197844000Y-90790000D02*
X197844000Y-92090000D01*
X197844000Y-90790000D02*
X201444000Y-90790000D01*
X214234000Y-143024000D02*
X214234000Y-139424000D01*
X214234000Y-143024000D02*
X215534000Y-143024000D01*
X215534000Y-139424000D02*
X214234000Y-139424000D01*
X215534000Y-139424000D02*
X215534000Y-143024000D01*
X203088000Y-139170000D02*
X203088000Y-142770000D01*
X203088000Y-139170000D02*
X201788000Y-139170000D01*
X201788000Y-142770000D02*
X203088000Y-142770000D01*
X201788000Y-142770000D02*
X201788000Y-139170000D01*
X205718000Y-145400000D02*
X209318000Y-145400000D01*
X205718000Y-145400000D02*
X205718000Y-146700000D01*
X209318000Y-146700000D02*
X209318000Y-145400000D01*
X209318000Y-146700000D02*
X205718000Y-146700000D01*
X192256000Y-145654000D02*
X195856000Y-145654000D01*
X192256000Y-145654000D02*
X192256000Y-146954000D01*
X195856000Y-146954000D02*
X195856000Y-145654000D01*
X195856000Y-146954000D02*
X192256000Y-146954000D01*
X211978000Y-139424000D02*
X211978000Y-143024000D01*
X211978000Y-139424000D02*
X210678000Y-139424000D01*
X210678000Y-143024000D02*
X211978000Y-143024000D01*
X210678000Y-143024000D02*
X210678000Y-139424000D01*
X200040000Y-139170000D02*
X200040000Y-142770000D01*
X200040000Y-139170000D02*
X198740000Y-139170000D01*
X198740000Y-142770000D02*
X200040000Y-142770000D01*
X198740000Y-142770000D02*
X198740000Y-139170000D01*
X196992000Y-139170000D02*
X196992000Y-142770000D01*
X196992000Y-139170000D02*
X195692000Y-139170000D01*
X195692000Y-142770000D02*
X196992000Y-142770000D01*
X195692000Y-142770000D02*
X195692000Y-139170000D01*
X216218000Y-91578000D02*
X211518000Y-91578000D01*
X216218000Y-91578000D02*
X216218000Y-89778000D01*
X211518000Y-89778000D02*
X211518000Y-91578000D01*
X211518000Y-89778000D02*
X216218000Y-89778000D01*
X183366000Y-107166000D02*
X183366000Y-123466000D01*
X183366000Y-123466000D02*
X186966000Y-123466000D01*
X186966000Y-123466000D02*
X186966000Y-107166000D01*
X186966000Y-107166000D02*
X183366000Y-107166000D01*
X255208000Y-26488000D02*
X255208000Y-30398000D01*
X255208000Y-26488000D02*
X253808000Y-26488000D01*
X253808000Y-30398000D02*
X255208000Y-30398000D01*
X253808000Y-30398000D02*
X253808000Y-26488000D01*
X266010000Y-40702000D02*
X269920000Y-40702000D01*
X266010000Y-40702000D02*
X266010000Y-42102000D01*
X269920000Y-42102000D02*
X269920000Y-40702000D01*
X269920000Y-42102000D02*
X266010000Y-42102000D01*
X224608000Y-115378000D02*
X228518000Y-115378000D01*
X224608000Y-115378000D02*
X224608000Y-116778000D01*
X228518000Y-116778000D02*
X228518000Y-115378000D01*
X228518000Y-116778000D02*
X224608000Y-116778000D01*
X267026000Y-50100000D02*
X270936000Y-50100000D01*
X267026000Y-50100000D02*
X267026000Y-51500000D01*
X270936000Y-51500000D02*
X270936000Y-50100000D01*
X270936000Y-51500000D02*
X267026000Y-51500000D01*
X224862000Y-126046000D02*
X228772000Y-126046000D01*
X224862000Y-126046000D02*
X224862000Y-127446000D01*
X228772000Y-127446000D02*
X228772000Y-126046000D01*
X228772000Y-127446000D02*
X224862000Y-127446000D01*
X270438000Y-45658000D02*
X266528000Y-45658000D01*
X270438000Y-45658000D02*
X270438000Y-44258000D01*
X266528000Y-44258000D02*
X266528000Y-45658000D01*
X266528000Y-44258000D02*
X270438000Y-44258000D01*
X228528000Y-118810000D02*
X224618000Y-118810000D01*
X228528000Y-118810000D02*
X228528000Y-117410000D01*
X224618000Y-117410000D02*
X224618000Y-118810000D01*
X224618000Y-117410000D02*
X228528000Y-117410000D01*
X267026000Y-48068000D02*
X270936000Y-48068000D01*
X267026000Y-48068000D02*
X267026000Y-49468000D01*
X270936000Y-49468000D02*
X270936000Y-48068000D01*
X270936000Y-49468000D02*
X267026000Y-49468000D01*
X224862000Y-128078000D02*
X228772000Y-128078000D01*
X224862000Y-128078000D02*
X224862000Y-129478000D01*
X228772000Y-129478000D02*
X228772000Y-128078000D01*
X228772000Y-129478000D02*
X224862000Y-129478000D01*
X255198000Y-49722000D02*
X251288000Y-49722000D01*
X255198000Y-49722000D02*
X255198000Y-48322000D01*
X251288000Y-48322000D02*
X251288000Y-49722000D01*
X251288000Y-48322000D02*
X255198000Y-48322000D01*
X211256000Y-126684000D02*
X207346000Y-126684000D01*
X211256000Y-126684000D02*
X211256000Y-125284000D01*
X207346000Y-125284000D02*
X207346000Y-126684000D01*
X207346000Y-125284000D02*
X211256000Y-125284000D01*
X255452000Y-44642000D02*
X251542000Y-44642000D01*
X255452000Y-44642000D02*
X255452000Y-43242000D01*
X251542000Y-43242000D02*
X251542000Y-44642000D01*
X251542000Y-43242000D02*
X255452000Y-43242000D01*
X212780000Y-121604000D02*
X208870000Y-121604000D01*
X212780000Y-121604000D02*
X212780000Y-120204000D01*
X208870000Y-120204000D02*
X208870000Y-121604000D01*
X208870000Y-120204000D02*
X212780000Y-120204000D01*
X242508000Y-22170000D02*
X242508000Y-26080000D01*
X242508000Y-22170000D02*
X241108000Y-22170000D01*
X241108000Y-26080000D02*
X242508000Y-26080000D01*
X241108000Y-26080000D02*
X241108000Y-22170000D01*
X239206000Y-14804000D02*
X239206000Y-18714000D01*
X239206000Y-14804000D02*
X237806000Y-14804000D01*
X237806000Y-18714000D02*
X239206000Y-18714000D01*
X237806000Y-18714000D02*
X237806000Y-14804000D01*
X234126000Y-22170000D02*
X234126000Y-26080000D01*
X234126000Y-22170000D02*
X232726000Y-22170000D01*
X232726000Y-26080000D02*
X234126000Y-26080000D01*
X232726000Y-26080000D02*
X232726000Y-22170000D01*
X230824000Y-14804000D02*
X230824000Y-18714000D01*
X230824000Y-14804000D02*
X229424000Y-14804000D01*
X229424000Y-18714000D02*
X230824000Y-18714000D01*
X229424000Y-18714000D02*
X229424000Y-14804000D01*
X225744000Y-22170000D02*
X225744000Y-26080000D01*
X225744000Y-22170000D02*
X224344000Y-22170000D01*
X224344000Y-26080000D02*
X225744000Y-26080000D01*
X224344000Y-26080000D02*
X224344000Y-22170000D01*
X222442000Y-14804000D02*
X222442000Y-18714000D01*
X222442000Y-14804000D02*
X221042000Y-14804000D01*
X221042000Y-18714000D02*
X222442000Y-18714000D01*
X221042000Y-18714000D02*
X221042000Y-14804000D01*
X217362000Y-22170000D02*
X217362000Y-26080000D01*
X217362000Y-22170000D02*
X215962000Y-22170000D01*
X215962000Y-26080000D02*
X217362000Y-26080000D01*
X215962000Y-26080000D02*
X215962000Y-22170000D01*
X214060000Y-14804000D02*
X214060000Y-18714000D01*
X214060000Y-14804000D02*
X212660000Y-14804000D01*
X212660000Y-18714000D02*
X214060000Y-18714000D01*
X212660000Y-18714000D02*
X212660000Y-14804000D01*
X208980000Y-22170000D02*
X208980000Y-26080000D01*
X208980000Y-22170000D02*
X207580000Y-22170000D01*
X207580000Y-26080000D02*
X208980000Y-26080000D01*
X207580000Y-26080000D02*
X207580000Y-22170000D01*
X205678000Y-14804000D02*
X205678000Y-18714000D01*
X205678000Y-14804000D02*
X204278000Y-14804000D01*
X204278000Y-18714000D02*
X205678000Y-18714000D01*
X204278000Y-18714000D02*
X204278000Y-14804000D01*
X184720000Y-78160000D02*
X184720000Y-74250000D01*
X184720000Y-78160000D02*
X186120000Y-78160000D01*
X186120000Y-74250000D02*
X184720000Y-74250000D01*
X186120000Y-74250000D02*
X186120000Y-78160000D01*
X184596000Y-74240000D02*
X184596000Y-78150000D01*
X184596000Y-74240000D02*
X183196000Y-74240000D01*
X183196000Y-78150000D02*
X184596000Y-78150000D01*
X183196000Y-78150000D02*
X183196000Y-74240000D01*
X221680000Y-40204000D02*
X221680000Y-44114000D01*
X221680000Y-40204000D02*
X220280000Y-40204000D01*
X220280000Y-44114000D02*
X221680000Y-44114000D01*
X220280000Y-44114000D02*
X220280000Y-40204000D01*
X218756000Y-44124000D02*
X218756000Y-40214000D01*
X218756000Y-44124000D02*
X220156000Y-44124000D01*
X220156000Y-40214000D02*
X218756000Y-40214000D01*
X220156000Y-40214000D02*
X220156000Y-44124000D01*
X218632000Y-40204000D02*
X218632000Y-44114000D01*
X218632000Y-40204000D02*
X217232000Y-40204000D01*
X217232000Y-44114000D02*
X218632000Y-44114000D01*
X217232000Y-44114000D02*
X217232000Y-40204000D01*
X215708000Y-44124000D02*
X215708000Y-40214000D01*
X215708000Y-44124000D02*
X217108000Y-44124000D01*
X217108000Y-40214000D02*
X215708000Y-40214000D01*
X217108000Y-40214000D02*
X217108000Y-44124000D01*
X215584000Y-40204000D02*
X215584000Y-44114000D01*
X215584000Y-40204000D02*
X214184000Y-40204000D01*
X214184000Y-44114000D02*
X215584000Y-44114000D01*
X214184000Y-44114000D02*
X214184000Y-40204000D01*
X212660000Y-44124000D02*
X212660000Y-40214000D01*
X212660000Y-44124000D02*
X214060000Y-44124000D01*
X214060000Y-40214000D02*
X212660000Y-40214000D01*
X214060000Y-40214000D02*
X214060000Y-44124000D01*
X212536000Y-40204000D02*
X212536000Y-44114000D01*
X212536000Y-40204000D02*
X211136000Y-40204000D01*
X211136000Y-44114000D02*
X212536000Y-44114000D01*
X211136000Y-44114000D02*
X211136000Y-40204000D01*
X209612000Y-44124000D02*
X209612000Y-40214000D01*
X209612000Y-44124000D02*
X211012000Y-44124000D01*
X211012000Y-40214000D02*
X209612000Y-40214000D01*
X211012000Y-40214000D02*
X211012000Y-44124000D01*
X208208000Y-75122000D02*
X204298000Y-75122000D01*
X208208000Y-75122000D02*
X208208000Y-73722000D01*
X204298000Y-73722000D02*
X204298000Y-75122000D01*
X204298000Y-73722000D02*
X208208000Y-73722000D01*
X202112000Y-84266000D02*
X198202000Y-84266000D01*
X202112000Y-84266000D02*
X202112000Y-82866000D01*
X198202000Y-82866000D02*
X198202000Y-84266000D01*
X198202000Y-82866000D02*
X202112000Y-82866000D01*
X201604000Y-90616000D02*
X197694000Y-90616000D01*
X201604000Y-90616000D02*
X201604000Y-89216000D01*
X197694000Y-89216000D02*
X197694000Y-90616000D01*
X197694000Y-89216000D02*
X201604000Y-89216000D01*
X211908000Y-85152000D02*
X215818000Y-85152000D01*
X211908000Y-85152000D02*
X211908000Y-86552000D01*
X215818000Y-86552000D02*
X215818000Y-85152000D01*
X215818000Y-86552000D02*
X211908000Y-86552000D01*
X211908000Y-86676000D02*
X215818000Y-86676000D01*
X211908000Y-86676000D02*
X211908000Y-88076000D01*
X215818000Y-88076000D02*
X215818000Y-86676000D01*
X215818000Y-88076000D02*
X211908000Y-88076000D01*
X208462000Y-92902000D02*
X204552000Y-92902000D01*
X208462000Y-92902000D02*
X208462000Y-91502000D01*
X204552000Y-91502000D02*
X204552000Y-92902000D01*
X204552000Y-91502000D02*
X208462000Y-91502000D01*
X215828000Y-89600000D02*
X211918000Y-89600000D01*
X215828000Y-89600000D02*
X215828000Y-88200000D01*
X211918000Y-88200000D02*
X211918000Y-89600000D01*
X211918000Y-88200000D02*
X215828000Y-88200000D01*
X211908000Y-83628000D02*
X215818000Y-83628000D01*
X211908000Y-83628000D02*
X211908000Y-85028000D01*
X215818000Y-85028000D02*
X215818000Y-83628000D01*
X215818000Y-85028000D02*
X211908000Y-85028000D01*
X213552000Y-139264000D02*
X213552000Y-143174000D01*
X213552000Y-139264000D02*
X212152000Y-139264000D01*
X212152000Y-143174000D02*
X213552000Y-143174000D01*
X212152000Y-143174000D02*
X212152000Y-139264000D01*
X201614000Y-139010000D02*
X201614000Y-142920000D01*
X201614000Y-139010000D02*
X200214000Y-139010000D01*
X200214000Y-142920000D02*
X201614000Y-142920000D01*
X200214000Y-142920000D02*
X200214000Y-139010000D01*
X209104000Y-143184000D02*
X209104000Y-139274000D01*
X209104000Y-143184000D02*
X210504000Y-143184000D01*
X210504000Y-139274000D02*
X209104000Y-139274000D01*
X210504000Y-139274000D02*
X210504000Y-143184000D01*
X197166000Y-142930000D02*
X197166000Y-139020000D01*
X197166000Y-142930000D02*
X198566000Y-142930000D01*
X198566000Y-139020000D02*
X197166000Y-139020000D01*
X198566000Y-139020000D02*
X198566000Y-142930000D01*
X205160000Y-144424000D02*
X208860000Y-144424000D01*
X205160000Y-138024000D02*
X208860000Y-138024000D01*
X205160000Y-144424000D02*
X205160000Y-138024000D01*
X208860000Y-144424000D02*
X208860000Y-138024000D01*
X239320000Y-19984000D02*
X245820000Y-19984000D01*
X245820000Y-19984000D02*
X245820000Y-13534000D01*
X245820000Y-13534000D02*
X239320000Y-13534000D01*
X239320000Y-13534000D02*
X239320000Y-19984000D01*
X230938000Y-19984000D02*
X237438000Y-19984000D01*
X237438000Y-19984000D02*
X237438000Y-13534000D01*
X237438000Y-13534000D02*
X230938000Y-13534000D01*
X230938000Y-13534000D02*
X230938000Y-19984000D01*
X222556000Y-19984000D02*
X229056000Y-19984000D01*
X229056000Y-19984000D02*
X229056000Y-13534000D01*
X229056000Y-13534000D02*
X222556000Y-13534000D01*
X222556000Y-13534000D02*
X222556000Y-19984000D01*
X214174000Y-19984000D02*
X220674000Y-19984000D01*
X220674000Y-19984000D02*
X220674000Y-13534000D01*
X220674000Y-13534000D02*
X214174000Y-13534000D01*
X214174000Y-13534000D02*
X214174000Y-19984000D01*
X205792000Y-19984000D02*
X212292000Y-19984000D01*
X212292000Y-19984000D02*
X212292000Y-13534000D01*
X212292000Y-13534000D02*
X205792000Y-13534000D01*
X205792000Y-13534000D02*
X205792000Y-19984000D01*
X205384000Y-26500000D02*
X184524000Y-26500000D01*
X184524000Y-26500000D02*
X184524000Y-37000000D01*
X184524000Y-37000000D02*
X205384000Y-37000000D01*
X205384000Y-37000000D02*
X205384000Y-26500000D01*
X271058000Y-40446000D02*
X271058000Y-35246000D01*
X271058000Y-35246000D02*
X250658000Y-35246000D01*
X250658000Y-35246000D02*
X250658000Y-40446000D01*
X250658000Y-40446000D02*
X271058000Y-40446000D01*
X228132000Y-114360000D02*
X228132000Y-109160000D01*
X228132000Y-109160000D02*
X207732000Y-109160000D01*
X207732000Y-109160000D02*
X207732000Y-114360000D01*
X207732000Y-114360000D02*
X228132000Y-114360000D01*
X201644000Y-89088000D02*
X197644000Y-89088000D01*
X197644000Y-89088000D02*
X197644000Y-87188000D01*
X201644000Y-87188000D02*
X197644000Y-87188000D01*
X201644000Y-89088000D02*
X201644000Y-87188000D01*
X266932000Y-107674000D02*
X266932000Y-111274000D01*
X266932000Y-111274000D02*
X270532000Y-111274000D01*
X270532000Y-111274000D02*
X270532000Y-107674000D01*
X270532000Y-107674000D02*
X266932000Y-107674000D01*
X263376000Y-107674000D02*
X263376000Y-111274000D01*
X263376000Y-111274000D02*
X266976000Y-111274000D01*
X266976000Y-111274000D02*
X266976000Y-107674000D01*
X266976000Y-107674000D02*
X263376000Y-107674000D01*
X272056000Y-29486000D02*
X272056000Y-25886000D01*
X272056000Y-25886000D02*
X268456000Y-25886000D01*
X268456000Y-25886000D02*
X268456000Y-29486000D01*
X268456000Y-29486000D02*
X272056000Y-29486000D01*
X230102000Y-108690000D02*
X230102000Y-112290000D01*
X230102000Y-112290000D02*
X233702000Y-112290000D01*
X233702000Y-112290000D02*
X233702000Y-108690000D01*
X233702000Y-108690000D02*
X230102000Y-108690000D01*
X268500000Y-29486000D02*
X268500000Y-25886000D01*
X268500000Y-25886000D02*
X264900000Y-25886000D01*
X264900000Y-25886000D02*
X264900000Y-29486000D01*
X264900000Y-29486000D02*
X268500000Y-29486000D01*
X204448000Y-132312000D02*
X204448000Y-135912000D01*
X204448000Y-135912000D02*
X208048000Y-135912000D01*
X208048000Y-135912000D02*
X208048000Y-132312000D01*
X208048000Y-132312000D02*
X204448000Y-132312000D01*
X256264000Y-107674000D02*
X256264000Y-111274000D01*
X256264000Y-111274000D02*
X259864000Y-111274000D01*
X259864000Y-111274000D02*
X259864000Y-107674000D01*
X259864000Y-107674000D02*
X256264000Y-107674000D01*
X193780000Y-132312000D02*
X193780000Y-135912000D01*
X193780000Y-135912000D02*
X197380000Y-135912000D01*
X197380000Y-135912000D02*
X197380000Y-132312000D01*
X197380000Y-132312000D02*
X193780000Y-132312000D01*
X200892000Y-132312000D02*
X200892000Y-135912000D01*
X200892000Y-135912000D02*
X204492000Y-135912000D01*
X204492000Y-135912000D02*
X204492000Y-132312000D01*
X204492000Y-132312000D02*
X200892000Y-132312000D01*
X259820000Y-107674000D02*
X259820000Y-111274000D01*
X259820000Y-111274000D02*
X263420000Y-111274000D01*
X263420000Y-111274000D02*
X263420000Y-107674000D01*
X263420000Y-107674000D02*
X259820000Y-107674000D01*
X186668000Y-139424000D02*
X186668000Y-143024000D01*
X186668000Y-143024000D02*
X190268000Y-143024000D01*
X190268000Y-143024000D02*
X190268000Y-139424000D01*
X190268000Y-139424000D02*
X186668000Y-139424000D01*
X210798000Y-60938000D02*
X210798000Y-64538000D01*
X210798000Y-64538000D02*
X214398000Y-64538000D01*
X214398000Y-64538000D02*
X214398000Y-60938000D01*
X214398000Y-60938000D02*
X210798000Y-60938000D01*
X231372000Y-120628000D02*
X231372000Y-124228000D01*
X231372000Y-124228000D02*
X234972000Y-124228000D01*
X234972000Y-124228000D02*
X234972000Y-120628000D01*
X234972000Y-120628000D02*
X231372000Y-120628000D01*
X264944000Y-29486000D02*
X264944000Y-25886000D01*
X264944000Y-25886000D02*
X261344000Y-25886000D01*
X261344000Y-25886000D02*
X261344000Y-29486000D01*
X261344000Y-29486000D02*
X264944000Y-29486000D01*
X208004000Y-132312000D02*
X208004000Y-135912000D01*
X208004000Y-135912000D02*
X211604000Y-135912000D01*
X211604000Y-135912000D02*
X211604000Y-132312000D01*
X211604000Y-132312000D02*
X208004000Y-132312000D01*
X198860000Y-147044000D02*
X198860000Y-150644000D01*
X198860000Y-150644000D02*
X202460000Y-150644000D01*
X202460000Y-150644000D02*
X202460000Y-147044000D01*
X202460000Y-147044000D02*
X198860000Y-147044000D01*
X233030000Y-49298000D02*
X233030000Y-45698000D01*
X233030000Y-49298000D02*
X234330000Y-49298000D01*
X234330000Y-45698000D02*
X233030000Y-45698000D01*
X234330000Y-45698000D02*
X234330000Y-49298000D01*
X239544000Y-36972000D02*
X235944000Y-36972000D01*
X239544000Y-36972000D02*
X239544000Y-35672000D01*
X235944000Y-35672000D02*
X235944000Y-36972000D01*
X235944000Y-35672000D02*
X239544000Y-35672000D01*
X228578000Y-45324000D02*
X232178000Y-45324000D01*
X228578000Y-45324000D02*
X228578000Y-46624000D01*
X232178000Y-46624000D02*
X232178000Y-45324000D01*
X232178000Y-46624000D02*
X228578000Y-46624000D01*
X198396000Y-49672000D02*
X194796000Y-49672000D01*
X198396000Y-49672000D02*
X198396000Y-48372000D01*
X194796000Y-48372000D02*
X194796000Y-49672000D01*
X194796000Y-48372000D02*
X198396000Y-48372000D01*
X189088000Y-60982000D02*
X189088000Y-57382000D01*
X189088000Y-60982000D02*
X190388000Y-60982000D01*
X190388000Y-57382000D02*
X189088000Y-57382000D01*
X190388000Y-57382000D02*
X190388000Y-60982000D01*
X199580000Y-107304000D02*
X204280000Y-107304000D01*
X199580000Y-107304000D02*
X199580000Y-109104000D01*
X204280000Y-109104000D02*
X204280000Y-107304000D01*
X204280000Y-109104000D02*
X199580000Y-109104000D01*
X241236000Y-33644000D02*
X245936000Y-33644000D01*
X241236000Y-33644000D02*
X241236000Y-35444000D01*
X245936000Y-35444000D02*
X245936000Y-33644000D01*
X245936000Y-35444000D02*
X241236000Y-35444000D01*
X189676000Y-110562000D02*
X189676000Y-114472000D01*
X189676000Y-110562000D02*
X188276000Y-110562000D01*
X188276000Y-114472000D02*
X189676000Y-114472000D01*
X188276000Y-114472000D02*
X188276000Y-110562000D01*
X191200000Y-110562000D02*
X191200000Y-114472000D01*
X191200000Y-110562000D02*
X189800000Y-110562000D01*
X189800000Y-114472000D02*
X191200000Y-114472000D01*
X189800000Y-114472000D02*
X189800000Y-110562000D01*
X204144000Y-110682000D02*
X200234000Y-110682000D01*
X204144000Y-110682000D02*
X204144000Y-109282000D01*
X200234000Y-109282000D02*
X200234000Y-110682000D01*
X200234000Y-109282000D02*
X204144000Y-109282000D01*
X245800000Y-37022000D02*
X241890000Y-37022000D01*
X245800000Y-37022000D02*
X245800000Y-35622000D01*
X241890000Y-35622000D02*
X241890000Y-37022000D01*
X241890000Y-35622000D02*
X245800000Y-35622000D01*
X190438000Y-49602000D02*
X190438000Y-53512000D01*
X190438000Y-49602000D02*
X189038000Y-49602000D01*
X189038000Y-53512000D02*
X190438000Y-53512000D01*
X189038000Y-53512000D02*
X189038000Y-49602000D01*
X192216000Y-49602000D02*
X192216000Y-53512000D01*
X192216000Y-49602000D02*
X190816000Y-49602000D01*
X190816000Y-53512000D02*
X192216000Y-53512000D01*
X190816000Y-53512000D02*
X190816000Y-49602000D01*
X193020000Y-123276000D02*
X193020000Y-127676000D01*
X193020000Y-127676000D02*
X203220000Y-127676000D01*
X203220000Y-127676000D02*
X203220000Y-123276000D01*
X203220000Y-123276000D02*
X193020000Y-123276000D01*
X234676000Y-49108000D02*
X234676000Y-53508000D01*
X234676000Y-53508000D02*
X244876000Y-53508000D01*
X244876000Y-53508000D02*
X244876000Y-49108000D01*
X244876000Y-49108000D02*
X234676000Y-49108000D01*
X193020000Y-62824000D02*
X193020000Y-67224000D01*
X193020000Y-67224000D02*
X203220000Y-67224000D01*
X203220000Y-67224000D02*
X203220000Y-62824000D01*
X203220000Y-62824000D02*
X193020000Y-62824000D01*
X192820000Y-121632000D02*
X203420000Y-121632000D01*
X192820000Y-111032000D02*
X203420000Y-111032000D01*
X192820000Y-121632000D02*
X192820000Y-111032000D01*
X203420000Y-121632000D02*
X203420000Y-111032000D01*
X193328000Y-60672000D02*
X203928000Y-60672000D01*
X193328000Y-50072000D02*
X203928000Y-50072000D01*
X193328000Y-60672000D02*
X193328000Y-50072000D01*
X203928000Y-60672000D02*
X203928000Y-50072000D01*
X219272000Y-35744000D02*
X221672000Y-35744000D01*
X221672000Y-35744000D02*
X221672000Y-30894000D01*
X221672000Y-30894000D02*
X219272000Y-30894000D01*
X219272000Y-30894000D02*
X219272000Y-35744000D01*
X216224000Y-35744000D02*
X218624000Y-35744000D01*
X218624000Y-35744000D02*
X218624000Y-30894000D01*
X218624000Y-30894000D02*
X216224000Y-30894000D01*
X216224000Y-30894000D02*
X216224000Y-35744000D01*
X213176000Y-35744000D02*
X215576000Y-35744000D01*
X215576000Y-35744000D02*
X215576000Y-30894000D01*
X215576000Y-30894000D02*
X213176000Y-30894000D01*
X213176000Y-30894000D02*
X213176000Y-35744000D01*
X210128000Y-35744000D02*
X212528000Y-35744000D01*
X212528000Y-35744000D02*
X212528000Y-30894000D01*
X212528000Y-30894000D02*
X210128000Y-30894000D01*
X210128000Y-30894000D02*
X210128000Y-35744000D01*
M02*
