G04 #@! TF.FileFunction,Copper,L1,Top,Signal*
%FSLAX46Y46*%
G04 Gerber Fmt 4.6, Leading zero omitted, Abs format (unit mm)*
G04 Created by KiCad (PCBNEW 4.0.6) date 01/21/18 14:08:51*
%MOMM*%
%LPD*%
G01*
G04 APERTURE LIST*
%ADD10C,0.100000*%
%ADD11C,2.540000*%
%ADD12R,0.550000X1.600000*%
%ADD13R,1.600000X0.550000*%
%ADD14C,1.000000*%
%ADD15R,1.000000X1.000000*%
%ADD16C,1.100000*%
%ADD17R,1.700000X1.700000*%
%ADD18O,1.700000X1.700000*%
%ADD19C,1.700000*%
%ADD20R,2.200000X0.600000*%
%ADD21R,0.450000X1.450000*%
%ADD22R,0.750000X1.200000*%
%ADD23R,1.200000X0.750000*%
%ADD24R,1.600000X1.600000*%
%ADD25C,1.600000*%
%ADD26R,1.500000X1.300000*%
%ADD27C,3.048000*%
%ADD28R,0.900000X1.200000*%
%ADD29R,1.200000X0.900000*%
%ADD30R,1.143000X0.508000*%
%ADD31R,1.800000X1.800000*%
%ADD32C,1.800000*%
%ADD33O,1.800000X1.800000*%
%ADD34R,7.875000X2.000000*%
%ADD35R,2.450000X3.800000*%
%ADD36C,1.400000*%
%ADD37O,1.400000X1.400000*%
%ADD38C,0.600000*%
%ADD39C,0.381000*%
%ADD40C,1.016000*%
%ADD41C,0.250000*%
%ADD42C,0.508000*%
G04 APERTURE END LIST*
D10*
D11*
X270256000Y-19304000D03*
X265256000Y-19304000D03*
X260256000Y-19304000D03*
X255256000Y-19304000D03*
D12*
X236976000Y-46922000D03*
X237776000Y-46922000D03*
X238576000Y-46922000D03*
X239376000Y-46922000D03*
X240176000Y-46922000D03*
X240976000Y-46922000D03*
X241776000Y-46922000D03*
X242576000Y-46922000D03*
D13*
X244026000Y-45472000D03*
X244026000Y-44672000D03*
X244026000Y-43872000D03*
X244026000Y-43072000D03*
X244026000Y-42272000D03*
X244026000Y-41472000D03*
X244026000Y-40672000D03*
X244026000Y-39872000D03*
D12*
X242576000Y-38422000D03*
X241776000Y-38422000D03*
X240976000Y-38422000D03*
X240176000Y-38422000D03*
X239376000Y-38422000D03*
X238576000Y-38422000D03*
X237776000Y-38422000D03*
X236976000Y-38422000D03*
D13*
X235526000Y-39872000D03*
X235526000Y-40672000D03*
X235526000Y-41472000D03*
X235526000Y-42272000D03*
X235526000Y-43072000D03*
X235526000Y-43872000D03*
X235526000Y-44672000D03*
X235526000Y-45472000D03*
D14*
X244094000Y-22860000D03*
X245364000Y-21590000D03*
D15*
X245364000Y-24130000D03*
D16*
X182880000Y-40386000D03*
X184880000Y-40386000D03*
D17*
X225552000Y-102870000D03*
D18*
X228092000Y-102870000D03*
X230632000Y-102870000D03*
X233172000Y-102870000D03*
X235712000Y-102870000D03*
X238252000Y-102870000D03*
X240792000Y-102870000D03*
X243332000Y-102870000D03*
X245872000Y-102870000D03*
X248412000Y-102870000D03*
X250952000Y-102870000D03*
X253492000Y-102870000D03*
X256032000Y-102870000D03*
X258572000Y-102870000D03*
X261112000Y-102870000D03*
X263652000Y-102870000D03*
X266192000Y-102870000D03*
X268732000Y-102870000D03*
D17*
X225552000Y-34544000D03*
D18*
X225552000Y-37084000D03*
X225552000Y-39624000D03*
X225552000Y-42164000D03*
X225552000Y-44704000D03*
X225552000Y-47244000D03*
D17*
X185420000Y-48514000D03*
D18*
X185420000Y-51054000D03*
X185420000Y-53594000D03*
X185420000Y-56134000D03*
X185420000Y-58674000D03*
X185420000Y-61214000D03*
D14*
X258318000Y-28702000D03*
X257048000Y-27432000D03*
D15*
X259588000Y-27432000D03*
D14*
X235712000Y-22860000D03*
X236982000Y-21590000D03*
D15*
X236982000Y-24130000D03*
D14*
X227330000Y-22860000D03*
X228600000Y-21590000D03*
D15*
X228600000Y-24130000D03*
D14*
X218948000Y-22860000D03*
X220218000Y-21590000D03*
D15*
X220218000Y-24130000D03*
D14*
X210566000Y-22860000D03*
X211836000Y-21590000D03*
D15*
X211836000Y-24130000D03*
D14*
X213868000Y-80264000D03*
X215138000Y-81534000D03*
D15*
X212598000Y-81534000D03*
D19*
X195476000Y-79430000D03*
X188976000Y-79430000D03*
X195476000Y-74930000D03*
X188976000Y-74930000D03*
D20*
X215840000Y-128651000D03*
X221040000Y-128651000D03*
X215840000Y-127381000D03*
X221040000Y-127381000D03*
X215840000Y-126111000D03*
X221040000Y-126111000D03*
X215840000Y-124841000D03*
X221040000Y-124841000D03*
X215840000Y-123571000D03*
X221040000Y-123571000D03*
X215840000Y-122301000D03*
X221040000Y-122301000D03*
X215840000Y-121031000D03*
X221040000Y-121031000D03*
X215840000Y-119761000D03*
X221040000Y-119761000D03*
X215840000Y-118491000D03*
X221040000Y-118491000D03*
X215840000Y-117221000D03*
X221040000Y-117221000D03*
D21*
X192827000Y-143424000D03*
X193477000Y-143424000D03*
X194127000Y-143424000D03*
X194777000Y-143424000D03*
X194777000Y-139024000D03*
X194127000Y-139024000D03*
X193477000Y-139024000D03*
X192827000Y-139024000D03*
D22*
X182626000Y-29276000D03*
X182626000Y-31176000D03*
D23*
X268036000Y-52832000D03*
X269936000Y-52832000D03*
X227772000Y-125222000D03*
X225872000Y-125222000D03*
X227518000Y-119634000D03*
X225618000Y-119634000D03*
X255458000Y-51054000D03*
X253558000Y-51054000D03*
X208346000Y-124460000D03*
X210246000Y-124460000D03*
X255458000Y-53086000D03*
X253558000Y-53086000D03*
X211770000Y-128524000D03*
X209870000Y-128524000D03*
X196530000Y-109982000D03*
X194630000Y-109982000D03*
X188026000Y-121666000D03*
X189926000Y-121666000D03*
D24*
X207264000Y-77978000D03*
D25*
X205264000Y-77978000D03*
D23*
X200594000Y-91440000D03*
X198694000Y-91440000D03*
D22*
X214884000Y-142174000D03*
X214884000Y-140274000D03*
X202438000Y-140020000D03*
X202438000Y-141920000D03*
D23*
X206568000Y-146050000D03*
X208468000Y-146050000D03*
X193106000Y-146304000D03*
X195006000Y-146304000D03*
D22*
X211328000Y-140274000D03*
X211328000Y-142174000D03*
X199390000Y-140020000D03*
X199390000Y-141920000D03*
X196342000Y-140020000D03*
X196342000Y-141920000D03*
D26*
X215218000Y-90678000D03*
X212518000Y-90678000D03*
D27*
X184658000Y-18542000D03*
X194658000Y-18542000D03*
D17*
X185166000Y-108966000D03*
D18*
X185166000Y-111506000D03*
X185166000Y-114046000D03*
X185166000Y-116586000D03*
X185166000Y-119126000D03*
X185166000Y-121666000D03*
D28*
X254508000Y-27348000D03*
X254508000Y-29548000D03*
D29*
X266870000Y-41402000D03*
X269070000Y-41402000D03*
X225468000Y-116078000D03*
X227668000Y-116078000D03*
X267886000Y-50800000D03*
X270086000Y-50800000D03*
X225722000Y-126746000D03*
X227922000Y-126746000D03*
X269578000Y-44958000D03*
X267378000Y-44958000D03*
X227668000Y-118110000D03*
X225468000Y-118110000D03*
X267886000Y-48768000D03*
X270086000Y-48768000D03*
X225722000Y-128778000D03*
X227922000Y-128778000D03*
X254338000Y-49022000D03*
X252138000Y-49022000D03*
X210396000Y-125984000D03*
X208196000Y-125984000D03*
X254592000Y-43942000D03*
X252392000Y-43942000D03*
X211920000Y-120904000D03*
X209720000Y-120904000D03*
D28*
X241808000Y-23030000D03*
X241808000Y-25230000D03*
X238506000Y-15664000D03*
X238506000Y-17864000D03*
X233426000Y-23030000D03*
X233426000Y-25230000D03*
X230124000Y-15664000D03*
X230124000Y-17864000D03*
X225044000Y-23030000D03*
X225044000Y-25230000D03*
X221742000Y-15664000D03*
X221742000Y-17864000D03*
X216662000Y-23030000D03*
X216662000Y-25230000D03*
X213360000Y-15664000D03*
X213360000Y-17864000D03*
X208280000Y-23030000D03*
X208280000Y-25230000D03*
X204978000Y-15664000D03*
X204978000Y-17864000D03*
X185420000Y-77300000D03*
X185420000Y-75100000D03*
X183896000Y-75100000D03*
X183896000Y-77300000D03*
X220980000Y-41064000D03*
X220980000Y-43264000D03*
X219456000Y-43264000D03*
X219456000Y-41064000D03*
X217932000Y-41064000D03*
X217932000Y-43264000D03*
X216408000Y-43264000D03*
X216408000Y-41064000D03*
X214884000Y-41064000D03*
X214884000Y-43264000D03*
X213360000Y-43264000D03*
X213360000Y-41064000D03*
X211836000Y-41064000D03*
X211836000Y-43264000D03*
X210312000Y-43264000D03*
X210312000Y-41064000D03*
D29*
X207348000Y-74422000D03*
X205148000Y-74422000D03*
X201252000Y-83566000D03*
X199052000Y-83566000D03*
X200744000Y-89916000D03*
X198544000Y-89916000D03*
X212768000Y-85852000D03*
X214968000Y-85852000D03*
X212768000Y-87376000D03*
X214968000Y-87376000D03*
X207602000Y-92202000D03*
X205402000Y-92202000D03*
X214968000Y-88900000D03*
X212768000Y-88900000D03*
X212768000Y-84328000D03*
X214968000Y-84328000D03*
D28*
X212852000Y-140124000D03*
X212852000Y-142324000D03*
X200914000Y-139870000D03*
X200914000Y-142070000D03*
X209804000Y-142324000D03*
X209804000Y-140124000D03*
X197866000Y-142070000D03*
X197866000Y-139870000D03*
D20*
X258258000Y-52959000D03*
X263458000Y-52959000D03*
X258258000Y-51689000D03*
X263458000Y-51689000D03*
X258258000Y-50419000D03*
X263458000Y-50419000D03*
X258258000Y-49149000D03*
X263458000Y-49149000D03*
X258258000Y-47879000D03*
X263458000Y-47879000D03*
X258258000Y-46609000D03*
X263458000Y-46609000D03*
X258258000Y-45339000D03*
X263458000Y-45339000D03*
X258258000Y-44069000D03*
X263458000Y-44069000D03*
X258258000Y-42799000D03*
X263458000Y-42799000D03*
X258258000Y-41529000D03*
X263458000Y-41529000D03*
D30*
X203200000Y-82296000D03*
X203200000Y-83566000D03*
X203200000Y-84836000D03*
X203200000Y-86106000D03*
X203200000Y-87376000D03*
X203200000Y-88646000D03*
X203200000Y-89916000D03*
X209550000Y-89916000D03*
X209550000Y-88646000D03*
X209550000Y-86106000D03*
X209550000Y-84836000D03*
X209550000Y-83566000D03*
X209550000Y-82296000D03*
X209550000Y-87376000D03*
D21*
X206035000Y-143424000D03*
X206685000Y-143424000D03*
X207335000Y-143424000D03*
X207985000Y-143424000D03*
X207985000Y-139024000D03*
X207335000Y-139024000D03*
X206685000Y-139024000D03*
X206035000Y-139024000D03*
D31*
X242570000Y-18034000D03*
D32*
X242570000Y-15494000D03*
D31*
X234188000Y-18034000D03*
D32*
X234188000Y-15494000D03*
D31*
X225806000Y-18034000D03*
D32*
X225806000Y-15494000D03*
D31*
X217424000Y-18034000D03*
D32*
X217424000Y-15494000D03*
D31*
X209042000Y-18034000D03*
D32*
X209042000Y-15494000D03*
D31*
X185674000Y-29210000D03*
D33*
X185674000Y-31750000D03*
X185674000Y-34290000D03*
D34*
X266795500Y-37846000D03*
X254920500Y-37846000D03*
X223869500Y-111760000D03*
X211994500Y-111760000D03*
D15*
X200894000Y-88138000D03*
X198394000Y-88138000D03*
D17*
X268732000Y-109474000D03*
X265176000Y-109474000D03*
X270256000Y-27686000D03*
X231902000Y-110490000D03*
X266700000Y-27686000D03*
X206248000Y-134112000D03*
X258064000Y-109474000D03*
X195580000Y-134112000D03*
X202692000Y-134112000D03*
X261620000Y-109474000D03*
X188468000Y-141224000D03*
X212598000Y-62738000D03*
X233172000Y-122428000D03*
X263144000Y-27686000D03*
X209804000Y-134112000D03*
X200660000Y-148844000D03*
D22*
X233680000Y-48448000D03*
X233680000Y-46548000D03*
D23*
X238694000Y-36322000D03*
X236794000Y-36322000D03*
X229428000Y-45974000D03*
X231328000Y-45974000D03*
X197546000Y-49022000D03*
X195646000Y-49022000D03*
D22*
X189738000Y-60132000D03*
X189738000Y-58232000D03*
D26*
X200580000Y-108204000D03*
X203280000Y-108204000D03*
X242236000Y-34544000D03*
X244936000Y-34544000D03*
D28*
X188976000Y-111422000D03*
X188976000Y-113622000D03*
X190500000Y-111422000D03*
X190500000Y-113622000D03*
D29*
X203284000Y-109982000D03*
X201084000Y-109982000D03*
X244940000Y-36322000D03*
X242740000Y-36322000D03*
D28*
X189738000Y-50462000D03*
X189738000Y-52662000D03*
X191516000Y-50462000D03*
X191516000Y-52662000D03*
D35*
X194570000Y-125476000D03*
X198120000Y-125476000D03*
X201670000Y-125476000D03*
X236226000Y-51308000D03*
X239776000Y-51308000D03*
X243326000Y-51308000D03*
X194570000Y-65024000D03*
X198120000Y-65024000D03*
X201670000Y-65024000D03*
D12*
X195320000Y-120582000D03*
X196120000Y-120582000D03*
X196920000Y-120582000D03*
X197720000Y-120582000D03*
X198520000Y-120582000D03*
X199320000Y-120582000D03*
X200120000Y-120582000D03*
X200920000Y-120582000D03*
D13*
X202370000Y-119132000D03*
X202370000Y-118332000D03*
X202370000Y-117532000D03*
X202370000Y-116732000D03*
X202370000Y-115932000D03*
X202370000Y-115132000D03*
X202370000Y-114332000D03*
X202370000Y-113532000D03*
D12*
X200920000Y-112082000D03*
X200120000Y-112082000D03*
X199320000Y-112082000D03*
X198520000Y-112082000D03*
X197720000Y-112082000D03*
X196920000Y-112082000D03*
X196120000Y-112082000D03*
X195320000Y-112082000D03*
D13*
X193870000Y-113532000D03*
X193870000Y-114332000D03*
X193870000Y-115132000D03*
X193870000Y-115932000D03*
X193870000Y-116732000D03*
X193870000Y-117532000D03*
X193870000Y-118332000D03*
X193870000Y-119132000D03*
D12*
X195828000Y-59622000D03*
X196628000Y-59622000D03*
X197428000Y-59622000D03*
X198228000Y-59622000D03*
X199028000Y-59622000D03*
X199828000Y-59622000D03*
X200628000Y-59622000D03*
X201428000Y-59622000D03*
D13*
X202878000Y-58172000D03*
X202878000Y-57372000D03*
X202878000Y-56572000D03*
X202878000Y-55772000D03*
X202878000Y-54972000D03*
X202878000Y-54172000D03*
X202878000Y-53372000D03*
X202878000Y-52572000D03*
D12*
X201428000Y-51122000D03*
X200628000Y-51122000D03*
X199828000Y-51122000D03*
X199028000Y-51122000D03*
X198228000Y-51122000D03*
X197428000Y-51122000D03*
X196628000Y-51122000D03*
X195828000Y-51122000D03*
D13*
X194378000Y-52572000D03*
X194378000Y-53372000D03*
X194378000Y-54172000D03*
X194378000Y-54972000D03*
X194378000Y-55772000D03*
X194378000Y-56572000D03*
X194378000Y-57372000D03*
X194378000Y-58172000D03*
D36*
X220472000Y-34544000D03*
D37*
X220472000Y-32004000D03*
D36*
X217424000Y-34544000D03*
D37*
X217424000Y-32004000D03*
D36*
X214376000Y-34544000D03*
D37*
X214376000Y-32004000D03*
D36*
X211328000Y-34544000D03*
D37*
X211328000Y-32004000D03*
D38*
X185420000Y-73914000D03*
X200660000Y-52578000D03*
X191516000Y-48768000D03*
X239522000Y-44958000D03*
X241046000Y-45720000D03*
X199644000Y-57658000D03*
X199644000Y-118872000D03*
X189738000Y-48768000D03*
X190500000Y-109982000D03*
X232918000Y-36068000D03*
X230378000Y-36068000D03*
X200152000Y-113284000D03*
X208534000Y-120904000D03*
X211328000Y-124460000D03*
X215646000Y-129540000D03*
X241808000Y-39624000D03*
X254508000Y-30480000D03*
X220980000Y-44196000D03*
X217932000Y-44196000D03*
X214884000Y-44196000D03*
X211836000Y-44196000D03*
X203708000Y-74676000D03*
X207264000Y-137668000D03*
X204216000Y-139192000D03*
X196342000Y-138938000D03*
X194310000Y-137414000D03*
X202184000Y-86106000D03*
X216154000Y-85852000D03*
X252222000Y-51054000D03*
X250952000Y-43942000D03*
X204978000Y-19304000D03*
X213360000Y-19304000D03*
X221742000Y-19304000D03*
X230124000Y-19304000D03*
X238506000Y-19304000D03*
X268478000Y-43942000D03*
X218694000Y-120142000D03*
X199390000Y-137922000D03*
X271526000Y-52324000D03*
X204724000Y-83312000D03*
X196850000Y-88138000D03*
X196850000Y-57150000D03*
X234950000Y-60198000D03*
X235712000Y-59182000D03*
X196088000Y-56642000D03*
X241554000Y-43942000D03*
X235966000Y-46990000D03*
X243586000Y-46990000D03*
X246126000Y-46990000D03*
X254000000Y-45212000D03*
X210566000Y-122682000D03*
X194056000Y-120142000D03*
X196088000Y-115316000D03*
X187960000Y-60452000D03*
X187960000Y-61976000D03*
X231394000Y-48006000D03*
X197612000Y-55626000D03*
X233172000Y-77978000D03*
X204216000Y-144780000D03*
X191516000Y-144780000D03*
X256540000Y-49022000D03*
X250444000Y-48006000D03*
X223266000Y-116078000D03*
X223266000Y-120650000D03*
X261620000Y-42926000D03*
X236982000Y-43434000D03*
X261366000Y-41656000D03*
X237998000Y-42164000D03*
X209550000Y-119380000D03*
X212598000Y-122428000D03*
X213614000Y-121920000D03*
X211074000Y-119380000D03*
X211074000Y-118110000D03*
X213868000Y-120904000D03*
X217678000Y-118364000D03*
X195580000Y-118110000D03*
X218440000Y-117094000D03*
X199898000Y-116586000D03*
X187706000Y-106426000D03*
X187198000Y-59690000D03*
X228854000Y-42672000D03*
X197358000Y-54864000D03*
X230378000Y-41910000D03*
X192786000Y-52832000D03*
X193040000Y-59690000D03*
X228600000Y-40894000D03*
X197104000Y-54102000D03*
X232918000Y-40640000D03*
X199644000Y-52578000D03*
X197612000Y-57658000D03*
X238760000Y-44450000D03*
X240284000Y-45466000D03*
X193294000Y-48006000D03*
X197866000Y-82042000D03*
X199136000Y-58420000D03*
X229108000Y-116078000D03*
X208280000Y-128524000D03*
X234696000Y-46736000D03*
X193294000Y-109982000D03*
X198120000Y-128016000D03*
X197104000Y-118618000D03*
X198628000Y-119126000D03*
X195072000Y-113538000D03*
X197612000Y-113284000D03*
X199136000Y-113284000D03*
X199136000Y-108204000D03*
X223012000Y-123444000D03*
X229108000Y-118110000D03*
X235712000Y-36322000D03*
X240792000Y-39624000D03*
X236728000Y-39878000D03*
X198120000Y-52324000D03*
X198120000Y-67564000D03*
X195580000Y-53340000D03*
X210820000Y-86360000D03*
X206756000Y-140208000D03*
X204216000Y-143256000D03*
X196088000Y-146304000D03*
X209550000Y-146050000D03*
X196342000Y-143002000D03*
X193548000Y-140208000D03*
X197358000Y-89916000D03*
X197612000Y-91440000D03*
X198120000Y-86106000D03*
X216662000Y-90678000D03*
X216154000Y-87376000D03*
X266446000Y-42926000D03*
X270764000Y-44958000D03*
X270256000Y-41402000D03*
X261620000Y-48006000D03*
X252222000Y-53086000D03*
X239268000Y-39624000D03*
X239776000Y-54102000D03*
X240538000Y-34544000D03*
X204470000Y-88646000D03*
X211582000Y-87630000D03*
X201930000Y-84836000D03*
X265430000Y-45974000D03*
X265430000Y-42672000D03*
X224028000Y-121412000D03*
X224028000Y-117602000D03*
X223012000Y-126238000D03*
X224536000Y-128778000D03*
X199898000Y-84836000D03*
X191770000Y-117602000D03*
X191516000Y-118618000D03*
X230378000Y-43942000D03*
X234188000Y-43942000D03*
X233426000Y-44704000D03*
X230124000Y-44704000D03*
X190754000Y-56642000D03*
X191516000Y-58420000D03*
D39*
X182626000Y-29276000D02*
X185608000Y-29276000D01*
X185608000Y-29276000D02*
X185674000Y-29210000D01*
D40*
X184658000Y-18542000D02*
X184658000Y-23368000D01*
X185674000Y-24384000D02*
X185674000Y-29210000D01*
X184658000Y-23368000D02*
X185674000Y-24384000D01*
D41*
X185420000Y-75100000D02*
X185420000Y-73914000D01*
X200628000Y-51122000D02*
X200628000Y-52546000D01*
X200628000Y-52546000D02*
X200660000Y-52578000D01*
X191516000Y-50462000D02*
X191516000Y-48768000D01*
X239376000Y-46922000D02*
X239376000Y-45104000D01*
X239376000Y-45104000D02*
X239522000Y-44958000D01*
X240976000Y-46922000D02*
X240976000Y-45790000D01*
X240976000Y-45790000D02*
X241046000Y-45720000D01*
X233680000Y-48448000D02*
X236032000Y-48448000D01*
X239376000Y-47898000D02*
X239376000Y-46922000D01*
X239014000Y-48260000D02*
X239376000Y-47898000D01*
X236220000Y-48260000D02*
X239014000Y-48260000D01*
X236032000Y-48448000D02*
X236220000Y-48260000D01*
X198228000Y-59622000D02*
X198228000Y-58058000D01*
X199828000Y-57842000D02*
X199644000Y-57658000D01*
X199828000Y-57842000D02*
X199828000Y-59622000D01*
X198628000Y-57658000D02*
X199644000Y-57658000D01*
X198228000Y-58058000D02*
X198628000Y-57658000D01*
X199320000Y-120582000D02*
X199320000Y-119196000D01*
X199320000Y-119196000D02*
X199644000Y-118872000D01*
X197720000Y-120582000D02*
X197720000Y-121774000D01*
X199320000Y-121736000D02*
X199320000Y-120582000D01*
X199136000Y-121920000D02*
X199320000Y-121736000D01*
X197866000Y-121920000D02*
X199136000Y-121920000D01*
X197720000Y-121774000D02*
X197866000Y-121920000D01*
X189738000Y-50462000D02*
X189738000Y-48768000D01*
X188976000Y-111422000D02*
X190500000Y-111422000D01*
X190500000Y-111422000D02*
X190500000Y-109982000D01*
X200120000Y-112082000D02*
X200120000Y-113252000D01*
X200120000Y-113252000D02*
X200152000Y-113284000D01*
X209720000Y-120904000D02*
X208534000Y-120904000D01*
X210246000Y-124460000D02*
X211328000Y-124460000D01*
X215840000Y-128651000D02*
X215840000Y-129346000D01*
X215840000Y-129346000D02*
X215646000Y-129540000D01*
X215840000Y-128651000D02*
X211897000Y-128651000D01*
X211897000Y-128651000D02*
X211770000Y-128524000D01*
X241776000Y-38422000D02*
X241776000Y-39592000D01*
X241776000Y-39592000D02*
X241808000Y-39624000D01*
X254508000Y-29548000D02*
X254508000Y-30480000D01*
D42*
X220980000Y-43264000D02*
X220980000Y-44196000D01*
X217932000Y-43264000D02*
X217932000Y-44196000D01*
X214884000Y-43264000D02*
X214884000Y-44196000D01*
X211836000Y-43264000D02*
X211836000Y-44196000D01*
D41*
X205148000Y-74422000D02*
X203962000Y-74422000D01*
X203962000Y-74422000D02*
X203708000Y-74676000D01*
X207335000Y-139024000D02*
X207335000Y-137739000D01*
X207335000Y-137739000D02*
X207264000Y-137668000D01*
X196342000Y-140020000D02*
X196342000Y-138938000D01*
X194127000Y-139024000D02*
X194127000Y-137597000D01*
X194127000Y-137597000D02*
X194310000Y-137414000D01*
X203200000Y-86106000D02*
X202184000Y-86106000D01*
X214968000Y-85852000D02*
X216154000Y-85852000D01*
X214968000Y-85852000D02*
X214968000Y-84328000D01*
X253558000Y-51054000D02*
X252222000Y-51054000D01*
X252392000Y-43942000D02*
X250952000Y-43942000D01*
X253558000Y-51054000D02*
X253558000Y-51882000D01*
X255458000Y-52512000D02*
X255458000Y-53086000D01*
X255016000Y-52070000D02*
X255458000Y-52512000D01*
X253746000Y-52070000D02*
X255016000Y-52070000D01*
X253558000Y-51882000D02*
X253746000Y-52070000D01*
X255458000Y-53086000D02*
X258131000Y-53086000D01*
X258131000Y-53086000D02*
X258258000Y-52959000D01*
D39*
X204978000Y-17864000D02*
X204978000Y-19304000D01*
X213360000Y-17864000D02*
X213360000Y-19304000D01*
X221742000Y-17864000D02*
X221742000Y-19304000D01*
X230124000Y-17864000D02*
X230124000Y-19304000D01*
X238506000Y-17864000D02*
X238506000Y-19304000D01*
D41*
X227922000Y-126746000D02*
X227922000Y-125372000D01*
X227922000Y-125372000D02*
X227772000Y-125222000D01*
X263458000Y-44069000D02*
X265557000Y-44069000D01*
X266446000Y-44958000D02*
X267378000Y-44958000D01*
X265557000Y-44069000D02*
X266446000Y-44958000D01*
X267378000Y-44280000D02*
X267378000Y-44958000D01*
X267716000Y-43942000D02*
X267378000Y-44280000D01*
X268478000Y-43942000D02*
X267716000Y-43942000D01*
X199390000Y-140020000D02*
X199390000Y-137922000D01*
X219075000Y-119761000D02*
X221040000Y-119761000D01*
X218694000Y-120142000D02*
X219075000Y-119761000D01*
X225618000Y-119634000D02*
X221167000Y-119634000D01*
X221167000Y-119634000D02*
X221040000Y-119761000D01*
X225468000Y-118110000D02*
X225468000Y-119484000D01*
X225468000Y-119484000D02*
X225618000Y-119634000D01*
X231902000Y-110490000D02*
X231902000Y-115570000D01*
X226484000Y-117094000D02*
X225468000Y-118110000D01*
X230378000Y-117094000D02*
X226484000Y-117094000D01*
X231902000Y-115570000D02*
X230378000Y-117094000D01*
X194777000Y-139024000D02*
X194777000Y-138217000D01*
X197866000Y-138176000D02*
X197866000Y-139870000D01*
X197358000Y-137668000D02*
X197866000Y-138176000D01*
X195326000Y-137668000D02*
X197358000Y-137668000D01*
X194777000Y-138217000D02*
X195326000Y-137668000D01*
X199390000Y-140020000D02*
X198016000Y-140020000D01*
X198016000Y-140020000D02*
X197866000Y-139870000D01*
X208346000Y-124460000D02*
X208346000Y-125834000D01*
X208346000Y-125834000D02*
X208196000Y-125984000D01*
X215840000Y-127381000D02*
X208661000Y-127381000D01*
X208196000Y-126916000D02*
X208196000Y-125984000D01*
X208661000Y-127381000D02*
X208196000Y-126916000D01*
X214884000Y-142174000D02*
X214310000Y-142174000D01*
X213868000Y-140716000D02*
X213276000Y-140124000D01*
X213868000Y-141732000D02*
X213868000Y-140716000D01*
X214310000Y-142174000D02*
X213868000Y-141732000D01*
X213276000Y-140124000D02*
X212852000Y-140124000D01*
X200914000Y-139870000D02*
X202288000Y-139870000D01*
X202288000Y-139870000D02*
X202438000Y-140020000D01*
X271018000Y-52832000D02*
X269936000Y-52832000D01*
X271526000Y-52324000D02*
X271018000Y-52832000D01*
X207985000Y-139024000D02*
X209128000Y-139024000D01*
X209128000Y-139024000D02*
X209804000Y-139700000D01*
X209804000Y-139700000D02*
X209804000Y-140124000D01*
X211328000Y-140274000D02*
X209954000Y-140274000D01*
X209954000Y-140274000D02*
X209804000Y-140124000D01*
X207985000Y-139024000D02*
X207985000Y-135849000D01*
X207985000Y-135849000D02*
X206248000Y-134112000D01*
X193106000Y-146304000D02*
X193106000Y-145730000D01*
X193477000Y-145359000D02*
X193477000Y-143424000D01*
X193106000Y-145730000D02*
X193477000Y-145359000D01*
X194127000Y-143424000D02*
X193477000Y-143424000D01*
X212852000Y-142324000D02*
X211478000Y-142324000D01*
X211478000Y-142324000D02*
X211328000Y-142174000D01*
X211328000Y-142174000D02*
X209954000Y-142174000D01*
X209954000Y-142174000D02*
X209804000Y-142324000D01*
X209804000Y-142324000D02*
X209804000Y-142748000D01*
X209804000Y-142748000D02*
X209128000Y-143424000D01*
X209128000Y-143424000D02*
X207985000Y-143424000D01*
D39*
X225806000Y-18034000D02*
X227584000Y-18034000D01*
X228600000Y-19050000D02*
X228600000Y-21590000D01*
X227584000Y-18034000D02*
X228600000Y-19050000D01*
X221742000Y-15664000D02*
X225636000Y-15664000D01*
X225636000Y-15664000D02*
X225806000Y-15494000D01*
X217424000Y-18034000D02*
X219202000Y-18034000D01*
X220218000Y-19050000D02*
X220218000Y-21590000D01*
X219202000Y-18034000D02*
X220218000Y-19050000D01*
X213360000Y-15664000D02*
X217254000Y-15664000D01*
X217254000Y-15664000D02*
X217424000Y-15494000D01*
X209042000Y-18034000D02*
X210820000Y-18034000D01*
X210820000Y-18034000D02*
X211836000Y-19050000D01*
X211836000Y-19050000D02*
X211836000Y-21590000D01*
X204978000Y-15664000D02*
X208872000Y-15664000D01*
X208872000Y-15664000D02*
X209042000Y-15494000D01*
D41*
X204216000Y-82296000D02*
X203200000Y-82296000D01*
X204724000Y-82804000D02*
X204216000Y-82296000D01*
X204724000Y-83312000D02*
X204724000Y-82804000D01*
X198394000Y-88138000D02*
X196850000Y-88138000D01*
X212518000Y-90678000D02*
X212518000Y-90758000D01*
X212518000Y-90758000D02*
X211074000Y-92202000D01*
X211074000Y-92202000D02*
X207602000Y-92202000D01*
X212768000Y-88900000D02*
X212768000Y-90428000D01*
X212768000Y-90428000D02*
X212518000Y-90678000D01*
X226822000Y-70866000D02*
X231648000Y-70866000D01*
X235712000Y-74930000D02*
X235712000Y-102870000D01*
X231648000Y-70866000D02*
X235712000Y-74930000D01*
X194378000Y-58172000D02*
X194378000Y-59622000D01*
X226822000Y-70866000D02*
X226822000Y-70866000D01*
X226822000Y-70866000D02*
X226822000Y-70866000D01*
X192786000Y-70866000D02*
X226822000Y-70866000D01*
X191262000Y-69342000D02*
X192786000Y-70866000D01*
X191262000Y-62738000D02*
X191262000Y-69342000D01*
X194378000Y-59622000D02*
X191262000Y-62738000D01*
X238252000Y-102870000D02*
X238252000Y-63500000D01*
X196628000Y-57372000D02*
X196628000Y-59622000D01*
X196628000Y-57372000D02*
X196850000Y-57150000D01*
X238252000Y-63500000D02*
X234950000Y-60198000D01*
X195828000Y-59622000D02*
X195828000Y-56902000D01*
X195828000Y-56902000D02*
X196088000Y-56642000D01*
X240792000Y-64262000D02*
X240792000Y-102870000D01*
X235712000Y-59182000D02*
X240792000Y-64262000D01*
X260256000Y-19304000D02*
X260256000Y-24224000D01*
X260256000Y-24224000D02*
X257048000Y-27432000D01*
X257048000Y-27432000D02*
X254592000Y-27432000D01*
X254592000Y-27432000D02*
X254508000Y-27348000D01*
X258318000Y-28702000D02*
X258318000Y-29464000D01*
X246640000Y-39872000D02*
X244026000Y-39872000D01*
X247904000Y-38608000D02*
X246640000Y-39872000D01*
X247904000Y-36068000D02*
X247904000Y-38608000D01*
X251460000Y-32512000D02*
X247904000Y-36068000D01*
X255270000Y-32512000D02*
X251460000Y-32512000D01*
X258318000Y-29464000D02*
X255270000Y-32512000D01*
D39*
X244094000Y-22860000D02*
X241978000Y-22860000D01*
X241978000Y-22860000D02*
X241808000Y-23030000D01*
X235712000Y-22860000D02*
X233596000Y-22860000D01*
X233596000Y-22860000D02*
X233426000Y-23030000D01*
X227330000Y-22860000D02*
X225214000Y-22860000D01*
X225214000Y-22860000D02*
X225044000Y-23030000D01*
X218948000Y-22860000D02*
X216832000Y-22860000D01*
X216832000Y-22860000D02*
X216662000Y-23030000D01*
X210566000Y-22860000D02*
X208450000Y-22860000D01*
X208450000Y-22860000D02*
X208280000Y-23030000D01*
D41*
X214968000Y-88900000D02*
X216408000Y-88900000D01*
X216154000Y-80264000D02*
X213868000Y-80264000D01*
X217170000Y-81280000D02*
X216154000Y-80264000D01*
X217170000Y-88138000D02*
X217170000Y-81280000D01*
X216408000Y-88900000D02*
X217170000Y-88138000D01*
X241776000Y-40672000D02*
X244026000Y-40672000D01*
X241046000Y-41402000D02*
X241776000Y-40672000D01*
X241046000Y-43434000D02*
X241046000Y-41402000D01*
X241554000Y-43942000D02*
X241046000Y-43434000D01*
X215138000Y-81534000D02*
X214884000Y-81534000D01*
X214884000Y-81534000D02*
X212768000Y-83650000D01*
X212768000Y-83650000D02*
X212768000Y-84328000D01*
X254592000Y-43942000D02*
X254592000Y-44620000D01*
X235526000Y-46550000D02*
X235526000Y-45472000D01*
X235966000Y-46990000D02*
X235526000Y-46550000D01*
X246126000Y-46990000D02*
X243586000Y-46990000D01*
X254592000Y-44620000D02*
X254000000Y-45212000D01*
X254592000Y-43942000D02*
X258131000Y-43942000D01*
X258131000Y-43942000D02*
X258258000Y-44069000D01*
X193870000Y-119132000D02*
X193870000Y-119956000D01*
X211920000Y-122090000D02*
X211920000Y-120904000D01*
X211328000Y-122682000D02*
X211920000Y-122090000D01*
X210566000Y-122682000D02*
X211328000Y-122682000D01*
X193870000Y-119956000D02*
X194056000Y-120142000D01*
X215840000Y-119761000D02*
X213995000Y-119761000D01*
X212852000Y-120904000D02*
X211920000Y-120904000D01*
X213995000Y-119761000D02*
X212852000Y-120904000D01*
X202878000Y-54972000D02*
X207156000Y-54972000D01*
X241808000Y-29718000D02*
X241046000Y-30480000D01*
X241046000Y-30480000D02*
X210058000Y-30480000D01*
X241808000Y-29718000D02*
X241808000Y-25230000D01*
X209296000Y-30480000D02*
X210058000Y-30480000D01*
X208026000Y-31750000D02*
X209296000Y-30480000D01*
X208026000Y-54102000D02*
X208026000Y-31750000D01*
X207156000Y-54972000D02*
X208026000Y-54102000D01*
X210058000Y-29972000D02*
X209042000Y-29972000D01*
X233426000Y-28956000D02*
X232410000Y-29972000D01*
X232410000Y-29972000D02*
X210058000Y-29972000D01*
X233426000Y-25230000D02*
X233426000Y-28956000D01*
X206432000Y-54172000D02*
X202878000Y-54172000D01*
X207518000Y-53086000D02*
X206432000Y-54172000D01*
X207518000Y-31496000D02*
X207518000Y-53086000D01*
X209042000Y-29972000D02*
X207518000Y-31496000D01*
X210058000Y-29464000D02*
X208788000Y-29464000D01*
X225044000Y-28448000D02*
X224028000Y-29464000D01*
X224028000Y-29464000D02*
X210058000Y-29464000D01*
X225044000Y-25230000D02*
X225044000Y-28448000D01*
X206216000Y-53372000D02*
X202878000Y-53372000D01*
X207010000Y-52578000D02*
X206216000Y-53372000D01*
X207010000Y-31242000D02*
X207010000Y-52578000D01*
X208788000Y-29464000D02*
X207010000Y-31242000D01*
X210312000Y-29013998D02*
X208601604Y-29013998D01*
X216662000Y-27997998D02*
X215646000Y-29013998D01*
X215646000Y-29013998D02*
X210312000Y-29013998D01*
X216662000Y-25230000D02*
X216662000Y-27997998D01*
X205746000Y-52572000D02*
X202878000Y-52572000D01*
X206502000Y-51816000D02*
X205746000Y-52572000D01*
X206502000Y-31113602D02*
X206502000Y-51816000D01*
X208601604Y-29013998D02*
X206502000Y-31113602D01*
X201428000Y-51122000D02*
X204910000Y-51122000D01*
X205994000Y-27516000D02*
X208280000Y-25230000D01*
X205994000Y-50038000D02*
X205994000Y-27516000D01*
X204910000Y-51122000D02*
X205994000Y-50038000D01*
X254338000Y-49022000D02*
X255524000Y-49022000D01*
X256921000Y-50419000D02*
X258258000Y-50419000D01*
X255524000Y-49022000D02*
X256921000Y-50419000D01*
X183896000Y-75100000D02*
X183896000Y-69342000D01*
X193870000Y-116732000D02*
X194672000Y-116732000D01*
X194672000Y-116732000D02*
X196088000Y-115316000D01*
X189926000Y-121666000D02*
X189992000Y-121666000D01*
X189992000Y-121666000D02*
X190754000Y-120904000D01*
X190754000Y-120904000D02*
X190754000Y-117348000D01*
X190754000Y-117348000D02*
X191370000Y-116732000D01*
X191370000Y-116732000D02*
X193870000Y-116732000D01*
X189738000Y-58232000D02*
X188402000Y-58232000D01*
X188402000Y-58232000D02*
X187960000Y-58674000D01*
X187960000Y-58674000D02*
X187960000Y-60452000D01*
X183896000Y-69342000D02*
X183896000Y-69342000D01*
X187960000Y-61976000D02*
X187960000Y-65278000D01*
X187960000Y-65278000D02*
X183896000Y-69342000D01*
X183896000Y-69342000D02*
X183896000Y-69342000D01*
X183896000Y-69342000D02*
X183896000Y-69342000D01*
X189738000Y-58232000D02*
X189738000Y-56388000D01*
X190354000Y-55772000D02*
X194378000Y-55772000D01*
X189738000Y-56388000D02*
X190354000Y-55772000D01*
X194378000Y-55772000D02*
X197466000Y-55772000D01*
X231328000Y-47940000D02*
X231328000Y-45974000D01*
X231394000Y-48006000D02*
X231328000Y-47940000D01*
X197466000Y-55772000D02*
X197612000Y-55626000D01*
X231328000Y-45974000D02*
X231328000Y-45786000D01*
X231328000Y-45786000D02*
X234042000Y-43072000D01*
X234042000Y-43072000D02*
X235526000Y-43072000D01*
X219456000Y-43264000D02*
X219456000Y-57404000D01*
X218688000Y-58172000D02*
X202878000Y-58172000D01*
X219456000Y-57404000D02*
X218688000Y-58172000D01*
X216408000Y-43264000D02*
X216408000Y-56896000D01*
X215932000Y-57372000D02*
X202878000Y-57372000D01*
X216408000Y-56896000D02*
X215932000Y-57372000D01*
X213360000Y-43264000D02*
X213360000Y-55880000D01*
X212668000Y-56572000D02*
X202878000Y-56572000D01*
X213360000Y-55880000D02*
X212668000Y-56572000D01*
X210312000Y-43264000D02*
X210312000Y-54864000D01*
X209404000Y-55772000D02*
X202878000Y-55772000D01*
X210312000Y-54864000D02*
X209404000Y-55772000D01*
X242576000Y-38422000D02*
X242576000Y-36486000D01*
X242576000Y-36486000D02*
X242740000Y-36322000D01*
X200920000Y-112082000D02*
X200920000Y-110146000D01*
X200920000Y-110146000D02*
X201084000Y-109982000D01*
X200830000Y-111992000D02*
X200920000Y-112082000D01*
X207264000Y-77978000D02*
X233172000Y-77978000D01*
X207348000Y-74422000D02*
X207348000Y-74338000D01*
X207264000Y-77978000D02*
X207264000Y-74506000D01*
X207264000Y-74506000D02*
X207348000Y-74422000D01*
X192827000Y-139024000D02*
X192827000Y-137627000D01*
X195580000Y-136144000D02*
X195580000Y-134112000D01*
X195072000Y-136652000D02*
X195580000Y-136144000D01*
X193802000Y-136652000D02*
X195072000Y-136652000D01*
X192827000Y-137627000D02*
X193802000Y-136652000D01*
X206035000Y-139024000D02*
X206035000Y-138979000D01*
X206035000Y-138979000D02*
X202692000Y-135636000D01*
X202692000Y-135636000D02*
X202692000Y-134112000D01*
X191008000Y-143424000D02*
X191008000Y-144272000D01*
X206035000Y-144485000D02*
X206035000Y-143424000D01*
X205740000Y-144780000D02*
X206035000Y-144485000D01*
X204216000Y-144780000D02*
X205740000Y-144780000D01*
X191008000Y-144272000D02*
X191516000Y-144780000D01*
X206035000Y-143424000D02*
X206035000Y-143469000D01*
X188468000Y-141224000D02*
X188468000Y-142240000D01*
X189652000Y-143424000D02*
X191008000Y-143424000D01*
X191008000Y-143424000D02*
X192827000Y-143424000D01*
X188468000Y-142240000D02*
X189652000Y-143424000D01*
X221040000Y-128651000D02*
X219583000Y-128651000D01*
X219583000Y-124841000D02*
X221040000Y-124841000D01*
X219202000Y-125222000D02*
X219583000Y-124841000D01*
X219202000Y-128270000D02*
X219202000Y-125222000D01*
X219583000Y-128651000D02*
X219202000Y-128270000D01*
X244026000Y-45472000D02*
X247910000Y-45472000D01*
X256667000Y-49149000D02*
X258258000Y-49149000D01*
X256540000Y-49022000D02*
X256667000Y-49149000D01*
X247910000Y-45472000D02*
X250444000Y-48006000D01*
X258258000Y-47879000D02*
X251587000Y-47879000D01*
X248380000Y-44672000D02*
X244026000Y-44672000D01*
X251587000Y-47879000D02*
X248380000Y-44672000D01*
X244026000Y-43872000D02*
X248596000Y-43872000D01*
X251333000Y-46609000D02*
X258258000Y-46609000D01*
X248596000Y-43872000D02*
X251333000Y-46609000D01*
X258258000Y-45339000D02*
X256667000Y-45339000D01*
X248558000Y-43072000D02*
X244026000Y-43072000D01*
X251460000Y-45974000D02*
X248558000Y-43072000D01*
X256032000Y-45974000D02*
X251460000Y-45974000D01*
X256667000Y-45339000D02*
X256032000Y-45974000D01*
X221040000Y-121031000D02*
X222885000Y-121031000D01*
X214534500Y-114300000D02*
X211994500Y-111760000D01*
X221488000Y-114300000D02*
X214534500Y-114300000D01*
X223266000Y-116078000D02*
X221488000Y-114300000D01*
X222885000Y-121031000D02*
X223266000Y-120650000D01*
X258258000Y-42799000D02*
X256667000Y-42799000D01*
X256140000Y-42272000D02*
X244026000Y-42272000D01*
X256667000Y-42799000D02*
X256140000Y-42272000D01*
X236976000Y-46922000D02*
X236976000Y-43440000D01*
X261747000Y-42799000D02*
X263458000Y-42799000D01*
X261620000Y-42926000D02*
X261747000Y-42799000D01*
X236976000Y-43440000D02*
X236982000Y-43434000D01*
X258258000Y-41529000D02*
X244083000Y-41529000D01*
X244083000Y-41529000D02*
X244026000Y-41472000D01*
X237776000Y-46922000D02*
X237776000Y-42386000D01*
X261493000Y-41529000D02*
X263458000Y-41529000D01*
X261366000Y-41656000D02*
X261493000Y-41529000D01*
X237776000Y-42386000D02*
X237998000Y-42164000D01*
X202370000Y-119132000D02*
X205492000Y-119132000D01*
X213233000Y-124841000D02*
X215840000Y-124841000D01*
X211836000Y-123444000D02*
X213233000Y-124841000D01*
X209804000Y-123444000D02*
X211836000Y-123444000D01*
X205492000Y-119132000D02*
X209804000Y-123444000D01*
X215840000Y-123571000D02*
X213741000Y-123571000D01*
X208502000Y-118332000D02*
X202370000Y-118332000D01*
X209550000Y-119380000D02*
X208502000Y-118332000D01*
X213741000Y-123571000D02*
X212598000Y-122428000D01*
X202370000Y-117532000D02*
X209226000Y-117532000D01*
X213995000Y-122301000D02*
X215840000Y-122301000D01*
X213614000Y-121920000D02*
X213995000Y-122301000D01*
X209226000Y-117532000D02*
X211074000Y-119380000D01*
X215840000Y-121031000D02*
X213995000Y-121031000D01*
X209696000Y-116732000D02*
X202370000Y-116732000D01*
X211074000Y-118110000D02*
X209696000Y-116732000D01*
X213995000Y-121031000D02*
X213868000Y-120904000D01*
X215840000Y-118491000D02*
X214503000Y-118491000D01*
X211944000Y-115932000D02*
X202370000Y-115932000D01*
X214503000Y-118491000D02*
X211944000Y-115932000D01*
X195320000Y-120582000D02*
X195320000Y-118370000D01*
X217805000Y-118491000D02*
X221040000Y-118491000D01*
X217678000Y-118364000D02*
X217805000Y-118491000D01*
X195320000Y-118370000D02*
X195580000Y-118110000D01*
X215840000Y-117221000D02*
X215519000Y-117221000D01*
X215519000Y-117221000D02*
X213430000Y-115132000D01*
X213430000Y-115132000D02*
X202370000Y-115132000D01*
X196120000Y-120582000D02*
X196120000Y-118586000D01*
X218567000Y-117221000D02*
X221040000Y-117221000D01*
X218440000Y-117094000D02*
X218567000Y-117221000D01*
X198120000Y-116586000D02*
X199898000Y-116586000D01*
X196120000Y-118586000D02*
X198120000Y-116586000D01*
X189738000Y-52662000D02*
X188130000Y-52662000D01*
X188298000Y-113622000D02*
X188976000Y-113622000D01*
X187706000Y-113030000D02*
X188298000Y-113622000D01*
X187706000Y-106426000D02*
X187706000Y-113030000D01*
X187198000Y-53594000D02*
X187198000Y-59690000D01*
X188130000Y-52662000D02*
X187198000Y-53594000D01*
X189738000Y-52662000D02*
X189738000Y-53848000D01*
X190862000Y-54972000D02*
X194378000Y-54972000D01*
X189738000Y-53848000D02*
X190862000Y-54972000D01*
X188976000Y-113622000D02*
X188976000Y-114808000D01*
X188976000Y-114808000D02*
X190100000Y-115932000D01*
X190100000Y-115932000D02*
X193870000Y-115932000D01*
X194378000Y-54972000D02*
X197250000Y-54972000D01*
X228854000Y-42672000D02*
X230378000Y-42672000D01*
X197250000Y-54972000D02*
X197358000Y-54864000D01*
X230378000Y-41910000D02*
X230378000Y-42672000D01*
X235526000Y-42272000D02*
X232302000Y-42272000D01*
X231902000Y-42672000D02*
X230378000Y-42672000D01*
X232302000Y-42272000D02*
X231902000Y-42672000D01*
X190500000Y-113622000D02*
X191432000Y-113622000D01*
X192616000Y-52662000D02*
X191516000Y-52662000D01*
X192786000Y-52832000D02*
X192616000Y-52662000D01*
X190246000Y-62484000D02*
X193040000Y-59690000D01*
X190246000Y-83312000D02*
X190246000Y-62484000D01*
X192024000Y-85090000D02*
X190246000Y-83312000D01*
X192024000Y-113030000D02*
X192024000Y-85090000D01*
X191432000Y-113622000D02*
X192024000Y-113030000D01*
X191516000Y-52662000D02*
X191516000Y-53594000D01*
X191516000Y-53594000D02*
X192094000Y-54172000D01*
X192094000Y-54172000D02*
X194378000Y-54172000D01*
X190500000Y-113622000D02*
X190500000Y-114300000D01*
X191332000Y-115132000D02*
X193870000Y-115132000D01*
X190500000Y-114300000D02*
X191332000Y-115132000D01*
X232480000Y-41472000D02*
X231902000Y-40894000D01*
X231902000Y-40894000D02*
X228600000Y-40894000D01*
X232918000Y-41472000D02*
X232480000Y-41472000D01*
X197034000Y-54172000D02*
X194378000Y-54172000D01*
X197104000Y-54102000D02*
X197034000Y-54172000D01*
X232918000Y-40640000D02*
X232918000Y-41472000D01*
X235526000Y-41472000D02*
X232918000Y-41472000D01*
D39*
X182626000Y-31176000D02*
X185100000Y-31176000D01*
X185100000Y-31176000D02*
X185674000Y-31750000D01*
D41*
X199828000Y-51122000D02*
X199828000Y-52394000D01*
X199828000Y-52394000D02*
X199644000Y-52578000D01*
X197428000Y-59622000D02*
X197428000Y-57842000D01*
X197428000Y-57842000D02*
X197612000Y-57658000D01*
X238576000Y-46922000D02*
X238576000Y-44634000D01*
X238576000Y-44634000D02*
X238760000Y-44450000D01*
X240176000Y-46922000D02*
X240176000Y-45574000D01*
X240176000Y-45574000D02*
X240284000Y-45466000D01*
X195646000Y-49022000D02*
X194310000Y-49022000D01*
X194310000Y-49022000D02*
X193294000Y-48006000D01*
X199052000Y-83566000D02*
X198374000Y-83566000D01*
X197866000Y-83058000D02*
X197866000Y-82042000D01*
X198374000Y-83566000D02*
X197866000Y-83058000D01*
X199028000Y-58528000D02*
X199136000Y-58420000D01*
X199028000Y-58528000D02*
X199028000Y-59622000D01*
X227668000Y-116078000D02*
X229108000Y-116078000D01*
X227518000Y-119634000D02*
X227518000Y-118260000D01*
X227518000Y-118260000D02*
X227668000Y-118110000D01*
X209870000Y-128524000D02*
X208280000Y-128524000D01*
X233680000Y-46548000D02*
X234508000Y-46548000D01*
X234508000Y-46548000D02*
X234696000Y-46736000D01*
X194630000Y-109982000D02*
X193294000Y-109982000D01*
X198120000Y-125476000D02*
X198120000Y-128016000D01*
X196920000Y-120582000D02*
X196920000Y-118802000D01*
X196920000Y-118802000D02*
X197104000Y-118618000D01*
X198520000Y-120582000D02*
X198520000Y-119234000D01*
X198520000Y-119234000D02*
X198628000Y-119126000D01*
X193870000Y-113532000D02*
X195066000Y-113532000D01*
X195066000Y-113532000D02*
X195072000Y-113538000D01*
X193870000Y-114332000D02*
X193870000Y-113532000D01*
X197720000Y-112082000D02*
X197720000Y-113176000D01*
X197720000Y-113176000D02*
X197612000Y-113284000D01*
X195320000Y-112082000D02*
X196120000Y-112082000D01*
X196120000Y-112082000D02*
X196920000Y-112082000D01*
X196920000Y-112082000D02*
X197720000Y-112082000D01*
X199320000Y-112082000D02*
X199320000Y-113100000D01*
X199320000Y-113100000D02*
X199136000Y-113284000D01*
X200580000Y-108204000D02*
X199136000Y-108204000D01*
X221040000Y-123571000D02*
X222885000Y-123571000D01*
X222885000Y-123571000D02*
X223012000Y-123444000D01*
X227668000Y-118110000D02*
X229108000Y-118110000D01*
X236794000Y-36322000D02*
X235712000Y-36322000D01*
X240976000Y-38422000D02*
X240976000Y-39440000D01*
X240976000Y-39440000D02*
X240792000Y-39624000D01*
X235526000Y-39872000D02*
X236722000Y-39872000D01*
X236722000Y-39872000D02*
X236728000Y-39878000D01*
X198228000Y-51122000D02*
X198228000Y-52216000D01*
X198228000Y-52216000D02*
X198120000Y-52324000D01*
X198120000Y-65024000D02*
X198120000Y-67564000D01*
X194378000Y-53372000D02*
X195548000Y-53372000D01*
X195548000Y-53372000D02*
X195580000Y-53340000D01*
X196628000Y-51122000D02*
X197428000Y-51122000D01*
X198228000Y-51122000D02*
X197428000Y-51122000D01*
X195828000Y-51122000D02*
X196628000Y-51122000D01*
X194378000Y-53372000D02*
X194378000Y-52572000D01*
X209550000Y-86106000D02*
X210566000Y-86106000D01*
X210566000Y-86106000D02*
X210820000Y-86360000D01*
X206685000Y-139024000D02*
X206685000Y-140137000D01*
X206685000Y-140137000D02*
X206756000Y-140208000D01*
X195006000Y-146304000D02*
X196088000Y-146304000D01*
X208468000Y-146050000D02*
X209550000Y-146050000D01*
X196342000Y-141920000D02*
X196342000Y-143002000D01*
X193477000Y-139024000D02*
X193477000Y-140137000D01*
X193477000Y-140137000D02*
X193548000Y-140208000D01*
X198544000Y-89916000D02*
X197358000Y-89916000D01*
X198694000Y-91440000D02*
X197612000Y-91440000D01*
X215218000Y-90678000D02*
X216662000Y-90678000D01*
X214968000Y-87376000D02*
X216154000Y-87376000D01*
X269578000Y-44958000D02*
X270764000Y-44958000D01*
X269070000Y-41402000D02*
X270256000Y-41402000D01*
X263458000Y-47879000D02*
X261747000Y-47879000D01*
X261747000Y-47879000D02*
X261620000Y-48006000D01*
X253558000Y-53086000D02*
X252222000Y-53086000D01*
X239376000Y-38422000D02*
X239376000Y-39516000D01*
X239376000Y-39516000D02*
X239268000Y-39624000D01*
D39*
X239776000Y-51308000D02*
X239776000Y-54102000D01*
D41*
X242236000Y-34544000D02*
X240538000Y-34544000D01*
X236976000Y-38422000D02*
X237776000Y-38422000D01*
X237776000Y-38422000D02*
X238576000Y-38422000D01*
X238576000Y-38422000D02*
X239376000Y-38422000D01*
X239522000Y-38568000D02*
X239376000Y-38422000D01*
X235526000Y-39872000D02*
X235526000Y-40672000D01*
X212768000Y-87376000D02*
X211836000Y-87376000D01*
X204470000Y-88646000D02*
X203200000Y-88646000D01*
X211836000Y-87376000D02*
X211582000Y-87630000D01*
X212768000Y-85852000D02*
X212768000Y-87376000D01*
X270086000Y-50800000D02*
X270086000Y-51224000D01*
X270086000Y-51224000D02*
X269494000Y-51816000D01*
X269494000Y-51816000D02*
X268478000Y-51816000D01*
X268478000Y-51816000D02*
X268036000Y-52258000D01*
X268036000Y-52258000D02*
X268036000Y-52832000D01*
X225872000Y-125222000D02*
X225872000Y-123886000D01*
X227330000Y-122428000D02*
X233172000Y-122428000D01*
X225872000Y-123886000D02*
X227330000Y-122428000D01*
X252138000Y-49022000D02*
X252138000Y-49446000D01*
X252138000Y-49446000D02*
X252730000Y-50038000D01*
X252730000Y-50038000D02*
X254762000Y-50038000D01*
X254762000Y-50038000D02*
X255458000Y-50734000D01*
X255458000Y-50734000D02*
X255458000Y-51054000D01*
X255458000Y-51054000D02*
X255458000Y-51496000D01*
X255651000Y-51689000D02*
X258258000Y-51689000D01*
X255458000Y-51496000D02*
X255651000Y-51689000D01*
X201930000Y-84836000D02*
X203200000Y-84836000D01*
X200594000Y-91440000D02*
X200594000Y-90066000D01*
X200594000Y-90066000D02*
X200744000Y-89916000D01*
X200744000Y-89916000D02*
X200744000Y-88288000D01*
X200744000Y-88288000D02*
X200894000Y-88138000D01*
X203200000Y-87376000D02*
X201656000Y-87376000D01*
X201656000Y-87376000D02*
X200894000Y-88138000D01*
X206568000Y-146050000D02*
X206568000Y-144714000D01*
X206685000Y-144597000D02*
X206685000Y-143424000D01*
X206568000Y-144714000D02*
X206685000Y-144597000D01*
X206685000Y-143424000D02*
X207335000Y-143424000D01*
X197866000Y-142070000D02*
X197866000Y-144018000D01*
X194777000Y-144485000D02*
X194777000Y-143424000D01*
X195326000Y-145034000D02*
X194777000Y-144485000D01*
X196850000Y-145034000D02*
X195326000Y-145034000D01*
X197866000Y-144018000D02*
X196850000Y-145034000D01*
X200914000Y-142070000D02*
X199540000Y-142070000D01*
X199540000Y-142070000D02*
X199390000Y-141920000D01*
X199390000Y-141920000D02*
X198016000Y-141920000D01*
X198016000Y-141920000D02*
X197866000Y-142070000D01*
D39*
X242570000Y-18034000D02*
X244348000Y-18034000D01*
X245364000Y-19050000D02*
X245364000Y-21590000D01*
X244348000Y-18034000D02*
X245364000Y-19050000D01*
X238506000Y-15664000D02*
X242400000Y-15664000D01*
X242400000Y-15664000D02*
X242570000Y-15494000D01*
X234188000Y-18034000D02*
X235966000Y-18034000D01*
X236982000Y-19050000D02*
X236982000Y-21590000D01*
X235966000Y-18034000D02*
X236982000Y-19050000D01*
X230124000Y-15664000D02*
X234018000Y-15664000D01*
X234018000Y-15664000D02*
X234188000Y-15494000D01*
D41*
X266700000Y-41402000D02*
X265430000Y-42672000D01*
X264795000Y-46609000D02*
X263458000Y-46609000D01*
X265430000Y-45974000D02*
X264795000Y-46609000D01*
X266795500Y-37846000D02*
X266795500Y-41327500D01*
X225468000Y-116078000D02*
X225298000Y-116078000D01*
X225298000Y-116078000D02*
X224028000Y-117348000D01*
X223139000Y-122301000D02*
X221040000Y-122301000D01*
X224028000Y-121412000D02*
X223139000Y-122301000D01*
X224028000Y-117348000D02*
X224028000Y-117602000D01*
X225468000Y-116078000D02*
X225468000Y-113358500D01*
X225468000Y-113358500D02*
X223869500Y-111760000D01*
X270086000Y-48768000D02*
X270086000Y-49446000D01*
X267886000Y-50122000D02*
X267886000Y-50800000D01*
X268224000Y-49784000D02*
X267886000Y-50122000D01*
X269748000Y-49784000D02*
X268224000Y-49784000D01*
X270086000Y-49446000D02*
X269748000Y-49784000D01*
X263458000Y-51689000D02*
X265557000Y-51689000D01*
X266446000Y-50800000D02*
X267886000Y-50800000D01*
X265557000Y-51689000D02*
X266446000Y-50800000D01*
X225722000Y-126746000D02*
X224536000Y-126746000D01*
X223901000Y-127381000D02*
X221040000Y-127381000D01*
X224536000Y-126746000D02*
X223901000Y-127381000D01*
X225722000Y-126746000D02*
X225722000Y-127424000D01*
X227330000Y-127762000D02*
X227922000Y-128354000D01*
X226060000Y-127762000D02*
X227330000Y-127762000D01*
X225722000Y-127424000D02*
X226060000Y-127762000D01*
X227922000Y-128354000D02*
X227922000Y-128778000D01*
X267886000Y-48768000D02*
X267716000Y-48768000D01*
X267716000Y-48768000D02*
X266065000Y-50419000D01*
X266065000Y-50419000D02*
X263458000Y-50419000D01*
X225722000Y-128778000D02*
X224536000Y-128778000D01*
X222885000Y-126111000D02*
X221040000Y-126111000D01*
X223012000Y-126238000D02*
X222885000Y-126111000D01*
X215713000Y-125984000D02*
X210396000Y-125984000D01*
X215713000Y-125984000D02*
X215840000Y-126111000D01*
X188976000Y-74930000D02*
X186690000Y-77216000D01*
X186690000Y-77216000D02*
X185504000Y-77216000D01*
X185504000Y-77216000D02*
X185420000Y-77300000D01*
X185420000Y-77300000D02*
X183896000Y-77300000D01*
X199898000Y-84836000D02*
X201168000Y-83566000D01*
X201168000Y-83566000D02*
X201252000Y-83566000D01*
X201252000Y-83566000D02*
X203200000Y-83566000D01*
X205402000Y-92202000D02*
X203962000Y-92202000D01*
X203200000Y-91440000D02*
X203200000Y-89916000D01*
X203962000Y-92202000D02*
X203200000Y-91440000D01*
X263458000Y-52959000D02*
X261747000Y-52959000D01*
X261747000Y-49149000D02*
X263458000Y-49149000D01*
X261366000Y-49530000D02*
X261747000Y-49149000D01*
X261366000Y-52578000D02*
X261366000Y-49530000D01*
X261747000Y-52959000D02*
X261366000Y-52578000D01*
X254920500Y-37846000D02*
X257556000Y-37846000D01*
X257556000Y-37846000D02*
X260350000Y-40640000D01*
X260350000Y-40640000D02*
X260350000Y-44196000D01*
X260350000Y-44196000D02*
X261493000Y-45339000D01*
X261493000Y-45339000D02*
X263458000Y-45339000D01*
X214884000Y-140274000D02*
X214884000Y-137160000D01*
X211836000Y-134112000D02*
X209804000Y-134112000D01*
X214884000Y-137160000D02*
X211836000Y-134112000D01*
X202438000Y-141920000D02*
X202438000Y-143002000D01*
X200660000Y-144780000D02*
X200660000Y-148844000D01*
X202438000Y-143002000D02*
X200660000Y-144780000D01*
X196530000Y-109982000D02*
X197866000Y-109982000D01*
X198520000Y-110636000D02*
X198520000Y-112082000D01*
X197866000Y-109982000D02*
X198520000Y-110636000D01*
X238694000Y-36322000D02*
X239522000Y-36322000D01*
X240176000Y-36976000D02*
X240176000Y-38422000D01*
X239522000Y-36322000D02*
X240176000Y-36976000D01*
X197546000Y-49022000D02*
X198628000Y-49022000D01*
X199028000Y-49422000D02*
X199028000Y-51122000D01*
X198628000Y-49022000D02*
X199028000Y-49422000D01*
X203284000Y-109982000D02*
X203284000Y-108208000D01*
X203284000Y-108208000D02*
X203280000Y-108204000D01*
X244940000Y-36322000D02*
X244940000Y-34548000D01*
X244940000Y-34548000D02*
X244936000Y-34544000D01*
X200120000Y-120582000D02*
X200120000Y-121698000D01*
X195580000Y-122936000D02*
X194570000Y-123946000D01*
X198882000Y-122936000D02*
X195580000Y-122936000D01*
X200120000Y-121698000D02*
X198882000Y-122936000D01*
X194570000Y-123946000D02*
X194570000Y-125476000D01*
X194570000Y-125476000D02*
X194570000Y-124708000D01*
X201670000Y-125476000D02*
X201670000Y-123438000D01*
X200920000Y-122688000D02*
X200920000Y-120582000D01*
X201670000Y-123438000D02*
X200920000Y-122688000D01*
X236226000Y-51308000D02*
X236226000Y-50540000D01*
X236226000Y-50540000D02*
X237998000Y-48768000D01*
X237998000Y-48768000D02*
X241300000Y-48768000D01*
X241300000Y-48768000D02*
X241776000Y-48292000D01*
X241776000Y-48292000D02*
X241776000Y-46922000D01*
X243326000Y-51308000D02*
X243326000Y-49270000D01*
X242576000Y-48520000D02*
X242576000Y-46922000D01*
X243326000Y-49270000D02*
X242576000Y-48520000D01*
X194570000Y-65024000D02*
X194570000Y-63494000D01*
X194570000Y-63494000D02*
X196088000Y-61976000D01*
X196088000Y-61976000D02*
X200152000Y-61976000D01*
X200152000Y-61976000D02*
X200628000Y-61500000D01*
X200628000Y-61500000D02*
X200628000Y-59622000D01*
X201670000Y-65024000D02*
X201670000Y-61982000D01*
X201428000Y-61740000D02*
X201428000Y-59622000D01*
X201670000Y-61982000D02*
X201428000Y-61740000D01*
X185166000Y-121666000D02*
X188026000Y-121666000D01*
X225552000Y-47244000D02*
X228158000Y-47244000D01*
X228158000Y-47244000D02*
X229428000Y-45974000D01*
X185420000Y-61214000D02*
X188656000Y-61214000D01*
X188656000Y-61214000D02*
X189738000Y-60132000D01*
X191840000Y-117532000D02*
X193870000Y-117532000D01*
X191770000Y-117602000D02*
X191840000Y-117532000D01*
X191802000Y-118332000D02*
X193870000Y-118332000D01*
X191516000Y-118618000D02*
X191802000Y-118332000D01*
X225552000Y-42164000D02*
X226314000Y-42164000D01*
X226314000Y-42164000D02*
X228092000Y-43942000D01*
X228092000Y-43942000D02*
X230378000Y-43942000D01*
X234188000Y-43942000D02*
X234258000Y-43872000D01*
X234258000Y-43872000D02*
X235526000Y-43872000D01*
X225552000Y-44704000D02*
X230124000Y-44704000D01*
X233458000Y-44672000D02*
X235526000Y-44672000D01*
X233426000Y-44704000D02*
X233458000Y-44672000D01*
X190824000Y-56572000D02*
X194378000Y-56572000D01*
X190754000Y-56642000D02*
X190824000Y-56572000D01*
X192564000Y-57372000D02*
X194378000Y-57372000D01*
X191516000Y-58420000D02*
X192564000Y-57372000D01*
X220472000Y-34544000D02*
X220472000Y-37592000D01*
X219456000Y-38608000D02*
X219456000Y-41064000D01*
X220472000Y-37592000D02*
X219456000Y-38608000D01*
X220472000Y-32004000D02*
X221488000Y-32004000D01*
X220980000Y-38608000D02*
X220980000Y-41064000D01*
X221996000Y-37592000D02*
X220980000Y-38608000D01*
X221996000Y-32512000D02*
X221996000Y-37592000D01*
X221488000Y-32004000D02*
X221996000Y-32512000D01*
X217424000Y-34544000D02*
X217424000Y-37592000D01*
X216408000Y-38608000D02*
X216408000Y-41064000D01*
X217424000Y-37592000D02*
X216408000Y-38608000D01*
X217424000Y-32004000D02*
X218440000Y-32004000D01*
X217932000Y-38608000D02*
X217932000Y-41064000D01*
X218948000Y-37592000D02*
X217932000Y-38608000D01*
X218948000Y-32512000D02*
X218948000Y-37592000D01*
X218440000Y-32004000D02*
X218948000Y-32512000D01*
X214376000Y-34544000D02*
X214376000Y-37592000D01*
X213360000Y-38608000D02*
X213360000Y-41064000D01*
X214376000Y-37592000D02*
X213360000Y-38608000D01*
X214376000Y-32004000D02*
X215392000Y-32004000D01*
X214884000Y-38608000D02*
X214884000Y-41064000D01*
X215900000Y-37592000D02*
X214884000Y-38608000D01*
X215900000Y-32512000D02*
X215900000Y-37592000D01*
X215392000Y-32004000D02*
X215900000Y-32512000D01*
X211328000Y-34544000D02*
X211328000Y-37592000D01*
X210312000Y-38608000D02*
X210312000Y-41064000D01*
X211328000Y-37592000D02*
X210312000Y-38608000D01*
X211328000Y-32004000D02*
X212344000Y-32004000D01*
X211836000Y-38608000D02*
X211836000Y-41064000D01*
X212852000Y-37592000D02*
X211836000Y-38608000D01*
X212852000Y-32512000D02*
X212852000Y-37592000D01*
X212344000Y-32004000D02*
X212852000Y-32512000D01*
M02*
