G04 #@! TF.FileFunction,Soldermask,Bot*
%FSLAX46Y46*%
G04 Gerber Fmt 4.6, Leading zero omitted, Abs format (unit mm)*
G04 Created by KiCad (PCBNEW 4.0.6) date 01/21/18 14:08:51*
%MOMM*%
%LPD*%
G01*
G04 APERTURE LIST*
%ADD10C,0.100000*%
%ADD11C,2.940000*%
%ADD12C,1.400000*%
%ADD13R,1.400000X1.400000*%
%ADD14C,1.500000*%
%ADD15R,2.100000X2.100000*%
%ADD16O,2.100000X2.100000*%
%ADD17C,2.100000*%
%ADD18R,1.600000X1.150000*%
%ADD19R,2.000000X2.000000*%
%ADD20C,2.000000*%
%ADD21R,1.150000X1.600000*%
%ADD22C,3.448000*%
%ADD23R,1.600000X1.300000*%
%ADD24R,1.300000X1.600000*%
%ADD25R,2.200000X2.200000*%
%ADD26C,2.200000*%
%ADD27O,3.900000X3.900000*%
%ADD28O,2.200000X2.200000*%
%ADD29C,1.800000*%
%ADD30O,1.800000X1.800000*%
G04 APERTURE END LIST*
D10*
D11*
X270256000Y-19304000D03*
X265256000Y-19304000D03*
X260256000Y-19304000D03*
X255256000Y-19304000D03*
D12*
X244094000Y-22860000D03*
X245364000Y-21590000D03*
D13*
X245364000Y-24130000D03*
D14*
X182880000Y-40386000D03*
X184880000Y-40386000D03*
D15*
X225552000Y-102870000D03*
D16*
X228092000Y-102870000D03*
X230632000Y-102870000D03*
X233172000Y-102870000D03*
X235712000Y-102870000D03*
X238252000Y-102870000D03*
X240792000Y-102870000D03*
X243332000Y-102870000D03*
X245872000Y-102870000D03*
X248412000Y-102870000D03*
X250952000Y-102870000D03*
X253492000Y-102870000D03*
X256032000Y-102870000D03*
X258572000Y-102870000D03*
X261112000Y-102870000D03*
X263652000Y-102870000D03*
X266192000Y-102870000D03*
X268732000Y-102870000D03*
D15*
X225552000Y-34544000D03*
D16*
X225552000Y-37084000D03*
X225552000Y-39624000D03*
X225552000Y-42164000D03*
X225552000Y-44704000D03*
X225552000Y-47244000D03*
D15*
X185420000Y-48514000D03*
D16*
X185420000Y-51054000D03*
X185420000Y-53594000D03*
X185420000Y-56134000D03*
X185420000Y-58674000D03*
X185420000Y-61214000D03*
D12*
X258318000Y-28702000D03*
X257048000Y-27432000D03*
D13*
X259588000Y-27432000D03*
D12*
X235712000Y-22860000D03*
X236982000Y-21590000D03*
D13*
X236982000Y-24130000D03*
D12*
X227330000Y-22860000D03*
X228600000Y-21590000D03*
D13*
X228600000Y-24130000D03*
D12*
X218948000Y-22860000D03*
X220218000Y-21590000D03*
D13*
X220218000Y-24130000D03*
D12*
X210566000Y-22860000D03*
X211836000Y-21590000D03*
D13*
X211836000Y-24130000D03*
D12*
X213868000Y-80264000D03*
X215138000Y-81534000D03*
D13*
X212598000Y-81534000D03*
D17*
X195476000Y-79430000D03*
X188976000Y-79430000D03*
X195476000Y-74930000D03*
X188976000Y-74930000D03*
D18*
X267528000Y-42926000D03*
X269428000Y-42926000D03*
X201102000Y-86106000D03*
X199202000Y-86106000D03*
D19*
X207264000Y-77978000D03*
D20*
X205264000Y-77978000D03*
D21*
X204216000Y-142174000D03*
X204216000Y-140274000D03*
D22*
X184658000Y-18542000D03*
X194658000Y-18542000D03*
D15*
X185166000Y-108966000D03*
D16*
X185166000Y-111506000D03*
X185166000Y-114046000D03*
X185166000Y-116586000D03*
X185166000Y-119126000D03*
X185166000Y-121666000D03*
D23*
X201252000Y-82042000D03*
X199052000Y-82042000D03*
D24*
X196088000Y-87206000D03*
X196088000Y-85006000D03*
D25*
X242570000Y-18034000D03*
D26*
X242570000Y-15494000D03*
D25*
X234188000Y-18034000D03*
D26*
X234188000Y-15494000D03*
D25*
X225806000Y-18034000D03*
D26*
X225806000Y-15494000D03*
D25*
X217424000Y-18034000D03*
D26*
X217424000Y-15494000D03*
D25*
X209042000Y-18034000D03*
D26*
X209042000Y-15494000D03*
D27*
X202334000Y-31750000D03*
D25*
X185674000Y-29210000D03*
D28*
X185674000Y-31750000D03*
X185674000Y-34290000D03*
D15*
X268732000Y-109474000D03*
X265176000Y-109474000D03*
X270256000Y-27686000D03*
X231902000Y-110490000D03*
X266700000Y-27686000D03*
X206248000Y-134112000D03*
X258064000Y-109474000D03*
X195580000Y-134112000D03*
X202692000Y-134112000D03*
X261620000Y-109474000D03*
X188468000Y-141224000D03*
X212598000Y-62738000D03*
X233172000Y-122428000D03*
X263144000Y-27686000D03*
X209804000Y-134112000D03*
X200660000Y-148844000D03*
D18*
X197678000Y-61214000D03*
X199578000Y-61214000D03*
D24*
X230378000Y-37254000D03*
X230378000Y-39454000D03*
X232918000Y-37254000D03*
X232918000Y-39454000D03*
D29*
X220472000Y-34544000D03*
D30*
X220472000Y-32004000D03*
D29*
X217424000Y-34544000D03*
D30*
X217424000Y-32004000D03*
D29*
X214376000Y-34544000D03*
D30*
X214376000Y-32004000D03*
D29*
X211328000Y-34544000D03*
D30*
X211328000Y-32004000D03*
M02*
