G04 #@! TF.FileFunction,Soldermask,Bot*
%FSLAX46Y46*%
G04 Gerber Fmt 4.6, Leading zero omitted, Abs format (unit mm)*
G04 Created by KiCad (PCBNEW 4.0.6) date 01/13/18 17:56:14*
%MOMM*%
%LPD*%
G01*
G04 APERTURE LIST*
%ADD10C,0.100000*%
%ADD11C,1.400000*%
%ADD12R,1.400000X1.400000*%
%ADD13C,1.500000*%
%ADD14R,2.100000X2.100000*%
%ADD15O,2.100000X2.100000*%
%ADD16C,2.100000*%
%ADD17R,1.600000X1.150000*%
%ADD18R,2.000000X2.000000*%
%ADD19C,2.000000*%
%ADD20R,1.150000X1.600000*%
%ADD21C,3.448000*%
%ADD22C,2.940000*%
%ADD23R,1.600000X1.300000*%
%ADD24R,1.300000X1.600000*%
%ADD25R,2.200000X2.200000*%
%ADD26C,2.200000*%
%ADD27O,3.900000X3.900000*%
%ADD28O,2.200000X2.200000*%
%ADD29C,1.800000*%
%ADD30O,1.800000X1.800000*%
G04 APERTURE END LIST*
D10*
D11*
X213614000Y-22606000D03*
X214884000Y-21336000D03*
D12*
X214884000Y-23876000D03*
D13*
X182880000Y-40386000D03*
X184880000Y-40386000D03*
D14*
X228854000Y-102870000D03*
D15*
X231394000Y-102870000D03*
X233934000Y-102870000D03*
X236474000Y-102870000D03*
X239014000Y-102870000D03*
X241554000Y-102870000D03*
X244094000Y-102870000D03*
X246634000Y-102870000D03*
X249174000Y-102870000D03*
X251714000Y-102870000D03*
X254254000Y-102870000D03*
X256794000Y-102870000D03*
X259334000Y-102870000D03*
X261874000Y-102870000D03*
X264414000Y-102870000D03*
X266954000Y-102870000D03*
X269494000Y-102870000D03*
X272034000Y-102870000D03*
D14*
X225552000Y-34544000D03*
D15*
X225552000Y-37084000D03*
X225552000Y-39624000D03*
X225552000Y-42164000D03*
X225552000Y-44704000D03*
X225552000Y-47244000D03*
D14*
X185420000Y-48514000D03*
D15*
X185420000Y-51054000D03*
X185420000Y-53594000D03*
X185420000Y-56134000D03*
X185420000Y-58674000D03*
X185420000Y-61214000D03*
D11*
X258318000Y-28702000D03*
X257048000Y-27432000D03*
D12*
X259588000Y-27432000D03*
D11*
X223266000Y-22606000D03*
X224536000Y-21336000D03*
D12*
X224536000Y-23876000D03*
D11*
X232918000Y-22606000D03*
X234188000Y-21336000D03*
D12*
X234188000Y-23876000D03*
D11*
X242570000Y-22606000D03*
X243840000Y-21336000D03*
D12*
X243840000Y-23876000D03*
D11*
X252222000Y-22606000D03*
X253492000Y-21336000D03*
D12*
X253492000Y-23876000D03*
D11*
X213868000Y-80264000D03*
X215138000Y-81534000D03*
D12*
X212598000Y-81534000D03*
D16*
X191920000Y-79430000D03*
X185420000Y-79430000D03*
X191920000Y-74930000D03*
X185420000Y-74930000D03*
D17*
X267528000Y-42926000D03*
X269428000Y-42926000D03*
X201102000Y-86106000D03*
X199202000Y-86106000D03*
D18*
X207264000Y-77978000D03*
D19*
X205264000Y-77978000D03*
D20*
X204216000Y-142174000D03*
X204216000Y-140274000D03*
D21*
X182372000Y-18542000D03*
X192372000Y-18542000D03*
D22*
X274066000Y-19304000D03*
X269066000Y-19304000D03*
X264066000Y-19304000D03*
X259066000Y-19304000D03*
D14*
X185166000Y-108966000D03*
D15*
X185166000Y-111506000D03*
X185166000Y-114046000D03*
X185166000Y-116586000D03*
X185166000Y-119126000D03*
X185166000Y-121666000D03*
D23*
X201252000Y-82042000D03*
X199052000Y-82042000D03*
D24*
X196088000Y-87206000D03*
X196088000Y-85006000D03*
D25*
X212090000Y-17780000D03*
D26*
X212090000Y-15240000D03*
D25*
X221742000Y-17780000D03*
D26*
X221742000Y-15240000D03*
D25*
X231394000Y-17780000D03*
D26*
X231394000Y-15240000D03*
D25*
X241046000Y-17780000D03*
D26*
X241046000Y-15240000D03*
D25*
X250698000Y-17780000D03*
D26*
X250698000Y-15240000D03*
D27*
X199540000Y-32004000D03*
D25*
X182880000Y-29464000D03*
D28*
X182880000Y-32004000D03*
X182880000Y-34544000D03*
D14*
X274066000Y-109474000D03*
X270510000Y-109474000D03*
X274066000Y-27686000D03*
X231902000Y-110490000D03*
X270256000Y-27686000D03*
X206248000Y-134112000D03*
X263398000Y-109474000D03*
X195580000Y-134112000D03*
X202692000Y-134112000D03*
X266954000Y-109474000D03*
X188468000Y-141224000D03*
X201930000Y-18542000D03*
X233172000Y-122428000D03*
X266446000Y-27686000D03*
X209804000Y-134112000D03*
X200660000Y-148844000D03*
D17*
X197678000Y-61214000D03*
X199578000Y-61214000D03*
D24*
X230378000Y-37254000D03*
X230378000Y-39454000D03*
X232918000Y-37254000D03*
X232918000Y-39454000D03*
D29*
X220472000Y-34544000D03*
D30*
X220472000Y-32004000D03*
D29*
X217424000Y-34544000D03*
D30*
X217424000Y-32004000D03*
D29*
X214376000Y-34544000D03*
D30*
X214376000Y-32004000D03*
D29*
X211328000Y-34544000D03*
D30*
X211328000Y-32004000D03*
M02*
