G04 #@! TF.FileFunction,Other,User*
%FSLAX46Y46*%
G04 Gerber Fmt 4.6, Leading zero omitted, Abs format (unit mm)*
G04 Created by KiCad (PCBNEW 4.0.6) date 01/22/18 18:48:35*
%MOMM*%
%LPD*%
G01*
G04 APERTURE LIST*
%ADD10C,0.100000*%
%ADD11C,0.050000*%
G04 APERTURE END LIST*
D10*
D11*
X266678000Y-43576000D02*
X270278000Y-43576000D01*
X266678000Y-43576000D02*
X266678000Y-42276000D01*
X270278000Y-42276000D02*
X270278000Y-43576000D01*
X270278000Y-42276000D02*
X266678000Y-42276000D01*
X201952000Y-85456000D02*
X198352000Y-85456000D01*
X201952000Y-85456000D02*
X201952000Y-86756000D01*
X198352000Y-86756000D02*
X198352000Y-85456000D01*
X198352000Y-86756000D02*
X201952000Y-86756000D01*
X204866000Y-143024000D02*
X204866000Y-139424000D01*
X204866000Y-143024000D02*
X203566000Y-143024000D01*
X203566000Y-139424000D02*
X204866000Y-139424000D01*
X203566000Y-139424000D02*
X203566000Y-143024000D01*
X202112000Y-81342000D02*
X198202000Y-81342000D01*
X202112000Y-81342000D02*
X202112000Y-82742000D01*
X198202000Y-82742000D02*
X198202000Y-81342000D01*
X198202000Y-82742000D02*
X202112000Y-82742000D01*
X196788000Y-88066000D02*
X196788000Y-84156000D01*
X196788000Y-88066000D02*
X195388000Y-88066000D01*
X195388000Y-84156000D02*
X196788000Y-84156000D01*
X195388000Y-84156000D02*
X195388000Y-88066000D01*
X196828000Y-61864000D02*
X200428000Y-61864000D01*
X196828000Y-61864000D02*
X196828000Y-60564000D01*
X200428000Y-60564000D02*
X200428000Y-61864000D01*
X200428000Y-60564000D02*
X196828000Y-60564000D01*
X229678000Y-36394000D02*
X229678000Y-40304000D01*
X229678000Y-36394000D02*
X231078000Y-36394000D01*
X231078000Y-40304000D02*
X229678000Y-40304000D01*
X231078000Y-40304000D02*
X231078000Y-36394000D01*
X232218000Y-36394000D02*
X232218000Y-40304000D01*
X232218000Y-36394000D02*
X233618000Y-36394000D01*
X233618000Y-40304000D02*
X232218000Y-40304000D01*
X233618000Y-40304000D02*
X233618000Y-36394000D01*
M02*
